<svg width="24" height="24" viewBox="0 0 24 24" fill="none" xmlns="http://www.w3.org/2000/svg">
<path d="M11 12.0002C11 12.2655 11.1054 12.5198 11.2929 12.7074C11.4804 12.8949 11.7348 13.0002 12 13.0002C12.2652 13.0002 12.5196 12.8949 12.7071 12.7074C12.8946 12.5198 13 12.2655 13 12.0002C13 11.735 12.8946 11.4807 12.7071 11.2931C12.5196 11.1056 12.2652 11.0002 12 11.0002C11.7348 11.0002 11.4804 11.1056 11.2929 11.2931C11.1054 11.4807 11 11.735 11 12.0002Z" stroke="#292929" stroke-width="1.28571" stroke-linecap="round" stroke-linejoin="round"/>
<path d="M11 19.0002C11 19.2655 11.1054 19.5198 11.2929 19.7074C11.4804 19.8949 11.7348 20.0002 12 20.0002C12.2652 20.0002 12.5196 19.8949 12.7071 19.7074C12.8946 19.5198 13 19.2655 13 19.0002C13 18.735 12.8946 18.4807 12.7071 18.2931C12.5196 18.1056 12.2652 18.0002 12 18.0002C11.7348 18.0002 11.4804 18.1056 11.2929 18.2931C11.1054 18.4807 11 18.735 11 19.0002Z" stroke="#292929" stroke-width="1.28571" stroke-linecap="round" stroke-linejoin="round"/>
<path d="M11 5.00024C11 5.26546 11.1054 5.51981 11.2929 5.70735C11.4804 5.89489 11.7348 6.00024 12 6.00024C12.2652 6.00024 12.5196 5.89489 12.7071 5.70735C12.8946 5.51981 13 5.26546 13 5.00024C13 4.73503 12.8946 4.48067 12.7071 4.29314C12.5196 4.1056 12.2652 4.00024 12 4.00024C11.7348 4.00024 11.4804 4.1056 11.2929 4.29314C11.1054 4.48067 11 4.73503 11 5.00024Z" stroke="#292929" stroke-width="1.28571" stroke-linecap="round" stroke-linejoin="round"/>
</svg>
