<svg width="22" height="20" viewBox="0 0 22 20" fill="none" xmlns="http://www.w3.org/2000/svg">
<path d="M7 5H15.75C17.8567 5 18.91 5 19.6667 5.50559C19.9943 5.72447 20.2755 6.00572 20.4944 6.33329C21 7.08996 21 8.1433 21 10.25C21 13.7612 21 15.5167 20.1573 16.7779C19.7926 17.3238 19.3238 17.7926 18.7779 18.1573C17.5167 19 15.7612 19 12.25 19H11C6.28595 19 3.92893 19 2.46447 17.5355C1 16.0711 1 13.714 1 9V5.94427C1 4.1278 1 3.21956 1.38032 2.53806C1.65142 2.05227 2.05227 1.65142 2.53806 1.38032C3.21956 1 4.1278 1 5.94427 1C7.10802 1 7.6899 1 8.19926 1.19101C9.3622 1.62712 9.8418 2.68358 10.3666 3.73313L11 5" fill="white"/>
<path d="M7 5H15.75C17.8567 5 18.91 5 19.6667 5.50559C19.9943 5.72447 20.2755 6.00572 20.4944 6.33329C21 7.08996 21 8.1433 21 10.25C21 13.7612 21 15.5167 20.1573 16.7779C19.7926 17.3238 19.3238 17.7926 18.7779 18.1573C17.5167 19 15.7612 19 12.25 19H11C6.28595 19 3.92893 19 2.46447 17.5355C1 16.0711 1 13.714 1 9V5.94427C1 4.1278 1 3.21956 1.38032 2.53806C1.65142 2.05227 2.05227 1.65142 2.53806 1.38032C3.21956 1 4.1278 1 5.94427 1C7.10802 1 7.6899 1 8.19926 1.19101C9.3622 1.62712 9.8418 2.68358 10.3666 3.73313L11 5" stroke="white" stroke-width="1.5" stroke-linecap="round"/>
</svg>
