<svg width="340" height="20" viewBox="0 0 340 20" fill="none" xmlns="http://www.w3.org/2000/svg">
<path d="M26.6279 16.6679C29.7652 16.4594 32.2642 13.9249 32.4698 10.7432C32.51 10.1205 32.51 9.47568 32.4698 8.85303C32.2642 5.67129 29.7652 3.13685 26.6279 2.9283C25.5576 2.85716 24.4402 2.85731 23.372 2.9283C20.2348 3.13685 17.7358 5.67129 17.5302 8.85303C17.4899 9.47568 17.4899 10.1205 17.5302 10.7432C17.6051 11.902 18.1176 12.975 18.7209 13.881C19.0713 14.5152 18.8401 15.3069 18.4752 15.9984C18.2121 16.497 18.0805 16.7463 18.1861 16.9263C18.2918 17.1064 18.5277 17.1122 18.9996 17.1236C19.9328 17.1464 20.562 16.8818 21.0615 16.5135C21.3448 16.3046 21.4865 16.2001 21.5841 16.1881C21.6817 16.1761 21.8738 16.2552 22.258 16.4135C22.6033 16.5557 23.0042 16.6434 23.372 16.6679C24.4402 16.7389 25.5576 16.739 26.6279 16.6679Z" fill="#9D9D9D"/>
<path d="M22.375 11.875H27.625M22.375 8.125H25" stroke="white" stroke-width="1.125" stroke-linecap="round" stroke-linejoin="round"/>
<path d="M40.56 15C40.4853 15 40.42 14.972 40.364 14.916C40.308 14.86 40.28 14.7947 40.28 14.72C40.28 14.6733 40.2847 14.622 40.294 14.566L43.766 5.508C43.8033 5.41467 43.8547 5.34 43.92 5.284C43.9853 5.228 44.0833 5.2 44.214 5.2H45.166C45.2873 5.2 45.3807 5.228 45.446 5.284C45.5207 5.34 45.5767 5.41467 45.614 5.508L49.072 14.566C49.0907 14.622 49.1 14.6733 49.1 14.72C49.1 14.7947 49.072 14.86 49.016 14.916C48.96 14.972 48.8947 15 48.82 15H48.106C47.994 15 47.91 14.972 47.854 14.916C47.8073 14.86 47.7747 14.8087 47.756 14.762L46.986 12.774H42.394L41.624 14.762C41.6147 14.8087 41.582 14.86 41.526 14.916C41.47 14.972 41.386 15 41.274 15H40.56ZM42.8 11.57H46.58L44.69 6.6L42.8 11.57ZM50.7509 15C50.6576 15 50.5782 14.972 50.5129 14.916C50.4569 14.8507 50.4289 14.7713 50.4289 14.678V5.382C50.4289 5.28867 50.4569 5.214 50.5129 5.158C50.5782 5.09267 50.6576 5.06 50.7509 5.06H51.4089C51.5116 5.06 51.5909 5.09267 51.6469 5.158C51.7029 5.214 51.7309 5.28867 51.7309 5.382V14.678C51.7309 14.7713 51.7029 14.8507 51.6469 14.916C51.5909 14.972 51.5116 15 51.4089 15H50.7509ZM54.1552 15C54.0619 15 53.9825 14.972 53.9172 14.916C53.8612 14.8507 53.8332 14.7713 53.8332 14.678V5.382C53.8332 5.28867 53.8612 5.214 53.9172 5.158C53.9825 5.09267 54.0619 5.06 54.1552 5.06H54.8132C54.9159 5.06 54.9952 5.09267 55.0512 5.158C55.1072 5.214 55.1352 5.28867 55.1352 5.382V14.678C55.1352 14.7713 55.1072 14.8507 55.0512 14.916C54.9952 14.972 54.9159 15 54.8132 15H54.1552ZM61.1591 15C61.0658 15 60.9865 14.972 60.9211 14.916C60.8651 14.8507 60.8371 14.7713 60.8371 14.678V5.536C60.8371 5.43333 60.8651 5.354 60.9211 5.298C60.9865 5.23267 61.0658 5.2 61.1591 5.2H61.8591C61.9711 5.2 62.0551 5.228 62.1111 5.284C62.1671 5.34 62.1998 5.38667 62.2091 5.424L65.1771 11.08L68.1591 5.424C68.1778 5.38667 68.2105 5.34 68.2571 5.284C68.3131 5.228 68.3971 5.2 68.5091 5.2H69.1951C69.2978 5.2 69.3771 5.23267 69.4331 5.298C69.4985 5.354 69.5311 5.43333 69.5311 5.536V14.678C69.5311 14.7713 69.4985 14.8507 69.4331 14.916C69.3771 14.972 69.2978 15 69.1951 15H68.5091C68.4158 15 68.3365 14.972 68.2711 14.916C68.2151 14.8507 68.1871 14.7713 68.1871 14.678V7.79L65.8491 12.354C65.8118 12.4473 65.7558 12.522 65.6811 12.578C65.6065 12.6247 65.5131 12.648 65.4011 12.648H64.9671C64.8458 12.648 64.7478 12.6247 64.6731 12.578C64.6078 12.522 64.5518 12.4473 64.5051 12.354L62.1671 7.79V14.678C62.1671 14.7713 62.1345 14.8507 62.0691 14.916C62.0131 14.972 61.9385 15 61.8451 15H61.1591ZM74.6684 15.14C73.707 15.14 72.9417 14.846 72.3724 14.258C71.803 13.6607 71.4904 12.8487 71.4344 11.822C71.425 11.7007 71.4204 11.5467 71.4204 11.36C71.4204 11.164 71.425 11.0053 71.4344 10.884C71.4717 10.2213 71.6257 9.64267 71.8964 9.148C72.167 8.644 72.5357 8.25667 73.0024 7.986C73.4784 7.71533 74.0337 7.58 74.6684 7.58C75.3777 7.58 75.9704 7.72933 76.4464 8.028C76.9317 8.32667 77.3004 8.75133 77.5524 9.302C77.8044 9.85267 77.9304 10.4967 77.9304 11.234V11.472C77.9304 11.5747 77.8977 11.654 77.8324 11.71C77.7764 11.766 77.7017 11.794 77.6084 11.794H72.7644C72.7644 11.8033 72.7644 11.822 72.7644 11.85C72.7644 11.878 72.7644 11.9013 72.7644 11.92C72.783 12.3027 72.867 12.662 73.0164 12.998C73.1657 13.3247 73.3804 13.5907 73.6604 13.796C73.9404 14.0013 74.2764 14.104 74.6684 14.104C75.0044 14.104 75.2844 14.0527 75.5084 13.95C75.7324 13.8473 75.9144 13.7353 76.0544 13.614C76.1944 13.4833 76.2877 13.3853 76.3344 13.32C76.4184 13.1987 76.4837 13.1287 76.5304 13.11C76.577 13.082 76.6517 13.068 76.7544 13.068H77.4264C77.5197 13.068 77.5944 13.096 77.6504 13.152C77.7157 13.1987 77.7437 13.2687 77.7344 13.362C77.725 13.502 77.6504 13.6747 77.5104 13.88C77.3704 14.076 77.1697 14.272 76.9084 14.468C76.647 14.664 76.3297 14.8273 75.9564 14.958C75.583 15.0793 75.1537 15.14 74.6684 15.14ZM72.7644 10.828H76.6004V10.786C76.6004 10.366 76.521 9.99267 76.3624 9.666C76.213 9.33933 75.9937 9.08267 75.7044 8.896C75.415 8.7 75.0697 8.602 74.6684 8.602C74.267 8.602 73.9217 8.7 73.6324 8.896C73.3524 9.08267 73.1377 9.33933 72.9884 9.666C72.839 9.99267 72.7644 10.366 72.7644 10.786V10.828ZM82.1244 15.14C81.6017 15.14 81.1537 15.0747 80.7804 14.944C80.407 14.8133 80.1037 14.6547 79.8704 14.468C79.637 14.2813 79.4597 14.0947 79.3384 13.908C79.2264 13.7213 79.1657 13.572 79.1564 13.46C79.147 13.3573 79.1797 13.278 79.2544 13.222C79.329 13.166 79.4037 13.138 79.4784 13.138H80.0944C80.1504 13.138 80.1924 13.1473 80.2204 13.166C80.2577 13.1753 80.3044 13.2127 80.3604 13.278C80.4817 13.4087 80.617 13.5393 80.7664 13.67C80.9157 13.8007 81.0977 13.908 81.3124 13.992C81.5364 14.076 81.8117 14.118 82.1384 14.118C82.6144 14.118 83.0064 14.0293 83.3144 13.852C83.6224 13.6653 83.7764 13.3947 83.7764 13.04C83.7764 12.8067 83.711 12.62 83.5804 12.48C83.459 12.34 83.235 12.214 82.9084 12.102C82.591 11.99 82.1524 11.8733 81.5924 11.752C81.0324 11.6213 80.589 11.4627 80.2624 11.276C79.9357 11.08 79.7024 10.8513 79.5624 10.59C79.4224 10.3193 79.3524 10.016 79.3524 9.68C79.3524 9.33467 79.455 9.00333 79.6604 8.686C79.8657 8.35933 80.1644 8.09333 80.5564 7.888C80.9577 7.68267 81.457 7.58 82.0544 7.58C82.5397 7.58 82.955 7.64067 83.3004 7.762C83.6457 7.88333 83.9304 8.03733 84.1544 8.224C84.3784 8.40133 84.5464 8.57867 84.6584 8.756C84.7704 8.93333 84.831 9.08267 84.8404 9.204C84.8497 9.29733 84.8217 9.37667 84.7564 9.442C84.691 9.498 84.6164 9.526 84.5324 9.526H83.9444C83.879 9.526 83.823 9.512 83.7764 9.484C83.739 9.456 83.7017 9.42333 83.6644 9.386C83.571 9.26467 83.459 9.14333 83.3284 9.022C83.207 8.90067 83.0437 8.80267 82.8384 8.728C82.6424 8.644 82.381 8.602 82.0544 8.602C81.5877 8.602 81.2377 8.7 81.0044 8.896C80.771 9.092 80.6544 9.33933 80.6544 9.638C80.6544 9.81533 80.7057 9.974 80.8084 10.114C80.911 10.254 81.107 10.38 81.3964 10.492C81.6857 10.604 82.115 10.7253 82.6844 10.856C83.3004 10.9773 83.7857 11.1407 84.1404 11.346C84.495 11.5513 84.747 11.7893 84.8964 12.06C85.0457 12.3307 85.1204 12.6433 85.1204 12.998C85.1204 13.39 85.0037 13.7493 84.7704 14.076C84.5464 14.4027 84.2104 14.664 83.7624 14.86C83.3237 15.0467 82.7777 15.14 82.1244 15.14ZM89.2611 15.14C88.7384 15.14 88.2904 15.0747 87.9171 14.944C87.5437 14.8133 87.2404 14.6547 87.0071 14.468C86.7737 14.2813 86.5964 14.0947 86.4751 13.908C86.3631 13.7213 86.3024 13.572 86.2931 13.46C86.2837 13.3573 86.3164 13.278 86.3911 13.222C86.4657 13.166 86.5404 13.138 86.6151 13.138H87.2311C87.2871 13.138 87.3291 13.1473 87.3571 13.166C87.3944 13.1753 87.4411 13.2127 87.4971 13.278C87.6184 13.4087 87.7537 13.5393 87.9031 13.67C88.0524 13.8007 88.2344 13.908 88.4491 13.992C88.6731 14.076 88.9484 14.118 89.2751 14.118C89.7511 14.118 90.1431 14.0293 90.4511 13.852C90.7591 13.6653 90.9131 13.3947 90.9131 13.04C90.9131 12.8067 90.8477 12.62 90.7171 12.48C90.5957 12.34 90.3717 12.214 90.0451 12.102C89.7277 11.99 89.2891 11.8733 88.7291 11.752C88.1691 11.6213 87.7257 11.4627 87.3991 11.276C87.0724 11.08 86.8391 10.8513 86.6991 10.59C86.5591 10.3193 86.4891 10.016 86.4891 9.68C86.4891 9.33467 86.5917 9.00333 86.7971 8.686C87.0024 8.35933 87.3011 8.09333 87.6931 7.888C88.0944 7.68267 88.5937 7.58 89.1911 7.58C89.6764 7.58 90.0917 7.64067 90.4371 7.762C90.7824 7.88333 91.0671 8.03733 91.2911 8.224C91.5151 8.40133 91.6831 8.57867 91.7951 8.756C91.9071 8.93333 91.9677 9.08267 91.9771 9.204C91.9864 9.29733 91.9584 9.37667 91.8931 9.442C91.8277 9.498 91.7531 9.526 91.6691 9.526H91.0811C91.0157 9.526 90.9597 9.512 90.9131 9.484C90.8757 9.456 90.8384 9.42333 90.8011 9.386C90.7077 9.26467 90.5957 9.14333 90.4651 9.022C90.3437 8.90067 90.1804 8.80267 89.9751 8.728C89.7791 8.644 89.5177 8.602 89.1911 8.602C88.7244 8.602 88.3744 8.7 88.1411 8.896C87.9077 9.092 87.7911 9.33933 87.7911 9.638C87.7911 9.81533 87.8424 9.974 87.9451 10.114C88.0477 10.254 88.2437 10.38 88.5331 10.492C88.8224 10.604 89.2517 10.7253 89.8211 10.856C90.4371 10.9773 90.9224 11.1407 91.2771 11.346C91.6317 11.5513 91.8837 11.7893 92.0331 12.06C92.1824 12.3307 92.2571 12.6433 92.2571 12.998C92.2571 13.39 92.1404 13.7493 91.9071 14.076C91.6831 14.4027 91.3471 14.664 90.8991 14.86C90.4604 15.0467 89.9144 15.14 89.2611 15.14ZM95.9078 15.14C95.4411 15.14 95.0165 15.0467 94.6338 14.86C94.2511 14.6733 93.9431 14.4213 93.7098 14.104C93.4765 13.7867 93.3598 13.4273 93.3598 13.026C93.3598 12.382 93.6211 11.8687 94.1438 11.486C94.6665 11.1033 95.3478 10.8513 96.1878 10.73L98.2738 10.436V10.03C98.2738 9.582 98.1431 9.232 97.8818 8.98C97.6298 8.728 97.2145 8.602 96.6358 8.602C96.2158 8.602 95.8751 8.686 95.6138 8.854C95.3618 9.022 95.1845 9.23667 95.0818 9.498C95.0258 9.638 94.9278 9.708 94.7878 9.708H94.1578C94.0551 9.708 93.9758 9.68 93.9198 9.624C93.8731 9.55867 93.8498 9.484 93.8498 9.4C93.8498 9.26 93.9011 9.08733 94.0038 8.882C94.1158 8.67667 94.2838 8.476 94.5078 8.28C94.7318 8.084 95.0165 7.92067 95.3618 7.79C95.7165 7.65 96.1458 7.58 96.6498 7.58C97.2098 7.58 97.6811 7.65467 98.0638 7.804C98.4465 7.944 98.7451 8.13533 98.9598 8.378C99.1838 8.62067 99.3425 8.896 99.4358 9.204C99.5385 9.512 99.5898 9.82467 99.5898 10.142V14.678C99.5898 14.7713 99.5571 14.8507 99.4918 14.916C99.4358 14.972 99.3611 15 99.2678 15H98.6238C98.5211 15 98.4418 14.972 98.3858 14.916C98.3298 14.8507 98.3018 14.7713 98.3018 14.678V14.076C98.1805 14.244 98.0171 14.412 97.8118 14.58C97.6065 14.7387 97.3498 14.874 97.0418 14.986C96.7338 15.0887 96.3558 15.14 95.9078 15.14ZM96.2018 14.09C96.5845 14.09 96.9345 14.0107 97.2518 13.852C97.5691 13.684 97.8165 13.4273 97.9938 13.082C98.1805 12.7367 98.2738 12.3027 98.2738 11.78V11.388L96.6498 11.626C95.9871 11.7193 95.4878 11.878 95.1518 12.102C94.8158 12.3167 94.6478 12.592 94.6478 12.928C94.6478 13.1893 94.7225 13.4087 94.8718 13.586C95.0305 13.754 95.2265 13.88 95.4598 13.964C95.7025 14.048 95.9498 14.09 96.2018 14.09ZM104.584 18.08C103.95 18.08 103.427 17.996 103.016 17.828C102.615 17.66 102.298 17.4547 102.064 17.212C101.84 16.9787 101.677 16.7407 101.574 16.498C101.481 16.2647 101.43 16.078 101.42 15.938C101.411 15.8447 101.439 15.7653 101.504 15.7C101.579 15.6347 101.658 15.602 101.742 15.602H102.414C102.498 15.602 102.568 15.6207 102.624 15.658C102.68 15.6953 102.727 15.7747 102.764 15.896C102.82 16.036 102.904 16.19 103.016 16.358C103.128 16.5353 103.301 16.6847 103.534 16.806C103.768 16.9367 104.094 17.002 104.514 17.002C104.953 17.002 105.322 16.9413 105.62 16.82C105.919 16.708 106.143 16.5027 106.292 16.204C106.451 15.9147 106.53 15.5133 106.53 15V14.048C106.306 14.3373 106.012 14.58 105.648 14.776C105.284 14.9627 104.827 15.056 104.276 15.056C103.754 15.056 103.306 14.9673 102.932 14.79C102.559 14.6033 102.251 14.356 102.008 14.048C101.775 13.7307 101.598 13.3713 101.476 12.97C101.364 12.5687 101.299 12.1487 101.28 11.71C101.271 11.4487 101.271 11.192 101.28 10.94C101.299 10.5013 101.364 10.0813 101.476 9.68C101.598 9.27867 101.775 8.91933 102.008 8.602C102.251 8.28467 102.559 8.03733 102.932 7.86C103.306 7.67333 103.754 7.58 104.276 7.58C104.836 7.58 105.298 7.68733 105.662 7.902C106.036 8.10733 106.339 8.35933 106.572 8.658V8.056C106.572 7.96267 106.6 7.88333 106.656 7.818C106.722 7.75267 106.801 7.72 106.894 7.72H107.538C107.632 7.72 107.711 7.75267 107.776 7.818C107.842 7.88333 107.874 7.96267 107.874 8.056V14.846C107.874 15.4713 107.767 16.0267 107.552 16.512C107.347 16.9973 107.002 17.38 106.516 17.66C106.04 17.94 105.396 18.08 104.584 18.08ZM104.556 13.936C105.023 13.936 105.396 13.8287 105.676 13.614C105.966 13.3993 106.176 13.1287 106.306 12.802C106.446 12.4753 106.521 12.144 106.53 11.808C106.54 11.6773 106.544 11.5187 106.544 11.332C106.544 11.136 106.54 10.9727 106.53 10.842C106.521 10.506 106.446 10.1747 106.306 9.848C106.176 9.52133 105.966 9.25067 105.676 9.036C105.396 8.82133 105.023 8.714 104.556 8.714C104.09 8.714 103.716 8.82133 103.436 9.036C103.156 9.24133 102.956 9.51667 102.834 9.862C102.713 10.198 102.643 10.562 102.624 10.954C102.615 11.1967 102.615 11.444 102.624 11.696C102.643 12.088 102.713 12.4567 102.834 12.802C102.956 13.138 103.156 13.4133 103.436 13.628C103.716 13.8333 104.09 13.936 104.556 13.936ZM112.854 15.14C111.893 15.14 111.127 14.846 110.558 14.258C109.989 13.6607 109.676 12.8487 109.62 11.822C109.611 11.7007 109.606 11.5467 109.606 11.36C109.606 11.164 109.611 11.0053 109.62 10.884C109.657 10.2213 109.811 9.64267 110.082 9.148C110.353 8.644 110.721 8.25667 111.188 7.986C111.664 7.71533 112.219 7.58 112.854 7.58C113.563 7.58 114.156 7.72933 114.632 8.028C115.117 8.32667 115.486 8.75133 115.738 9.302C115.99 9.85267 116.116 10.4967 116.116 11.234V11.472C116.116 11.5747 116.083 11.654 116.018 11.71C115.962 11.766 115.887 11.794 115.794 11.794H110.95C110.95 11.8033 110.95 11.822 110.95 11.85C110.95 11.878 110.95 11.9013 110.95 11.92C110.969 12.3027 111.053 12.662 111.202 12.998C111.351 13.3247 111.566 13.5907 111.846 13.796C112.126 14.0013 112.462 14.104 112.854 14.104C113.19 14.104 113.47 14.0527 113.694 13.95C113.918 13.8473 114.1 13.7353 114.24 13.614C114.38 13.4833 114.473 13.3853 114.52 13.32C114.604 13.1987 114.669 13.1287 114.716 13.11C114.763 13.082 114.837 13.068 114.94 13.068H115.612C115.705 13.068 115.78 13.096 115.836 13.152C115.901 13.1987 115.929 13.2687 115.92 13.362C115.911 13.502 115.836 13.6747 115.696 13.88C115.556 14.076 115.355 14.272 115.094 14.468C114.833 14.664 114.515 14.8273 114.142 14.958C113.769 15.0793 113.339 15.14 112.854 15.14ZM110.95 10.828H114.786V10.786C114.786 10.366 114.707 9.99267 114.548 9.666C114.399 9.33933 114.179 9.08267 113.89 8.896C113.601 8.7 113.255 8.602 112.854 8.602C112.453 8.602 112.107 8.7 111.818 8.896C111.538 9.08267 111.323 9.33933 111.174 9.666C111.025 9.99267 110.95 10.366 110.95 10.786V10.828Z" fill="#707070"/>
</svg>
