<svg width="24" height="24" viewBox="0 0 24 24" fill="none" xmlns="http://www.w3.org/2000/svg">
<path d="M12 23.25C10.6081 23.2485 9.27358 22.6949 8.28933 21.7107C7.30509 20.7264 6.75149 19.3919 6.75 18L6.75 4.5C6.75 3.50544 7.14509 2.55161 7.84835 1.84835C8.55161 1.14509 9.50544 0.75 10.5 0.75C11.4946 0.75 12.4484 1.14509 13.1517 1.84835C13.8549 2.55161 14.25 3.50544 14.25 4.5L14.25 18C14.25 18.5967 14.0129 19.169 13.591 19.591C13.169 20.0129 12.5967 20.25 12 20.25C11.4033 20.25 10.831 20.0129 10.409 19.591C9.98705 19.169 9.75 18.5967 9.75 18L9.75 7.5C9.75 7.30109 9.82902 7.11032 9.96967 6.96967C10.1103 6.82902 10.3011 6.75 10.5 6.75C10.6989 6.75 10.8897 6.82902 11.0303 6.96967C11.171 7.11032 11.25 7.30109 11.25 7.5L11.25 18C11.25 18.1989 11.329 18.3897 11.4697 18.5303C11.6103 18.671 11.8011 18.75 12 18.75C12.1989 18.75 12.3897 18.671 12.5303 18.5303C12.671 18.3897 12.75 18.1989 12.75 18L12.75 4.5C12.75 3.90326 12.5129 3.33097 12.091 2.90901C11.669 2.48705 11.0967 2.25 10.5 2.25C9.90326 2.25 9.33097 2.48705 8.90901 2.90901C8.48705 3.33097 8.25 3.90326 8.25 4.5L8.25 18C8.25 18.9946 8.64509 19.9484 9.34835 20.6516C10.0516 21.3549 11.0054 21.75 12 21.75C12.9946 21.75 13.9484 21.3549 14.6517 20.6516C15.3549 19.9484 15.75 18.9946 15.75 18L15.75 7.5C15.75 7.30109 15.829 7.11032 15.9697 6.96967C16.1103 6.82902 16.3011 6.75 16.5 6.75C16.6989 6.75 16.8897 6.82902 17.0303 6.96967C17.171 7.11032 17.25 7.30109 17.25 7.5L17.25 18C17.2485 19.3919 16.6949 20.7264 15.7107 21.7107C14.7264 22.6949 13.3919 23.2485 12 23.25Z" fill="#292929"/>
</svg>
