<svg width="42" height="42" viewBox="0 0 42 42" fill="none" xmlns="http://www.w3.org/2000/svg">
<rect x="0.25" y="0.25" width="41.5" height="41.5" rx="5.75" fill="white"/>
<rect x="0.25" y="0.25" width="41.5" height="41.5" rx="5.75" stroke="#EAEAEA" stroke-width="0.5"/>
<path d="M11.5299 23.7696C11.3173 25.1636 12.268 26.1312 13.4321 26.6134C17.8948 28.4622 24.1052 28.4622 28.5679 26.6134C29.732 26.1312 30.6827 25.1636 30.4701 23.7696C30.3394 22.9129 29.6932 22.1995 29.2144 21.5029C28.5873 20.5793 28.525 19.5718 28.5249 18.5C28.5249 14.3579 25.1559 11 21 11C16.8441 11 13.4751 14.3579 13.4751 18.5C13.475 19.5718 13.4127 20.5793 12.7856 21.5029C12.3068 22.1995 11.6606 22.9129 11.5299 23.7696Z" stroke="#292929" stroke-width="1.5" stroke-linecap="round" stroke-linejoin="round"/>
<path d="M17 28C17.4585 29.7252 19.0755 31 21 31C22.9245 31 24.5415 29.7252 25 28" stroke="#292929" stroke-width="1.5" stroke-linecap="round" stroke-linejoin="round"/>
<circle cx="25.0449" cy="13" r="4" fill="#FF3B30" stroke="white" stroke-width="2"/>
</svg>
