<svg width="34" height="34" viewBox="0 0 34 34" fill="none" xmlns="http://www.w3.org/2000/svg">
<rect width="34.0001" height="34" rx="17" fill="#F6F6F6"/>
<path d="M23.25 11.375H21.0844L20.0195 9.77813C19.9625 9.69262 19.8852 9.6225 19.7946 9.57399C19.704 9.52548 19.6028 9.50006 19.5 9.5H14.5C14.3972 9.50006 14.296 9.52548 14.2054 9.57399C14.1148 9.6225 14.0375 9.69262 13.9805 9.77813L12.9148 11.375H10.75C10.2527 11.375 9.77581 11.5725 9.42417 11.9242C9.07254 12.2758 8.875 12.7527 8.875 13.25V22C8.875 22.4973 9.07254 22.9742 9.42417 23.3258C9.77581 23.6775 10.2527 23.875 10.75 23.875H23.25C23.7473 23.875 24.2242 23.6775 24.5758 23.3258C24.9275 22.9742 25.125 22.4973 25.125 22V13.25C25.125 12.7527 24.9275 12.2758 24.5758 11.9242C24.2242 11.5725 23.7473 11.375 23.25 11.375ZM19.8125 17.3125C19.8125 17.8688 19.6475 18.4125 19.3385 18.875C19.0295 19.3376 18.5902 19.698 18.0763 19.9109C17.5624 20.1238 16.9969 20.1795 16.4513 20.071C15.9057 19.9624 15.4046 19.6946 15.0113 19.3012C14.6179 18.9079 14.3501 18.4068 14.2415 17.8612C14.133 17.3156 14.1887 16.7501 14.4016 16.2362C14.6145 15.7223 14.9749 15.283 15.4375 14.974C15.9 14.665 16.4437 14.5 17 14.5C17.7459 14.5 18.4613 14.7963 18.9887 15.3238C19.5162 15.8512 19.8125 16.5666 19.8125 17.3125Z" fill="#BDBDBD"/>
</svg>
