<svg width="24" height="24" viewBox="0 0 24 24" fill="none" xmlns="http://www.w3.org/2000/svg">
<path d="M19.5 5.50098L18.8803 15.5261C18.7219 18.0874 18.6428 19.3681 18.0008 20.2889C17.6833 20.7441 17.2747 21.1283 16.8007 21.417C15.8421 22.001 14.559 22.001 11.9927 22.001C9.42312 22.001 8.1383 22.001 7.17905 21.4159C6.7048 21.1267 6.296 20.7418 5.97868 20.2858C5.33688 19.3636 5.25945 18.0811 5.10461 15.5162L4.5 5.50098" fill="white"/>
<path d="M19.5 5.50098L18.8803 15.5261C18.7219 18.0874 18.6428 19.3681 18.0008 20.2889C17.6833 20.7441 17.2747 21.1283 16.8007 21.417C15.8421 22.001 14.559 22.001 11.9927 22.001C9.42312 22.001 8.1383 22.001 7.17905 21.4159C6.7048 21.1267 6.296 20.7418 5.97868 20.2858C5.33688 19.3636 5.25945 18.0811 5.10461 15.5162L4.5 5.50098" stroke="white" stroke-width="1.5" stroke-linecap="round"/>
<path d="M9 11.7354H15" stroke="#EB4335" stroke-width="1.5" stroke-linecap="round"/>
<path d="M10.5 15.6553H13.5" stroke="#EB4335" stroke-width="1.5" stroke-linecap="round"/>
<path d="M3 5.50018H21M16.0555 5.50018L15.3729 4.09191C14.9194 3.15644 14.6926 2.6887 14.3015 2.39699C14.2148 2.33228 14.1229 2.27472 14.0268 2.22488C13.5937 2.00018 13.0739 2.00018 12.0343 2.00018C10.9686 2.00018 10.4358 2.00018 9.99549 2.2343C9.89791 2.28619 9.80479 2.34608 9.7171 2.41335C9.32145 2.71688 9.10044 3.20173 8.65842 4.17144L8.05273 5.50018" stroke="white" stroke-width="1.5" stroke-linecap="round"/>
</svg>
