<svg width="28" height="28" viewBox="0 0 28 28" fill="none" xmlns="http://www.w3.org/2000/svg">
<g clip-path="url(#clip0_541_1737)">
<path d="M16.6417 0H5.82254C4.80558 0 3.91406 0.8904 3.91406 1.9096V26.0915C3.91406 27.1096 4.80446 28.0011 5.82366 28.0011H22.3694C23.3875 28.0011 24.279 27.1107 24.279 26.0915V7.63616L19.8248 4.45424L16.6417 0Z" fill="#4285F4"/>
<path d="M9.00464 20.3638H19.1866V19.0915H9.00576L9.00464 20.3638ZM9.00464 22.9096H16.6408V21.6373H9.00464V22.9096ZM9.00464 14V15.2723H19.1866V14H9.00464ZM9.00464 17.8181H19.1866V16.5458H9.00576L9.00464 17.8181Z" fill="#F1F1F1"/>
<path d="M16.6418 0V5.72768C16.6418 6.74576 17.5322 7.63616 18.5503 7.63616H24.278L16.6418 0Z" fill="#A1C2FA"/>
</g>
<defs>
<clipPath id="clip0_541_1737">
<rect width="20.3638" height="28" fill="white" transform="translate(3.92188)"/>
</clipPath>
</defs>
</svg>
