<svg width="20" height="20" viewBox="0 0 20 20" fill="none" xmlns="http://www.w3.org/2000/svg">
<rect width="20" height="20" rx="10" fill="#1B5FC1"/>
<path d="M13.8462 6.41837H12.5135L11.8582 5.43568C11.8231 5.38306 11.7755 5.33991 11.7198 5.31006C11.664 5.2802 11.6017 5.26456 11.5385 5.26453H8.46154C8.39828 5.26456 8.33601 5.2802 8.28025 5.31006C8.22448 5.33991 8.17693 5.38306 8.14183 5.43568L7.48606 6.41837H6.15385C5.84783 6.41837 5.55434 6.53994 5.33795 6.75633C5.12157 6.97271 5 7.2662 5 7.57222V12.9568C5 13.2629 5.12157 13.5563 5.33795 13.7727C5.55434 13.9891 5.84783 14.1107 6.15385 14.1107H13.8462C14.1522 14.1107 14.4457 13.9891 14.662 13.7727C14.8784 13.5563 15 13.2629 15 12.9568V7.57222C15 7.2662 14.8784 6.97271 14.662 6.75633C14.4457 6.53994 14.1522 6.41837 13.8462 6.41837ZM11.7308 10.0722C11.7308 10.4145 11.6293 10.7492 11.4391 11.0338C11.2489 11.3184 10.9786 11.5402 10.6623 11.6712C10.3461 11.8022 9.99808 11.8365 9.66234 11.7697C9.32661 11.703 9.01821 11.5381 8.77616 11.2961C8.53411 11.054 8.36927 10.7456 8.30249 10.4099C8.2357 10.0741 8.26998 9.72614 8.40098 9.40988C8.53198 9.09363 8.75381 8.82332 9.03844 8.63314C9.32306 8.44296 9.65769 8.34145 10 8.34145C10.459 8.34145 10.8993 8.5238 11.2238 8.84838C11.5484 9.17296 11.7308 9.61319 11.7308 10.0722Z" fill="white"/>
</svg>
