<svg width="18" height="18" viewBox="0 0 18 18" fill="none" xmlns="http://www.w3.org/2000/svg">
<path d="M16.5 12C16.0576 11.5449 14.8802 9.75 14.25 9.75C13.6198 9.75 12.4424 11.5449 12 12M14.25 10.5V15.75" stroke="#292929" stroke-width="1.125" stroke-linecap="round" stroke-linejoin="round"/>
<path d="M11.2526 15.75H9.00202C5.46554 15.75 3.6973 15.75 2.59865 14.6516C1.5 13.5533 1.5 11.7855 1.5 8.25V5.9582C1.5 4.59585 1.5 3.91467 1.78531 3.40355C1.9887 3.0392 2.28941 2.73857 2.65386 2.53524C3.16513 2.25 3.84649 2.25 5.20922 2.25C6.08226 2.25 6.51879 2.25 6.90091 2.39326C7.77337 2.72034 8.13315 3.51268 8.52682 4.29985L9.00202 5.25M6.00122 5.25H12.5655C14.146 5.25 14.9362 5.25 15.5039 5.62919C15.7496 5.79335 15.9606 6.00429 16.1248 6.24997C16.4203 6.69212 16.4856 7.26933 16.5 8.25" stroke="#292929" stroke-width="1.125" stroke-linecap="round"/>
</svg>
