<svg width="19" height="18" viewBox="0 0 19 18" fill="none" xmlns="http://www.w3.org/2000/svg">
<g clip-path="url(#clip0_502_5487)">
<path d="M12.0656 13.7553C12.121 13.8402 12.1524 13.9384 12.1565 14.0397C12.1606 14.1409 12.1373 14.2414 12.0891 14.3305C12.0408 14.4196 11.9694 14.494 11.8824 14.5458C11.7953 14.5977 11.6959 14.6251 11.5945 14.6251H1.22063C1.11931 14.6251 1.01987 14.5977 0.932824 14.5458C0.845776 14.494 0.774351 14.4196 0.726094 14.3305C0.677838 14.2414 0.654543 14.1409 0.65867 14.0397C0.662797 13.9384 0.694193 13.8402 0.749541 13.7553C1.54133 12.5365 2.70598 11.6064 4.0697 11.1038C3.3158 10.6019 2.74344 9.87073 2.43725 9.01838C2.13106 8.16603 2.10729 7.23777 2.36946 6.37087C2.63164 5.50397 3.16583 4.74445 3.89305 4.20463C4.62027 3.66481 5.50191 3.37335 6.40759 3.37335C7.31327 3.37335 8.1949 3.66481 8.92212 4.20463C9.64934 4.74445 10.1835 5.50397 10.4457 6.37087C10.7079 7.23777 10.6841 8.16603 10.3779 9.01838C10.0717 9.87073 9.49937 10.6019 8.74548 11.1038C10.1092 11.6064 11.2738 12.5365 12.0656 13.7553ZM18.2468 13.7448C17.4548 12.5311 16.2928 11.605 14.933 11.1038C15.823 10.5043 16.4511 9.58816 16.6894 8.54187C16.9278 7.49558 16.7584 6.39779 16.2159 5.47194C15.6734 4.5461 14.7984 3.86179 13.7691 3.55832C12.7398 3.25484 11.6336 3.35501 10.6756 3.83842C10.6389 3.85734 10.6069 3.88408 10.5817 3.91674C10.5566 3.94941 10.5389 3.98721 10.53 4.02746C10.5211 4.06771 10.5211 4.10943 10.5301 4.14967C10.5391 4.18991 10.5568 4.22767 10.582 4.2603C11.2944 5.14891 11.7035 6.24229 11.7495 7.38028C11.7954 8.51827 11.4757 9.64107 10.8373 10.5842C10.796 10.6458 10.7808 10.7213 10.7949 10.7941C10.8089 10.8669 10.8512 10.9312 10.9125 10.973C11.7449 11.554 12.4575 12.29 13.0113 13.1408C13.2347 13.4828 13.3259 13.8944 13.268 14.2988C13.2615 14.339 13.2638 14.3802 13.2747 14.4194C13.2857 14.4587 13.305 14.4951 13.3314 14.5261C13.3579 14.5572 13.3907 14.5821 13.4277 14.5992C13.4647 14.6162 13.505 14.6251 13.5457 14.6251H17.7856C17.9094 14.6251 18.0298 14.5843 18.1281 14.5089C18.2264 14.4335 18.297 14.3278 18.3291 14.2081C18.3486 14.1294 18.3514 14.0475 18.3372 13.9677C18.3231 13.8878 18.2923 13.8119 18.2468 13.7448Z" fill="#1B5FC1"/>
</g>
<defs>
<clipPath id="clip0_502_5487">
<rect width="18" height="18" fill="white" transform="translate(0.5)"/>
</clipPath>
</defs>
</svg>
