<svg width="19" height="18" viewBox="0 0 19 18" fill="none" xmlns="http://www.w3.org/2000/svg">
<path d="M16.7367 15.469C16.6873 15.5545 16.6163 15.6256 16.5307 15.6749C16.4452 15.7243 16.3482 15.7503 16.2494 15.7503H2.74942C2.65073 15.7502 2.55381 15.7241 2.46838 15.6747C2.38294 15.6253 2.31202 15.5543 2.26272 15.4688C2.21342 15.3833 2.18747 15.2863 2.1875 15.1876C2.18753 15.0889 2.21352 14.992 2.26286 14.9065C3.33372 13.0552 4.98395 11.7277 6.90981 11.0984C5.9572 10.5313 5.21707 9.66716 4.8031 8.63871C4.38913 7.61027 4.3242 6.47436 4.61829 5.40544C4.91237 4.33652 5.54921 3.39368 6.431 2.72173C7.3128 2.04977 8.39078 1.68585 9.49942 1.68585C10.6081 1.68585 11.6861 2.04977 12.5678 2.72173C13.4496 3.39368 14.0865 4.33652 14.3806 5.40544C14.6746 6.47436 14.6097 7.61027 14.1957 8.63871C13.7818 9.66716 13.0416 10.5313 12.089 11.0984C14.0149 11.7277 15.6651 13.0552 16.736 14.9065C16.7855 14.992 16.8116 15.0889 16.8117 15.1877C16.8118 15.2864 16.786 15.3834 16.7367 15.469Z" fill="#1B5FC1"/>
</svg>
