<svg width="28" height="28" viewBox="0 0 28 28" fill="none" xmlns="http://www.w3.org/2000/svg">
<path d="M7 0C6.0375 0 5.25 0.7875 5.25 1.75V26.25C5.25 27.2125 6.0375 28 7 28H24.5C25.4625 28 26.25 27.2125 26.25 26.25V7L19.25 0H7Z" fill="#E2E5E7"/>
<path d="M21 7H26.25L19.25 0V5.25C19.25 6.2125 20.0375 7 21 7Z" fill="#B0B7BD"/>
<path d="M26.25 12.25L21 7H26.25V12.25Z" fill="#CAD1D8"/>
<path d="M22.75 22.75C22.75 23.2312 22.3563 23.625 21.875 23.625H2.625C2.14375 23.625 1.75 23.2312 1.75 22.75V14C1.75 13.5187 2.14375 13.125 2.625 13.125H21.875C22.3563 13.125 22.75 13.5187 22.75 14V22.75Z" fill="#50BEE8"/>
<path d="M7.7736 16.5785C7.7736 15.9905 8.6976 15.9905 8.6976 16.5785V19.3417C8.6976 20.4407 8.1726 21.1057 6.96248 21.1057C6.36748 21.1057 5.87135 20.9438 5.43735 20.3847C5.08035 19.9577 5.75235 19.3426 6.11635 19.7897C6.41035 20.1537 6.72535 20.2377 7.03248 20.2237C7.4236 20.2097 7.76748 20.0338 7.77448 19.3417V16.5785H7.7736Z" fill="white"/>
<path d="M9.92969 16.5785C9.92969 16.3475 10.1117 16.0955 10.4057 16.0955H12.0218C12.9318 16.0955 13.7508 16.7045 13.7508 17.8717C13.7508 18.9777 12.9318 19.5937 12.0218 19.5937H10.8537V20.5177C10.8537 20.8257 10.6577 20.9998 10.4057 20.9998C10.1747 20.9998 9.92969 20.8257 9.92969 20.5177V16.5785ZM10.8537 16.9766V18.7196H12.0218C12.4908 18.7196 12.8618 18.3057 12.8618 17.8717C12.8618 17.3826 12.4908 16.9766 12.0218 16.9766H10.8537Z" fill="white"/>
<path d="M18.743 20.4619C18.246 20.8749 17.637 21.0499 17.0219 21.0499C15.5519 21.0499 14.5098 20.2108 14.5098 18.5448C14.5098 17.1325 15.6088 16.0344 17.084 16.0344C17.637 16.0344 18.2451 16.2225 18.6791 16.6495C19.1053 17.0687 18.4901 17.6917 18.071 17.3215C17.812 17.0695 17.448 16.8805 17.084 16.8805C16.2379 16.8805 15.4198 17.5587 15.4198 18.5448C15.4198 19.5808 16.1049 20.2108 17.0219 20.2108C17.448 20.2108 17.812 20.0839 18.071 19.8958V19.0357H17.0219C16.3989 19.0357 16.4619 18.1817 17.0219 18.1817H18.421C18.68 18.1817 18.9171 18.3777 18.9171 18.5947V20.0848C18.9171 20.2108 18.862 20.328 18.743 20.4619Z" fill="white"/>
<path d="M21.875 23.625H5.25V24.5H21.875C22.3563 24.5 22.75 24.1063 22.75 23.625V22.75C22.75 23.2313 22.3563 23.625 21.875 23.625Z" fill="#CAD1D8"/>
</svg>
