<svg width="28" height="28" viewBox="0 0 28 28" fill="none" xmlns="http://www.w3.org/2000/svg">
<rect width="28" height="28" rx="14" fill="#F1F1F1"/>
<path d="M16.9154 8.16663V9.33329M13.9987 8.16663V9.33329M11.082 8.16663V9.33329" stroke="#292929" stroke-width="0.875" stroke-linecap="round" stroke-linejoin="round"/>
<path d="M9.04297 12.8333C9.04297 10.9084 9.04297 9.94598 9.64096 9.34799C10.2389 8.75 11.2014 8.75 13.1263 8.75H14.8763C16.8012 8.75 17.7636 8.75 18.3617 9.34799C18.9596 9.94598 18.9596 10.9084 18.9596 12.8333V15.75C18.9596 17.6749 18.9596 18.6373 18.3617 19.2354C17.7636 19.8333 16.8012 19.8333 14.8763 19.8333H13.1263C11.2014 19.8333 10.2389 19.8333 9.64096 19.2354C9.04297 18.6373 9.04297 17.6749 9.04297 15.75V12.8333Z" stroke="#292929" stroke-width="0.875" stroke-linecap="round" stroke-linejoin="round"/>
<path d="M11.668 15.75H14.0013M11.668 12.8334H16.3346" stroke="#292929" stroke-width="0.875" stroke-linecap="round"/>
<path d="M16.9154 8.16663V9.33329M13.9987 8.16663V9.33329M11.082 8.16663V9.33329" stroke="#292929" stroke-width="0.875" stroke-linecap="round" stroke-linejoin="round"/>
<path d="M9.04297 12.8333C9.04297 10.9084 9.04297 9.94598 9.64096 9.34799C10.2389 8.75 11.2014 8.75 13.1263 8.75H14.8763C16.8012 8.75 17.7636 8.75 18.3617 9.34799C18.9596 9.94598 18.9596 10.9084 18.9596 12.8333V15.75C18.9596 17.6749 18.9596 18.6373 18.3617 19.2354C17.7636 19.8333 16.8012 19.8333 14.8763 19.8333H13.1263C11.2014 19.8333 10.2389 19.8333 9.64096 19.2354C9.04297 18.6373 9.04297 17.6749 9.04297 15.75V12.8333Z" stroke="#292929" stroke-width="0.875" stroke-linecap="round" stroke-linejoin="round"/>
<path d="M11.668 15.75H14.0013M11.668 12.8334H16.3346" stroke="#292929" stroke-width="0.875" stroke-linecap="round"/>
</svg>
