<svg width="24" height="24" viewBox="0 0 24 24" fill="none" xmlns="http://www.w3.org/2000/svg">
<path d="M12.0001 7.4998C12.8285 7.4998 13.5001 6.82823 13.5001 5.9998C13.5001 5.17137 12.8285 4.4998 12.0001 4.4998C11.1717 4.4998 10.5001 5.17137 10.5001 5.9998C10.5001 6.82823 11.1717 7.4998 12.0001 7.4998Z" fill="#292929"/>
<path d="M12.0001 13.4998C12.8285 13.4998 13.5001 12.8282 13.5001 11.9998C13.5001 11.1714 12.8285 10.4998 12.0001 10.4998C11.1717 10.4998 10.5001 11.1714 10.5001 11.9998C10.5001 12.8282 11.1717 13.4998 12.0001 13.4998Z" fill="#292929"/>
<path d="M12.0001 19.4998C12.8285 19.4998 13.5001 18.8282 13.5001 17.9998C13.5001 17.1714 12.8285 16.4998 12.0001 16.4998C11.1717 16.4998 10.5001 17.1714 10.5001 17.9998C10.5001 18.8282 11.1717 19.4998 12.0001 19.4998Z" fill="#292929"/>
</svg>
