<svg width="28" height="28" viewBox="0 0 28 28" fill="none" xmlns="http://www.w3.org/2000/svg">
<path d="M18.4901 0H3.97906C3.57506 0 3.24756 0.3275 3.24756 0.963V27.5C3.24756 27.6725 3.57506 28 3.97906 28H24.0161C24.4201 28 24.7476 27.6725 24.7476 27.5V6.489C24.7476 6.141 24.7011 6.029 24.6191 5.9465L18.8011 0.1285C18.7186 0.0465 18.6066 0 18.4901 0Z" fill="#E9E9E0"/>
<path d="M18.7422 0.0755615V6.00006H24.6667L18.7422 0.0755615Z" fill="#D9D7CA"/>
<path d="M24.0161 28H3.97906C3.57506 28 3.24756 27.6725 3.24756 27.2685V19.5H24.7476V27.2685C24.7476 27.6725 24.4201 28 24.0161 28Z" fill="#7D6599"/>
<path d="M17.8272 7.49288C17.5437 7.09488 17.1772 6.72138 16.6732 6.31738C14.7162 4.75188 14.2947 3.17888 14.2422 2.94838V2.49988C14.2422 2.22338 14.0187 1.99988 13.7422 1.99988C13.4657 1.99988 13.2422 2.22338 13.2422 2.49988V2.99988V7.17938V11.7059H11.3892C9.44819 11.7059 8.24219 12.6864 8.24219 14.2644C8.24219 15.9974 9.36219 17.1174 11.0952 17.1174C12.8307 17.1174 14.2422 15.7059 14.2422 13.9704V8.23388L14.3912 8.35538C14.5612 8.52338 14.8217 8.71538 15.1517 8.95788C16.3107 9.81238 18.2517 11.2414 17.7637 12.8544C17.7492 12.9034 17.7422 12.9519 17.7422 12.9999C17.7422 13.2149 17.8812 13.4129 18.0972 13.4784C18.1457 13.4929 18.1942 13.4999 18.2422 13.4999C18.4572 13.4999 18.6552 13.3609 18.7207 13.1449C19.5342 10.4574 18.5097 8.44988 17.8272 7.49288ZM13.2422 13.9704C13.2422 15.1544 12.2792 16.1174 11.0952 16.1174C9.91769 16.1174 9.24219 15.4419 9.24219 14.2644C9.24219 12.9764 10.4097 12.7059 11.3892 12.7059H13.2422V13.9704ZM15.7447 8.15388C15.4592 7.94288 15.2122 7.76138 15.0592 7.61338L14.2422 6.94338V5.20688C14.6557 5.79388 15.2357 6.44838 16.0482 7.09838C16.4772 7.44238 16.7842 7.75238 17.0127 8.07338C17.3707 8.57488 17.7282 9.24288 17.9067 10.0624C17.2432 9.25738 16.3647 8.61038 15.7447 8.15388Z" fill="#C8BDB8"/>
<path d="M11.2026 21.4622H12.0366V26.5002H11.2026V23.0342L10.0746 25.8367H9.3501L8.2151 23.0342V26.5002H7.3811V21.4622H8.2151L9.7121 24.9077L11.2026 21.4622Z" fill="white"/>
<path d="M14.1079 26.5002H13.2874V21.4622H14.7364C14.9509 21.4622 15.1629 21.4962 15.3719 21.5647C15.5809 21.6332 15.7694 21.7357 15.9359 21.8722C16.1024 22.0087 16.2369 22.1742 16.3394 22.3677C16.4419 22.5612 16.4934 22.7787 16.4934 23.0207C16.4934 23.2762 16.4499 23.5072 16.3634 23.7147C16.2769 23.9222 16.1559 24.0967 16.0009 24.2377C15.8459 24.3787 15.6589 24.4882 15.4404 24.5657C15.2219 24.6432 14.9799 24.6817 14.7159 24.6817H14.1074V26.5002H14.1079ZM14.1079 22.0842V24.0802H14.8599C14.9599 24.0802 15.0589 24.0632 15.1574 24.0287C15.2559 23.9942 15.3454 23.9387 15.4274 23.8612C15.5094 23.7837 15.5754 23.6757 15.6254 23.5367C15.6754 23.3977 15.7004 23.2257 15.7004 23.0207C15.7004 22.9387 15.6894 22.8437 15.6664 22.7372C15.6434 22.6307 15.5969 22.5277 15.5264 22.4297C15.4559 22.3317 15.3564 22.2497 15.2289 22.1837C15.1014 22.1177 14.9324 22.0847 14.7229 22.0847L14.1079 22.0842Z" fill="white"/>
<path d="M19.3131 23.8476C19.4181 23.8611 19.5261 23.8956 19.6376 23.9501C19.7491 24.0046 19.8531 24.0826 19.9486 24.1826C20.0441 24.2826 20.1241 24.4046 20.1881 24.5481C20.2521 24.6916 20.2836 24.8566 20.2836 25.0436C20.2836 25.2716 20.2506 25.4686 20.1846 25.6351C20.1186 25.8016 20.0351 25.9391 19.9351 26.0486C19.8351 26.1581 19.7221 26.2461 19.5966 26.3116C19.4711 26.3771 19.3496 26.4266 19.2311 26.4586C19.1126 26.4906 19.0046 26.5106 18.9066 26.5201C18.8086 26.5296 18.7321 26.5336 18.6776 26.5336C18.2946 26.5336 17.9931 26.5071 17.7716 26.4551C17.5501 26.4031 17.3966 26.3491 17.3101 26.2946L17.4946 25.7066C17.5356 25.7296 17.5741 25.7546 17.6106 25.7816C17.6471 25.8086 17.6996 25.8351 17.7676 25.8601C17.8356 25.8851 17.9316 25.9056 18.0546 25.9216C18.1776 25.9376 18.3461 25.9456 18.5606 25.9456C18.8751 25.9456 19.1101 25.8601 19.2646 25.6891C19.4191 25.5181 19.4971 25.3031 19.4971 25.0431C19.4971 24.7971 19.4261 24.5896 19.2851 24.4211C19.1441 24.2526 18.9366 24.1681 18.6631 24.1681H17.9656H17.9726L17.9656 23.6146H18.4306C18.5306 23.6146 18.6321 23.6121 18.7346 23.6076C18.8371 23.6031 18.9336 23.5776 19.0251 23.5326C19.1166 23.4876 19.1916 23.4096 19.2506 23.3001C19.3096 23.1906 19.3396 23.0336 19.3396 22.8286C19.3396 22.7466 19.3326 22.6601 19.3191 22.5686C19.3056 22.4771 19.2676 22.3931 19.2061 22.3156C19.1446 22.2381 19.0546 22.1756 18.9361 22.1276C18.8176 22.0796 18.6536 22.0556 18.4441 22.0556C18.2346 22.0556 18.0671 22.0751 17.9416 22.1136C17.8161 22.1521 17.7221 22.1831 17.6581 22.2061L17.4186 21.5911C17.5281 21.5596 17.6636 21.5251 17.8251 21.4886C17.9866 21.4521 18.2206 21.4341 18.5256 21.4341C18.7401 21.4341 18.9426 21.4606 19.1341 21.5126C19.3256 21.5646 19.4931 21.6481 19.6366 21.7621C19.7801 21.8761 19.8941 22.0221 19.9786 22.1996C20.0631 22.3771 20.1051 22.5866 20.1051 22.8286C20.1051 22.9696 20.0801 23.0986 20.0301 23.2146C19.9801 23.3306 19.9161 23.4326 19.8386 23.5186C19.7611 23.6046 19.6746 23.6766 19.5786 23.7341C19.4826 23.7916 19.3951 23.8296 19.3131 23.8476Z" fill="white"/>
</svg>
