<svg width="28" height="28" viewBox="0 0 28 28" fill="none" xmlns="http://www.w3.org/2000/svg">
<path fill-rule="evenodd" clip-rule="evenodd" d="M3.99439 0.00268555C2.76895 0.00268555 1.77539 0.996686 1.77539 2.22256V25.778C1.77539 27.0043 2.76895 27.9979 3.99439 27.9979H24.021C25.2464 27.9979 26.2408 27.0043 26.2408 25.778V8.88831L17.9708 0.00268555H3.99439Z" fill="#9B64B2"/>
<path fill-rule="evenodd" clip-rule="evenodd" d="M26.2456 8.90404V9.34154H20.646C20.646 9.34154 17.8845 8.79029 17.9646 6.40723C17.9646 6.40723 18.0556 8.90404 20.5913 8.90404H26.2456Z" fill="#824B9E"/>
<path opacity="0.5" fill-rule="evenodd" clip-rule="evenodd" d="M17.9749 0V6.37044C17.9749 7.09494 18.4579 8.904 20.6454 8.904H26.2449L17.9749 0Z" fill="white"/>
<path d="M10.9983 23.5721C10.8172 23.5721 10.6754 23.4304 10.6754 23.2492V19.2006L8.91098 23.4702C8.88735 23.5332 8.82435 23.5721 8.7456 23.5721C8.6826 23.5721 8.6196 23.5327 8.59598 23.4702L6.83942 19.2006V23.2492C6.83942 23.4304 6.69767 23.5721 6.50867 23.5721C6.32754 23.5721 6.18579 23.4304 6.18579 23.2492V18.7592C6.18579 18.4757 6.42992 18.2316 6.7296 18.2316C6.94223 18.2316 7.16273 18.3576 7.24935 18.5623L8.75392 22.2251L10.2664 18.5623C10.353 18.3576 10.5656 18.2316 10.7861 18.2316C11.0854 18.2316 11.3299 18.4757 11.3299 18.7592V23.2492C11.329 23.4304 11.1873 23.5721 10.9983 23.5721ZM14.864 21.4376H13.4067V23.2492C13.4067 23.4304 13.265 23.5721 13.076 23.5721C12.8949 23.5721 12.7531 23.4304 12.7531 23.2492V18.7434C12.7531 18.4836 12.9657 18.2705 13.226 18.2705H14.8645C15.9202 18.2705 16.5108 18.9954 16.5108 19.8538C16.5104 20.7131 15.904 21.4376 14.864 21.4376ZM14.7853 18.8537H13.4067V20.8544H14.7853C15.4074 20.8544 15.8331 20.4449 15.8331 19.8538C15.8331 19.2636 15.4074 18.8537 14.7853 18.8537ZM20.8731 22.194H20.3612V23.2497C20.3612 23.4308 20.2195 23.5726 20.03 23.5726C19.8489 23.5726 19.7072 23.4308 19.7072 23.2497V22.194H17.486C17.3206 22.194 17.1631 22.0522 17.1631 21.8396C17.1631 21.7687 17.1863 21.69 17.2261 21.627L19.3292 18.4682C19.4315 18.3186 19.6127 18.2241 19.8021 18.2241C20.1014 18.2241 20.3612 18.484 20.3612 18.7754V21.6191H20.8731C21.0227 21.6191 21.1487 21.7451 21.1487 21.9109C21.1487 22.0676 21.0223 22.194 20.8731 22.194ZM19.7072 18.8773L17.864 21.6187H19.7072V18.8773Z" fill="white"/>
</svg>
