<svg width="28" height="28" viewBox="0 0 28 28" fill="none" xmlns="http://www.w3.org/2000/svg">
<rect width="28" height="28" rx="14" fill="white"/>
<path d="M18.6654 15.1666V12.8333C18.6654 10.6334 18.6654 9.53346 18.0221 8.85004C17.3789 8.16663 16.3437 8.16663 14.2732 8.16663H13.7242C11.6537 8.16663 10.6185 8.16663 9.97525 8.85004C9.33203 9.53346 9.33203 10.6334 9.33203 12.8333V15.1666C9.33203 17.3665 9.33203 18.4665 9.97525 19.1499C10.6185 19.8333 11.6537 19.8333 13.7242 19.8333H14.2732C16.3437 19.8333 17.3789 19.8333 18.0221 19.1499C18.6654 18.4665 18.6654 17.3665 18.6654 15.1666Z" stroke="#292929" stroke-width="0.875" stroke-linecap="round"/>
<path d="M16.332 17.5H16.3373" stroke="#292929" stroke-width="1.16667" stroke-linecap="round" stroke-linejoin="round"/>
<path d="M9.33203 15.75H18.6654" stroke="#292929" stroke-width="0.875" stroke-linejoin="round"/>
<path d="M11.668 10.5H12.8346" stroke="#292929" stroke-width="0.875" stroke-linecap="round" stroke-linejoin="round"/>
<path d="M11.668 12.25H12.8346" stroke="#292929" stroke-width="0.875" stroke-linecap="round" stroke-linejoin="round"/>
</svg>
