<svg width="48" height="48" viewBox="0 0 48 48" fill="none" xmlns="http://www.w3.org/2000/svg">
<path d="M30.8417 36.6808C30.9893 36.9072 31.0731 37.1691 31.0841 37.4391C31.0951 37.7091 31.0329 37.977 30.9043 38.2146C30.7756 38.4522 30.5851 38.6506 30.353 38.7889C30.1209 38.9272 29.8557 39.0002 29.5855 39.0002H1.92169C1.6515 39.0002 1.38633 38.9272 1.1542 38.7889C0.92207 38.6506 0.731602 38.4522 0.602919 38.2146C0.474235 37.977 0.412115 37.7091 0.42312 37.4391C0.434125 37.1691 0.517848 36.9072 0.665442 36.6808C2.77689 33.4308 5.88262 30.9505 9.51921 29.6102C7.50882 28.2718 5.98252 26.322 5.16601 24.049C4.34949 21.7761 4.28611 19.3007 4.98524 16.989C5.68437 14.6773 7.1089 12.6519 9.04815 11.2124C10.9874 9.77283 13.3384 8.99561 15.7536 8.99561C18.1687 8.99561 20.5198 9.77283 22.459 11.2124C24.3983 12.6519 25.8228 14.6773 26.5219 16.989C27.2211 19.3007 27.1577 21.7761 26.3412 24.049C25.5247 26.322 23.9984 28.2718 21.988 29.6102C25.6246 30.9505 28.7303 33.4308 30.8417 36.6808ZM47.3249 36.6527C45.2129 33.4163 42.1141 30.9468 38.488 29.6102C40.8614 28.0115 42.5363 25.5684 43.1719 22.7783C43.8075 19.9882 43.3559 17.0608 41.9092 14.5919C40.4624 12.1229 38.1292 10.2981 35.3844 9.48885C32.6396 8.67958 29.6896 8.94669 27.1349 10.2358C27.0372 10.2862 26.9518 10.3575 26.8847 10.4447C26.8176 10.5318 26.7705 10.6326 26.7467 10.7399C26.7229 10.8472 26.723 10.9585 26.747 11.0658C26.771 11.1731 26.8183 11.2738 26.8855 11.3608C28.7852 13.7304 29.8762 16.6461 29.9986 19.6808C30.1211 22.7154 29.2687 25.7095 27.5661 28.2246C27.4561 28.3889 27.4154 28.5901 27.453 28.7843C27.4906 28.9785 27.6033 29.15 27.7667 29.2615C29.9865 30.8107 31.8868 32.7734 33.3636 35.0421C33.9592 35.9542 34.2025 37.0519 34.048 38.1302C34.0306 38.2375 34.0367 38.3472 34.066 38.4519C34.0952 38.5566 34.1468 38.6536 34.2172 38.7364C34.2877 38.8191 34.3753 38.8856 34.4739 38.9311C34.5726 38.9767 34.68 39.0003 34.7886 39.0002H46.0949C46.4252 39.0003 46.7463 38.8914 47.0084 38.6904C47.2704 38.4893 47.4588 38.2074 47.5443 37.8883C47.5964 37.6785 47.6038 37.4601 47.566 37.2472C47.5282 37.0343 47.4461 36.8318 47.3249 36.6527Z" fill="#9D9D9D"/>
</svg>
