<svg width="274" height="128" viewBox="0 0 274 128" fill="none" xmlns="http://www.w3.org/2000/svg">
<rect x="97" width="80" height="80" rx="40" fill="white"/>
<path d="M150.384 32.8656L141.634 24.1156C141.518 23.9996 141.38 23.9076 141.229 23.8448C141.077 23.7821 140.914 23.7499 140.75 23.75H125.75C125.087 23.75 124.451 24.0134 123.982 24.4822C123.513 24.9511 123.25 25.587 123.25 26.25V53.75C123.25 54.413 123.513 55.0489 123.982 55.5178C124.451 55.9866 125.087 56.25 125.75 56.25H148.25C148.913 56.25 149.549 55.9866 150.018 55.5178C150.487 55.0489 150.75 54.413 150.75 53.75V33.75C150.75 33.5858 150.718 33.4232 150.655 33.2714C150.592 33.1197 150.5 32.9818 150.384 32.8656ZM140.75 33.75V26.875L147.625 33.75H140.75Z" fill="#BDBDBD"/>
<path d="M5.08845 103.14C4.29511 103.14 3.61378 103.005 3.04445 102.734C2.47511 102.454 2.03645 102.029 1.72845 101.46C1.42045 100.881 1.24778 100.158 1.21045 99.29C1.20111 98.8793 1.19645 98.4873 1.19645 98.114C1.19645 97.7313 1.20111 97.3347 1.21045 96.924C1.24778 96.0653 1.42511 95.3513 1.74245 94.782C2.06911 94.2033 2.51711 93.774 3.08645 93.494C3.66511 93.2047 4.33245 93.06 5.08845 93.06C5.85378 93.06 6.52111 93.2047 7.09045 93.494C7.66911 93.774 8.12178 94.2033 8.44845 94.782C8.77511 95.3513 8.95245 96.0653 8.98045 96.924C8.99911 97.3347 9.00845 97.7313 9.00845 98.114C9.00845 98.4873 8.99911 98.8793 8.98045 99.29C8.95245 100.158 8.77978 100.881 8.46245 101.46C8.15445 102.029 7.71578 102.454 7.14645 102.734C6.57711 103.005 5.89111 103.14 5.08845 103.14ZM5.08845 101.95C5.80711 101.95 6.39045 101.735 6.83845 101.306C7.29578 100.877 7.54311 100.181 7.58045 99.22C7.59911 98.8 7.60845 98.4267 7.60845 98.1C7.60845 97.764 7.59911 97.3907 7.58045 96.98C7.56178 96.336 7.44045 95.8133 7.21645 95.412C7.00178 95.0107 6.71245 94.7167 6.34845 94.53C5.98445 94.3433 5.56445 94.25 5.08845 94.25C4.63111 94.25 4.22045 94.3433 3.85645 94.53C3.49245 94.7167 3.19845 95.0107 2.97445 95.412C2.75978 95.8133 2.63845 96.336 2.61045 96.98C2.60111 97.3907 2.59645 97.764 2.59645 98.1C2.59645 98.4267 2.60111 98.8 2.61045 99.22C2.64778 100.181 2.89511 100.877 3.35245 101.306C3.80978 101.735 4.38845 101.95 5.08845 101.95ZM11.1891 103C11.0957 103 11.0164 102.972 10.9511 102.916C10.8951 102.851 10.8671 102.771 10.8671 102.678V96.042C10.8671 95.9487 10.8951 95.874 10.9511 95.818C11.0164 95.7527 11.0957 95.72 11.1891 95.72H11.8471C11.9404 95.72 12.0151 95.7527 12.0711 95.818C12.1364 95.874 12.1691 95.9487 12.1691 96.042V96.658C12.4117 96.3407 12.7151 96.084 13.0791 95.888C13.4524 95.6827 13.9284 95.58 14.5071 95.58C15.1137 95.58 15.6271 95.7153 16.0471 95.986C16.4764 96.2473 16.7984 96.616 17.0131 97.092C17.2277 97.5587 17.3351 98.1047 17.3351 98.73V102.678C17.3351 102.771 17.3071 102.851 17.2511 102.916C17.1951 102.972 17.1204 103 17.0271 103H16.3271C16.2337 103 16.1544 102.972 16.0891 102.916C16.0331 102.851 16.0051 102.771 16.0051 102.678V98.8C16.0051 98.1467 15.8464 97.638 15.5291 97.274C15.2117 96.9007 14.7451 96.714 14.1291 96.714C13.5504 96.714 13.0837 96.9007 12.7291 97.274C12.3837 97.638 12.2111 98.1467 12.2111 98.8V102.678C12.2111 102.771 12.1784 102.851 12.1131 102.916C12.0571 102.972 11.9824 103 11.8891 103H11.1891ZM22.2973 103.14C21.6346 103.14 21.0606 103.014 20.5753 102.762C20.0993 102.501 19.7306 102.132 19.4693 101.656C19.208 101.171 19.068 100.592 19.0493 99.92C19.04 99.78 19.0353 99.5933 19.0353 99.36C19.0353 99.1267 19.04 98.94 19.0493 98.8C19.068 98.128 19.208 97.554 19.4693 97.078C19.7306 96.5927 20.0993 96.224 20.5753 95.972C21.0606 95.7107 21.6346 95.58 22.2973 95.58C22.8386 95.58 23.3006 95.6547 23.6833 95.804C24.0753 95.9533 24.3973 96.1447 24.6493 96.378C24.9013 96.6113 25.088 96.8633 25.2093 97.134C25.34 97.4047 25.41 97.6613 25.4193 97.904C25.4286 97.9973 25.4006 98.072 25.3353 98.128C25.27 98.184 25.1906 98.212 25.0973 98.212H24.4253C24.332 98.212 24.262 98.1933 24.2153 98.156C24.1686 98.1093 24.122 98.0347 24.0753 97.932C23.9073 97.4747 23.6786 97.1527 23.3893 96.966C23.1 96.7793 22.7406 96.686 22.3113 96.686C21.7513 96.686 21.294 96.8587 20.9393 97.204C20.594 97.5493 20.4073 98.1047 20.3793 98.87C20.37 99.206 20.37 99.5327 20.3793 99.85C20.4073 100.625 20.594 101.185 20.9393 101.53C21.294 101.866 21.7513 102.034 22.3113 102.034C22.7406 102.034 23.1 101.941 23.3893 101.754C23.6786 101.567 23.9073 101.245 24.0753 100.788C24.122 100.685 24.1686 100.615 24.2153 100.578C24.262 100.531 24.332 100.508 24.4253 100.508H25.0973C25.1906 100.508 25.27 100.536 25.3353 100.592C25.4006 100.648 25.4286 100.723 25.4193 100.816C25.41 101.012 25.368 101.213 25.2933 101.418C25.2186 101.623 25.0973 101.833 24.9293 102.048C24.7706 102.253 24.57 102.44 24.3273 102.608C24.0846 102.767 23.7906 102.897 23.4453 103C23.1093 103.093 22.7266 103.14 22.2973 103.14ZM29.9799 103.14C29.0186 103.14 28.2532 102.846 27.6839 102.258C27.1146 101.661 26.8019 100.849 26.7459 99.822C26.7366 99.7007 26.7319 99.5467 26.7319 99.36C26.7319 99.164 26.7366 99.0053 26.7459 98.884C26.7832 98.2213 26.9372 97.6427 27.2079 97.148C27.4786 96.644 27.8472 96.2567 28.3139 95.986C28.7899 95.7153 29.3452 95.58 29.9799 95.58C30.6892 95.58 31.2819 95.7293 31.7579 96.028C32.2432 96.3267 32.6119 96.7513 32.8639 97.302C33.1159 97.8527 33.2419 98.4967 33.2419 99.234V99.472C33.2419 99.5747 33.2092 99.654 33.1439 99.71C33.0879 99.766 33.0132 99.794 32.9199 99.794H28.0759C28.0759 99.8033 28.0759 99.822 28.0759 99.85C28.0759 99.878 28.0759 99.9013 28.0759 99.92C28.0946 100.303 28.1786 100.662 28.3279 100.998C28.4772 101.325 28.6919 101.591 28.9719 101.796C29.2519 102.001 29.5879 102.104 29.9799 102.104C30.3159 102.104 30.5959 102.053 30.8199 101.95C31.0439 101.847 31.2259 101.735 31.3659 101.614C31.5059 101.483 31.5992 101.385 31.6459 101.32C31.7299 101.199 31.7952 101.129 31.8419 101.11C31.8886 101.082 31.9632 101.068 32.0659 101.068H32.7379C32.8312 101.068 32.9059 101.096 32.9619 101.152C33.0272 101.199 33.0552 101.269 33.0459 101.362C33.0366 101.502 32.9619 101.675 32.8219 101.88C32.6819 102.076 32.4812 102.272 32.2199 102.468C31.9586 102.664 31.6412 102.827 31.2679 102.958C30.8946 103.079 30.4652 103.14 29.9799 103.14ZM28.0759 98.828H31.9119V98.786C31.9119 98.366 31.8326 97.9927 31.6739 97.666C31.5246 97.3393 31.3052 97.0827 31.0159 96.896C30.7266 96.7 30.3812 96.602 29.9799 96.602C29.5786 96.602 29.2332 96.7 28.9439 96.896C28.6639 97.0827 28.4492 97.3393 28.2999 97.666C28.1506 97.9927 28.0759 98.366 28.0759 98.786V98.828ZM39.1378 103C39.0444 103 38.9651 102.972 38.8998 102.916C38.8438 102.851 38.8158 102.771 38.8158 102.678V96.84H37.6258C37.5324 96.84 37.4531 96.812 37.3878 96.756C37.3318 96.6907 37.3038 96.6113 37.3038 96.518V96.042C37.3038 95.9487 37.3318 95.874 37.3878 95.818C37.4531 95.7527 37.5324 95.72 37.6258 95.72H38.8158V95.02C38.8158 94.544 38.8951 94.1287 39.0538 93.774C39.2124 93.41 39.4644 93.13 39.8098 92.934C40.1644 92.738 40.6358 92.64 41.2238 92.64H43.3798C43.4731 92.64 43.5478 92.6727 43.6038 92.738C43.6691 92.794 43.7018 92.8687 43.7018 92.962V93.438C43.7018 93.5313 43.6691 93.6107 43.6038 93.676C43.5478 93.732 43.4731 93.76 43.3798 93.76H41.2518C40.8131 93.76 40.5144 93.8767 40.3558 94.11C40.1971 94.334 40.1178 94.6607 40.1178 95.09V95.72H43.3798C43.4731 95.72 43.5478 95.7527 43.6038 95.818C43.6691 95.874 43.7018 95.9487 43.7018 96.042V102.678C43.7018 102.771 43.6691 102.851 43.6038 102.916C43.5478 102.972 43.4731 103 43.3798 103H42.7358C42.6331 103 42.5538 102.972 42.4978 102.916C42.4418 102.851 42.4138 102.771 42.4138 102.678V96.84H40.1178V102.678C40.1178 102.771 40.0851 102.851 40.0198 102.916C39.9638 102.972 39.8891 103 39.7958 103H39.1378ZM46.1074 103C46.014 103 45.9347 102.972 45.8694 102.916C45.8134 102.851 45.7854 102.771 45.7854 102.678V93.382C45.7854 93.2887 45.8134 93.214 45.8694 93.158C45.9347 93.0927 46.014 93.06 46.1074 93.06H46.7654C46.868 93.06 46.9474 93.0927 47.0034 93.158C47.0594 93.214 47.0874 93.2887 47.0874 93.382V102.678C47.0874 102.771 47.0594 102.851 47.0034 102.916C46.9474 102.972 46.868 103 46.7654 103H46.1074ZM52.0736 103.14C51.1123 103.14 50.347 102.846 49.7776 102.258C49.2083 101.661 48.8956 100.849 48.8396 99.822C48.8303 99.7007 48.8256 99.5467 48.8256 99.36C48.8256 99.164 48.8303 99.0053 48.8396 98.884C48.877 98.2213 49.031 97.6427 49.3016 97.148C49.5723 96.644 49.941 96.2567 50.4076 95.986C50.8836 95.7153 51.439 95.58 52.0736 95.58C52.783 95.58 53.3756 95.7293 53.8516 96.028C54.337 96.3267 54.7056 96.7513 54.9576 97.302C55.2096 97.8527 55.3356 98.4967 55.3356 99.234V99.472C55.3356 99.5747 55.303 99.654 55.2376 99.71C55.1816 99.766 55.107 99.794 55.0136 99.794H50.1696C50.1696 99.8033 50.1696 99.822 50.1696 99.85C50.1696 99.878 50.1696 99.9013 50.1696 99.92C50.1883 100.303 50.2723 100.662 50.4216 100.998C50.571 101.325 50.7856 101.591 51.0656 101.796C51.3456 102.001 51.6816 102.104 52.0736 102.104C52.4096 102.104 52.6896 102.053 52.9136 101.95C53.1376 101.847 53.3196 101.735 53.4596 101.614C53.5996 101.483 53.693 101.385 53.7396 101.32C53.8236 101.199 53.889 101.129 53.9356 101.11C53.9823 101.082 54.057 101.068 54.1596 101.068H54.8316C54.925 101.068 54.9996 101.096 55.0556 101.152C55.121 101.199 55.149 101.269 55.1396 101.362C55.1303 101.502 55.0556 101.675 54.9156 101.88C54.7756 102.076 54.575 102.272 54.3136 102.468C54.0523 102.664 53.735 102.827 53.3616 102.958C52.9883 103.079 52.559 103.14 52.0736 103.14ZM50.1696 98.828H54.0056V98.786C54.0056 98.366 53.9263 97.9927 53.7676 97.666C53.6183 97.3393 53.399 97.0827 53.1096 96.896C52.8203 96.7 52.475 96.602 52.0736 96.602C51.6723 96.602 51.327 96.7 51.0376 96.896C50.7576 97.0827 50.543 97.3393 50.3936 97.666C50.2443 97.9927 50.1696 98.366 50.1696 98.786V98.828ZM59.5296 103.14C59.007 103.14 58.559 103.075 58.1856 102.944C57.8123 102.813 57.509 102.655 57.2756 102.468C57.0423 102.281 56.865 102.095 56.7436 101.908C56.6316 101.721 56.571 101.572 56.5616 101.46C56.5523 101.357 56.585 101.278 56.6596 101.222C56.7343 101.166 56.809 101.138 56.8836 101.138H57.4996C57.5556 101.138 57.5976 101.147 57.6256 101.166C57.663 101.175 57.7096 101.213 57.7656 101.278C57.887 101.409 58.0223 101.539 58.1716 101.67C58.321 101.801 58.503 101.908 58.7176 101.992C58.9416 102.076 59.217 102.118 59.5436 102.118C60.0196 102.118 60.4116 102.029 60.7196 101.852C61.0276 101.665 61.1816 101.395 61.1816 101.04C61.1816 100.807 61.1163 100.62 60.9856 100.48C60.8643 100.34 60.6403 100.214 60.3136 100.102C59.9963 99.99 59.5576 99.8733 58.9976 99.752C58.4376 99.6213 57.9943 99.4627 57.6676 99.276C57.341 99.08 57.1076 98.8513 56.9676 98.59C56.8276 98.3193 56.7576 98.016 56.7576 97.68C56.7576 97.3347 56.8603 97.0033 57.0656 96.686C57.271 96.3593 57.5696 96.0933 57.9616 95.888C58.363 95.6827 58.8623 95.58 59.4596 95.58C59.945 95.58 60.3603 95.6407 60.7056 95.762C61.051 95.8833 61.3356 96.0373 61.5596 96.224C61.7836 96.4013 61.9516 96.5787 62.0636 96.756C62.1756 96.9333 62.2363 97.0827 62.2456 97.204C62.255 97.2973 62.227 97.3767 62.1616 97.442C62.0963 97.498 62.0216 97.526 61.9376 97.526H61.3496C61.2843 97.526 61.2283 97.512 61.1816 97.484C61.1443 97.456 61.107 97.4233 61.0696 97.386C60.9763 97.2647 60.8643 97.1433 60.7336 97.022C60.6123 96.9007 60.449 96.8027 60.2436 96.728C60.0476 96.644 59.7863 96.602 59.4596 96.602C58.993 96.602 58.643 96.7 58.4096 96.896C58.1763 97.092 58.0596 97.3393 58.0596 97.638C58.0596 97.8153 58.111 97.974 58.2136 98.114C58.3163 98.254 58.5123 98.38 58.8016 98.492C59.091 98.604 59.5203 98.7253 60.0896 98.856C60.7056 98.9773 61.191 99.1407 61.5456 99.346C61.9003 99.5513 62.1523 99.7893 62.3016 100.06C62.451 100.331 62.5256 100.643 62.5256 100.998C62.5256 101.39 62.409 101.749 62.1756 102.076C61.9516 102.403 61.6156 102.664 61.1676 102.86C60.729 103.047 60.183 103.14 59.5296 103.14ZM69.608 103.14C69.1413 103.14 68.7167 103.047 68.334 102.86C67.9513 102.673 67.6433 102.421 67.41 102.104C67.1767 101.787 67.06 101.427 67.06 101.026C67.06 100.382 67.3213 99.8687 67.844 99.486C68.3667 99.1033 69.048 98.8513 69.888 98.73L71.974 98.436V98.03C71.974 97.582 71.8433 97.232 71.582 96.98C71.33 96.728 70.9147 96.602 70.336 96.602C69.916 96.602 69.5753 96.686 69.314 96.854C69.062 97.022 68.8847 97.2367 68.782 97.498C68.726 97.638 68.628 97.708 68.488 97.708H67.858C67.7553 97.708 67.676 97.68 67.62 97.624C67.5733 97.5587 67.55 97.484 67.55 97.4C67.55 97.26 67.6013 97.0873 67.704 96.882C67.816 96.6767 67.984 96.476 68.208 96.28C68.432 96.084 68.7167 95.9207 69.062 95.79C69.4167 95.65 69.846 95.58 70.35 95.58C70.91 95.58 71.3813 95.6547 71.764 95.804C72.1467 95.944 72.4453 96.1353 72.66 96.378C72.884 96.6207 73.0427 96.896 73.136 97.204C73.2387 97.512 73.29 97.8247 73.29 98.142V102.678C73.29 102.771 73.2573 102.851 73.192 102.916C73.136 102.972 73.0613 103 72.968 103H72.324C72.2213 103 72.142 102.972 72.086 102.916C72.03 102.851 72.002 102.771 72.002 102.678V102.076C71.8807 102.244 71.7173 102.412 71.512 102.58C71.3067 102.739 71.05 102.874 70.742 102.986C70.434 103.089 70.056 103.14 69.608 103.14ZM69.902 102.09C70.2847 102.09 70.6347 102.011 70.952 101.852C71.2693 101.684 71.5167 101.427 71.694 101.082C71.8807 100.737 71.974 100.303 71.974 99.78V99.388L70.35 99.626C69.6873 99.7193 69.188 99.878 68.852 100.102C68.516 100.317 68.348 100.592 68.348 100.928C68.348 101.189 68.4227 101.409 68.572 101.586C68.7307 101.754 68.9267 101.88 69.16 101.964C69.4027 102.048 69.65 102.09 69.902 102.09ZM75.6246 103C75.5313 103 75.4519 102.972 75.3866 102.916C75.3306 102.851 75.3026 102.771 75.3026 102.678V96.056C75.3026 95.9627 75.3306 95.8833 75.3866 95.818C75.4519 95.7527 75.5313 95.72 75.6246 95.72H76.2686C76.3619 95.72 76.4413 95.7527 76.5066 95.818C76.5719 95.8833 76.6046 95.9627 76.6046 96.056V96.672C76.7913 96.3547 77.0479 96.1167 77.3746 95.958C77.7013 95.7993 78.0933 95.72 78.5506 95.72H79.1106C79.2039 95.72 79.2786 95.7527 79.3346 95.818C79.3906 95.874 79.4186 95.9487 79.4186 96.042V96.616C79.4186 96.7093 79.3906 96.784 79.3346 96.84C79.2786 96.896 79.2039 96.924 79.1106 96.924H78.2706C77.7666 96.924 77.3699 97.0733 77.0806 97.372C76.7913 97.6613 76.6466 98.058 76.6466 98.562V102.678C76.6466 102.771 76.6139 102.851 76.5486 102.916C76.4833 102.972 76.4039 103 76.3106 103H75.6246ZM83.3822 103.14C82.4209 103.14 81.6556 102.846 81.0862 102.258C80.5169 101.661 80.2042 100.849 80.1482 99.822C80.1389 99.7007 80.1342 99.5467 80.1342 99.36C80.1342 99.164 80.1389 99.0053 80.1482 98.884C80.1856 98.2213 80.3396 97.6427 80.6102 97.148C80.8809 96.644 81.2496 96.2567 81.7162 95.986C82.1922 95.7153 82.7476 95.58 83.3822 95.58C84.0916 95.58 84.6842 95.7293 85.1602 96.028C85.6456 96.3267 86.0142 96.7513 86.2662 97.302C86.5182 97.8527 86.6442 98.4967 86.6442 99.234V99.472C86.6442 99.5747 86.6116 99.654 86.5462 99.71C86.4902 99.766 86.4156 99.794 86.3222 99.794H81.4782C81.4782 99.8033 81.4782 99.822 81.4782 99.85C81.4782 99.878 81.4782 99.9013 81.4782 99.92C81.4969 100.303 81.5809 100.662 81.7302 100.998C81.8796 101.325 82.0942 101.591 82.3742 101.796C82.6542 102.001 82.9902 102.104 83.3822 102.104C83.7182 102.104 83.9982 102.053 84.2222 101.95C84.4462 101.847 84.6282 101.735 84.7682 101.614C84.9082 101.483 85.0016 101.385 85.0482 101.32C85.1322 101.199 85.1976 101.129 85.2442 101.11C85.2909 101.082 85.3656 101.068 85.4682 101.068H86.1402C86.2336 101.068 86.3082 101.096 86.3642 101.152C86.4296 101.199 86.4576 101.269 86.4482 101.362C86.4389 101.502 86.3642 101.675 86.2242 101.88C86.0842 102.076 85.8836 102.272 85.6222 102.468C85.3609 102.664 85.0436 102.827 84.6702 102.958C84.2969 103.079 83.8676 103.14 83.3822 103.14ZM81.4782 98.828H85.3142V98.786C85.3142 98.366 85.2349 97.9927 85.0762 97.666C84.9269 97.3393 84.7076 97.0827 84.4182 96.896C84.1289 96.7 83.7836 96.602 83.3822 96.602C82.9809 96.602 82.6356 96.7 82.3462 96.896C82.0662 97.0827 81.8516 97.3393 81.7022 97.666C81.5529 97.9927 81.4782 98.366 81.4782 98.786V98.828ZM94.2699 103.14C93.7472 103.14 93.2992 103.075 92.9259 102.944C92.5525 102.813 92.2492 102.655 92.0159 102.468C91.7825 102.281 91.6052 102.095 91.4839 101.908C91.3719 101.721 91.3112 101.572 91.3019 101.46C91.2925 101.357 91.3252 101.278 91.3999 101.222C91.4745 101.166 91.5492 101.138 91.6239 101.138H92.2399C92.2959 101.138 92.3379 101.147 92.3659 101.166C92.4032 101.175 92.4499 101.213 92.5059 101.278C92.6272 101.409 92.7625 101.539 92.9119 101.67C93.0612 101.801 93.2432 101.908 93.4579 101.992C93.6819 102.076 93.9572 102.118 94.2839 102.118C94.7599 102.118 95.1519 102.029 95.4599 101.852C95.7679 101.665 95.9219 101.395 95.9219 101.04C95.9219 100.807 95.8565 100.62 95.7259 100.48C95.6045 100.34 95.3805 100.214 95.0539 100.102C94.7365 99.99 94.2979 99.8733 93.7379 99.752C93.1779 99.6213 92.7345 99.4627 92.4079 99.276C92.0812 99.08 91.8479 98.8513 91.7079 98.59C91.5679 98.3193 91.4979 98.016 91.4979 97.68C91.4979 97.3347 91.6005 97.0033 91.8059 96.686C92.0112 96.3593 92.3099 96.0933 92.7019 95.888C93.1032 95.6827 93.6025 95.58 94.1999 95.58C94.6852 95.58 95.1005 95.6407 95.4459 95.762C95.7912 95.8833 96.0759 96.0373 96.2999 96.224C96.5239 96.4013 96.6919 96.5787 96.8039 96.756C96.9159 96.9333 96.9765 97.0827 96.9859 97.204C96.9952 97.2973 96.9672 97.3767 96.9019 97.442C96.8365 97.498 96.7619 97.526 96.6779 97.526H96.0899C96.0245 97.526 95.9685 97.512 95.9219 97.484C95.8845 97.456 95.8472 97.4233 95.8099 97.386C95.7165 97.2647 95.6045 97.1433 95.4739 97.022C95.3525 96.9007 95.1892 96.8027 94.9839 96.728C94.7879 96.644 94.5265 96.602 94.1999 96.602C93.7332 96.602 93.3832 96.7 93.1499 96.896C92.9165 97.092 92.7999 97.3393 92.7999 97.638C92.7999 97.8153 92.8512 97.974 92.9539 98.114C93.0565 98.254 93.2525 98.38 93.5419 98.492C93.8312 98.604 94.2605 98.7253 94.8299 98.856C95.4459 98.9773 95.9312 99.1407 96.2859 99.346C96.6405 99.5513 96.8925 99.7893 97.0419 100.06C97.1912 100.331 97.2659 100.643 97.2659 100.998C97.2659 101.39 97.1492 101.749 96.9159 102.076C96.6919 102.403 96.3559 102.664 95.9079 102.86C95.4692 103.047 94.9232 103.14 94.2699 103.14ZM99.2226 103C99.1293 103 99.0499 102.972 98.9846 102.916C98.9286 102.851 98.9006 102.771 98.9006 102.678V93.382C98.9006 93.2887 98.9286 93.214 98.9846 93.158C99.0499 93.0927 99.1293 93.06 99.2226 93.06H99.9226C100.025 93.06 100.105 93.0927 100.161 93.158C100.217 93.214 100.245 93.2887 100.245 93.382V96.644C100.497 96.3267 100.805 96.07 101.169 95.874C101.533 95.678 101.995 95.58 102.555 95.58C103.161 95.58 103.675 95.7153 104.095 95.986C104.524 96.2473 104.846 96.616 105.061 97.092C105.285 97.5587 105.397 98.1047 105.397 98.73V102.678C105.397 102.771 105.369 102.851 105.313 102.916C105.257 102.972 105.177 103 105.075 103H104.375C104.281 103 104.202 102.972 104.137 102.916C104.081 102.851 104.053 102.771 104.053 102.678V98.8C104.053 98.1467 103.894 97.638 103.577 97.274C103.259 96.9007 102.793 96.714 102.177 96.714C101.598 96.714 101.131 96.9007 100.777 97.274C100.422 97.638 100.245 98.1467 100.245 98.8V102.678C100.245 102.771 100.217 102.851 100.161 102.916C100.105 102.972 100.025 103 99.9226 103H99.2226ZM109.448 103.14C108.981 103.14 108.557 103.047 108.174 102.86C107.791 102.673 107.483 102.421 107.25 102.104C107.017 101.787 106.9 101.427 106.9 101.026C106.9 100.382 107.161 99.8687 107.684 99.486C108.207 99.1033 108.888 98.8513 109.728 98.73L111.814 98.436V98.03C111.814 97.582 111.683 97.232 111.422 96.98C111.17 96.728 110.755 96.602 110.176 96.602C109.756 96.602 109.415 96.686 109.154 96.854C108.902 97.022 108.725 97.2367 108.622 97.498C108.566 97.638 108.468 97.708 108.328 97.708H107.698C107.595 97.708 107.516 97.68 107.46 97.624C107.413 97.5587 107.39 97.484 107.39 97.4C107.39 97.26 107.441 97.0873 107.544 96.882C107.656 96.6767 107.824 96.476 108.048 96.28C108.272 96.084 108.557 95.9207 108.902 95.79C109.257 95.65 109.686 95.58 110.19 95.58C110.75 95.58 111.221 95.6547 111.604 95.804C111.987 95.944 112.285 96.1353 112.5 96.378C112.724 96.6207 112.883 96.896 112.976 97.204C113.079 97.512 113.13 97.8247 113.13 98.142V102.678C113.13 102.771 113.097 102.851 113.032 102.916C112.976 102.972 112.901 103 112.808 103H112.164C112.061 103 111.982 102.972 111.926 102.916C111.87 102.851 111.842 102.771 111.842 102.678V102.076C111.721 102.244 111.557 102.412 111.352 102.58C111.147 102.739 110.89 102.874 110.582 102.986C110.274 103.089 109.896 103.14 109.448 103.14ZM109.742 102.09C110.125 102.09 110.475 102.011 110.792 101.852C111.109 101.684 111.357 101.427 111.534 101.082C111.721 100.737 111.814 100.303 111.814 99.78V99.388L110.19 99.626C109.527 99.7193 109.028 99.878 108.692 100.102C108.356 100.317 108.188 100.592 108.188 100.928C108.188 101.189 108.263 101.409 108.412 101.586C108.571 101.754 108.767 101.88 109 101.964C109.243 102.048 109.49 102.09 109.742 102.09ZM115.464 103C115.371 103 115.292 102.972 115.226 102.916C115.17 102.851 115.142 102.771 115.142 102.678V96.056C115.142 95.9627 115.17 95.8833 115.226 95.818C115.292 95.7527 115.371 95.72 115.464 95.72H116.108C116.202 95.72 116.281 95.7527 116.346 95.818C116.412 95.8833 116.444 95.9627 116.444 96.056V96.672C116.631 96.3547 116.888 96.1167 117.214 95.958C117.541 95.7993 117.933 95.72 118.39 95.72H118.95C119.044 95.72 119.118 95.7527 119.174 95.818C119.23 95.874 119.258 95.9487 119.258 96.042V96.616C119.258 96.7093 119.23 96.784 119.174 96.84C119.118 96.896 119.044 96.924 118.95 96.924H118.11C117.606 96.924 117.21 97.0733 116.92 97.372C116.631 97.6613 116.486 98.058 116.486 98.562V102.678C116.486 102.771 116.454 102.851 116.388 102.916C116.323 102.972 116.244 103 116.15 103H115.464ZM123.222 103.14C122.261 103.14 121.495 102.846 120.926 102.258C120.357 101.661 120.044 100.849 119.988 99.822C119.979 99.7007 119.974 99.5467 119.974 99.36C119.974 99.164 119.979 99.0053 119.988 98.884C120.025 98.2213 120.179 97.6427 120.45 97.148C120.721 96.644 121.089 96.2567 121.556 95.986C122.032 95.7153 122.587 95.58 123.222 95.58C123.931 95.58 124.524 95.7293 125 96.028C125.485 96.3267 125.854 96.7513 126.106 97.302C126.358 97.8527 126.484 98.4967 126.484 99.234V99.472C126.484 99.5747 126.451 99.654 126.386 99.71C126.33 99.766 126.255 99.794 126.162 99.794H121.318C121.318 99.8033 121.318 99.822 121.318 99.85C121.318 99.878 121.318 99.9013 121.318 99.92C121.337 100.303 121.421 100.662 121.57 100.998C121.719 101.325 121.934 101.591 122.214 101.796C122.494 102.001 122.83 102.104 123.222 102.104C123.558 102.104 123.838 102.053 124.062 101.95C124.286 101.847 124.468 101.735 124.608 101.614C124.748 101.483 124.841 101.385 124.888 101.32C124.972 101.199 125.037 101.129 125.084 101.11C125.131 101.082 125.205 101.068 125.308 101.068H125.98C126.073 101.068 126.148 101.096 126.204 101.152C126.269 101.199 126.297 101.269 126.288 101.362C126.279 101.502 126.204 101.675 126.064 101.88C125.924 102.076 125.723 102.272 125.462 102.468C125.201 102.664 124.883 102.827 124.51 102.958C124.137 103.079 123.707 103.14 123.222 103.14ZM121.318 98.828H125.154V98.786C125.154 98.366 125.075 97.9927 124.916 97.666C124.767 97.3393 124.547 97.0827 124.258 96.896C123.969 96.7 123.623 96.602 123.222 96.602C122.821 96.602 122.475 96.7 122.186 96.896C121.906 97.0827 121.691 97.3393 121.542 97.666C121.393 97.9927 121.318 98.366 121.318 98.786V98.828ZM130.818 103.14C130.305 103.14 129.861 103.051 129.488 102.874C129.115 102.687 128.807 102.44 128.564 102.132C128.331 101.815 128.153 101.455 128.032 101.054C127.92 100.653 127.855 100.228 127.836 99.78C127.827 99.6307 127.822 99.4907 127.822 99.36C127.822 99.2293 127.827 99.0893 127.836 98.94C127.855 98.5013 127.92 98.0813 128.032 97.68C128.153 97.2787 128.331 96.9193 128.564 96.602C128.807 96.2847 129.115 96.0373 129.488 95.86C129.861 95.6733 130.305 95.58 130.818 95.58C131.369 95.58 131.826 95.678 132.19 95.874C132.554 96.07 132.853 96.3127 133.086 96.602V93.382C133.086 93.2887 133.114 93.214 133.17 93.158C133.235 93.0927 133.315 93.06 133.408 93.06H134.08C134.173 93.06 134.248 93.0927 134.304 93.158C134.369 93.214 134.402 93.2887 134.402 93.382V102.678C134.402 102.771 134.369 102.851 134.304 102.916C134.248 102.972 134.173 103 134.08 103H133.45C133.347 103 133.268 102.972 133.212 102.916C133.156 102.851 133.128 102.771 133.128 102.678V102.09C132.895 102.389 132.591 102.641 132.218 102.846C131.845 103.042 131.378 103.14 130.818 103.14ZM131.112 102.006C131.579 102.006 131.952 101.899 132.232 101.684C132.512 101.469 132.722 101.199 132.862 100.872C133.002 100.536 133.077 100.195 133.086 99.85C133.095 99.7007 133.1 99.5233 133.1 99.318C133.1 99.1033 133.095 98.9213 133.086 98.772C133.077 98.4453 132.997 98.1233 132.848 97.806C132.708 97.4887 132.493 97.2273 132.204 97.022C131.924 96.8167 131.56 96.714 131.112 96.714C130.636 96.714 130.258 96.8213 129.978 97.036C129.698 97.2413 129.497 97.5167 129.376 97.862C129.255 98.198 129.185 98.562 129.166 98.954C129.157 99.2247 129.157 99.4953 129.166 99.766C129.185 100.158 129.255 100.527 129.376 100.872C129.497 101.208 129.698 101.483 129.978 101.698C130.258 101.903 130.636 102.006 131.112 102.006ZM140.238 103C140.145 103 140.065 102.972 140 102.916C139.944 102.851 139.916 102.771 139.916 102.678V96.042C139.916 95.9487 139.944 95.874 140 95.818C140.065 95.7527 140.145 95.72 140.238 95.72H140.91C141.003 95.72 141.078 95.7527 141.134 95.818C141.19 95.874 141.218 95.9487 141.218 96.042V102.678C141.218 102.771 141.19 102.851 141.134 102.916C141.078 102.972 141.003 103 140.91 103H140.238ZM140.126 94.362C140.033 94.362 139.953 94.334 139.888 94.278C139.832 94.2127 139.804 94.1333 139.804 94.04V93.284C139.804 93.1907 139.832 93.116 139.888 93.06C139.953 92.9947 140.033 92.962 140.126 92.962H141.008C141.101 92.962 141.176 92.9947 141.232 93.06C141.297 93.116 141.33 93.1907 141.33 93.284V94.04C141.33 94.1333 141.297 94.2127 141.232 94.278C141.176 94.334 141.101 94.362 141.008 94.362H140.126ZM143.629 103C143.535 103 143.456 102.972 143.391 102.916C143.335 102.851 143.307 102.771 143.307 102.678V96.042C143.307 95.9487 143.335 95.874 143.391 95.818C143.456 95.7527 143.535 95.72 143.629 95.72H144.287C144.38 95.72 144.455 95.7527 144.511 95.818C144.576 95.874 144.609 95.9487 144.609 96.042V96.658C144.851 96.3407 145.155 96.084 145.519 95.888C145.892 95.6827 146.368 95.58 146.947 95.58C147.553 95.58 148.067 95.7153 148.487 95.986C148.916 96.2473 149.238 96.616 149.453 97.092C149.667 97.5587 149.775 98.1047 149.775 98.73V102.678C149.775 102.771 149.747 102.851 149.691 102.916C149.635 102.972 149.56 103 149.467 103H148.767C148.673 103 148.594 102.972 148.529 102.916C148.473 102.851 148.445 102.771 148.445 102.678V98.8C148.445 98.1467 148.286 97.638 147.969 97.274C147.651 96.9007 147.185 96.714 146.569 96.714C145.99 96.714 145.523 96.9007 145.169 97.274C144.823 97.638 144.651 98.1467 144.651 98.8V102.678C144.651 102.771 144.618 102.851 144.553 102.916C144.497 102.972 144.422 103 144.329 103H143.629ZM157.77 103C157.247 103 156.822 102.902 156.496 102.706C156.169 102.501 155.931 102.216 155.782 101.852C155.632 101.479 155.558 101.04 155.558 100.536V96.84H154.466C154.372 96.84 154.293 96.812 154.228 96.756C154.172 96.6907 154.144 96.6113 154.144 96.518V96.042C154.144 95.9487 154.172 95.874 154.228 95.818C154.293 95.7527 154.372 95.72 154.466 95.72H155.558V93.382C155.558 93.2887 155.586 93.214 155.642 93.158C155.707 93.0927 155.786 93.06 155.88 93.06H156.538C156.631 93.06 156.706 93.0927 156.762 93.158C156.827 93.214 156.86 93.2887 156.86 93.382V95.72H158.596C158.689 95.72 158.764 95.7527 158.82 95.818C158.885 95.874 158.918 95.9487 158.918 96.042V96.518C158.918 96.6113 158.885 96.6907 158.82 96.756C158.764 96.812 158.689 96.84 158.596 96.84H156.86V100.438C156.86 100.877 156.934 101.222 157.084 101.474C157.233 101.726 157.499 101.852 157.882 101.852H158.736C158.829 101.852 158.904 101.885 158.96 101.95C159.025 102.006 159.058 102.081 159.058 102.174V102.678C159.058 102.771 159.025 102.851 158.96 102.916C158.904 102.972 158.829 103 158.736 103H157.77ZM160.732 103C160.639 103 160.56 102.972 160.494 102.916C160.438 102.851 160.41 102.771 160.41 102.678V93.382C160.41 93.2887 160.438 93.214 160.494 93.158C160.56 93.0927 160.639 93.06 160.732 93.06H161.432C161.535 93.06 161.614 93.0927 161.67 93.158C161.726 93.214 161.754 93.2887 161.754 93.382V96.644C162.006 96.3267 162.314 96.07 162.678 95.874C163.042 95.678 163.504 95.58 164.064 95.58C164.671 95.58 165.184 95.7153 165.604 95.986C166.034 96.2473 166.356 96.616 166.57 97.092C166.794 97.5587 166.906 98.1047 166.906 98.73V102.678C166.906 102.771 166.878 102.851 166.822 102.916C166.766 102.972 166.687 103 166.584 103H165.884C165.791 103 165.712 102.972 165.646 102.916C165.59 102.851 165.562 102.771 165.562 102.678V98.8C165.562 98.1467 165.404 97.638 165.086 97.274C164.769 96.9007 164.302 96.714 163.686 96.714C163.108 96.714 162.641 96.9007 162.286 97.274C161.932 97.638 161.754 98.1467 161.754 98.8V102.678C161.754 102.771 161.726 102.851 161.67 102.916C161.614 102.972 161.535 103 161.432 103H160.732ZM169.25 103C169.156 103 169.077 102.972 169.012 102.916C168.956 102.851 168.928 102.771 168.928 102.678V96.042C168.928 95.9487 168.956 95.874 169.012 95.818C169.077 95.7527 169.156 95.72 169.25 95.72H169.922C170.015 95.72 170.09 95.7527 170.146 95.818C170.202 95.874 170.23 95.9487 170.23 96.042V102.678C170.23 102.771 170.202 102.851 170.146 102.916C170.09 102.972 170.015 103 169.922 103H169.25ZM169.138 94.362C169.044 94.362 168.965 94.334 168.9 94.278C168.844 94.2127 168.816 94.1333 168.816 94.04V93.284C168.816 93.1907 168.844 93.116 168.9 93.06C168.965 92.9947 169.044 92.962 169.138 92.962H170.02C170.113 92.962 170.188 92.9947 170.244 93.06C170.309 93.116 170.342 93.1907 170.342 93.284V94.04C170.342 94.1333 170.309 94.2127 170.244 94.278C170.188 94.334 170.113 94.362 170.02 94.362H169.138ZM174.838 103.14C174.316 103.14 173.868 103.075 173.494 102.944C173.121 102.813 172.818 102.655 172.584 102.468C172.351 102.281 172.174 102.095 172.052 101.908C171.94 101.721 171.88 101.572 171.87 101.46C171.861 101.357 171.894 101.278 171.968 101.222C172.043 101.166 172.118 101.138 172.192 101.138H172.808C172.864 101.138 172.906 101.147 172.934 101.166C172.972 101.175 173.018 101.213 173.074 101.278C173.196 101.409 173.331 101.539 173.48 101.67C173.63 101.801 173.812 101.908 174.026 101.992C174.25 102.076 174.526 102.118 174.852 102.118C175.328 102.118 175.72 102.029 176.028 101.852C176.336 101.665 176.49 101.395 176.49 101.04C176.49 100.807 176.425 100.62 176.294 100.48C176.173 100.34 175.949 100.214 175.622 100.102C175.305 99.99 174.866 99.8733 174.306 99.752C173.746 99.6213 173.303 99.4627 172.976 99.276C172.65 99.08 172.416 98.8513 172.276 98.59C172.136 98.3193 172.066 98.016 172.066 97.68C172.066 97.3347 172.169 97.0033 172.374 96.686C172.58 96.3593 172.878 96.0933 173.27 95.888C173.672 95.6827 174.171 95.58 174.768 95.58C175.254 95.58 175.669 95.6407 176.014 95.762C176.36 95.8833 176.644 96.0373 176.868 96.224C177.092 96.4013 177.26 96.5787 177.372 96.756C177.484 96.9333 177.545 97.0827 177.554 97.204C177.564 97.2973 177.536 97.3767 177.47 97.442C177.405 97.498 177.33 97.526 177.246 97.526H176.658C176.593 97.526 176.537 97.512 176.49 97.484C176.453 97.456 176.416 97.4233 176.378 97.386C176.285 97.2647 176.173 97.1433 176.042 97.022C175.921 96.9007 175.758 96.8027 175.552 96.728C175.356 96.644 175.095 96.602 174.768 96.602C174.302 96.602 173.952 96.7 173.718 96.896C173.485 97.092 173.368 97.3393 173.368 97.638C173.368 97.8153 173.42 97.974 173.522 98.114C173.625 98.254 173.821 98.38 174.11 98.492C174.4 98.604 174.829 98.7253 175.398 98.856C176.014 98.9773 176.5 99.1407 176.854 99.346C177.209 99.5513 177.461 99.7893 177.61 100.06C177.76 100.331 177.834 100.643 177.834 100.998C177.834 101.39 177.718 101.749 177.484 102.076C177.26 102.403 176.924 102.664 176.476 102.86C176.038 103.047 175.492 103.14 174.838 103.14ZM185.827 103.14C185.164 103.14 184.59 103.014 184.105 102.762C183.629 102.501 183.26 102.132 182.999 101.656C182.737 101.171 182.597 100.592 182.579 99.92C182.569 99.78 182.565 99.5933 182.565 99.36C182.565 99.1267 182.569 98.94 182.579 98.8C182.597 98.128 182.737 97.554 182.999 97.078C183.26 96.5927 183.629 96.224 184.105 95.972C184.59 95.7107 185.164 95.58 185.827 95.58C186.368 95.58 186.83 95.6547 187.213 95.804C187.605 95.9533 187.927 96.1447 188.179 96.378C188.431 96.6113 188.617 96.8633 188.739 97.134C188.869 97.4047 188.939 97.6613 188.949 97.904C188.958 97.9973 188.93 98.072 188.865 98.128C188.799 98.184 188.72 98.212 188.627 98.212H187.955C187.861 98.212 187.791 98.1933 187.745 98.156C187.698 98.1093 187.651 98.0347 187.605 97.932C187.437 97.4747 187.208 97.1527 186.919 96.966C186.629 96.7793 186.27 96.686 185.841 96.686C185.281 96.686 184.823 96.8587 184.469 97.204C184.123 97.5493 183.937 98.1047 183.909 98.87C183.899 99.206 183.899 99.5327 183.909 99.85C183.937 100.625 184.123 101.185 184.469 101.53C184.823 101.866 185.281 102.034 185.841 102.034C186.27 102.034 186.629 101.941 186.919 101.754C187.208 101.567 187.437 101.245 187.605 100.788C187.651 100.685 187.698 100.615 187.745 100.578C187.791 100.531 187.861 100.508 187.955 100.508H188.627C188.72 100.508 188.799 100.536 188.865 100.592C188.93 100.648 188.958 100.723 188.949 100.816C188.939 101.012 188.897 101.213 188.823 101.418C188.748 101.623 188.627 101.833 188.459 102.048C188.3 102.253 188.099 102.44 187.857 102.608C187.614 102.767 187.32 102.897 186.975 103C186.639 103.093 186.256 103.14 185.827 103.14ZM193.593 103.14C192.884 103.14 192.291 103.005 191.815 102.734C191.339 102.463 190.975 102.09 190.723 101.614C190.471 101.129 190.331 100.578 190.303 99.962C190.294 99.8033 190.289 99.6027 190.289 99.36C190.289 99.108 190.294 98.9073 190.303 98.758C190.331 98.1327 190.471 97.582 190.723 97.106C190.985 96.63 191.353 96.2567 191.829 95.986C192.305 95.7153 192.893 95.58 193.593 95.58C194.293 95.58 194.881 95.7153 195.357 95.986C195.833 96.2567 196.197 96.63 196.449 97.106C196.711 97.582 196.855 98.1327 196.883 98.758C196.893 98.9073 196.897 99.108 196.897 99.36C196.897 99.6027 196.893 99.8033 196.883 99.962C196.855 100.578 196.715 101.129 196.463 101.614C196.211 102.09 195.847 102.463 195.371 102.734C194.895 103.005 194.303 103.14 193.593 103.14ZM193.593 102.062C194.172 102.062 194.634 101.88 194.979 101.516C195.325 101.143 195.511 100.601 195.539 99.892C195.549 99.752 195.553 99.5747 195.553 99.36C195.553 99.1453 195.549 98.968 195.539 98.828C195.511 98.1187 195.325 97.582 194.979 97.218C194.634 96.8447 194.172 96.658 193.593 96.658C193.015 96.658 192.548 96.8447 192.193 97.218C191.848 97.582 191.666 98.1187 191.647 98.828C191.638 98.968 191.633 99.1453 191.633 99.36C191.633 99.5747 191.638 99.752 191.647 99.892C191.666 100.601 191.848 101.143 192.193 101.516C192.548 101.88 193.015 102.062 193.593 102.062ZM198.972 103C198.879 103 198.8 102.972 198.734 102.916C198.678 102.851 198.65 102.771 198.65 102.678V96.042C198.65 95.9487 198.678 95.874 198.734 95.818C198.8 95.7527 198.879 95.72 198.972 95.72H199.63C199.724 95.72 199.798 95.7527 199.854 95.818C199.92 95.874 199.952 95.9487 199.952 96.042V96.658C200.195 96.3407 200.498 96.084 200.862 95.888C201.236 95.6827 201.712 95.58 202.29 95.58C202.897 95.58 203.41 95.7153 203.83 95.986C204.26 96.2473 204.582 96.616 204.796 97.092C205.011 97.5587 205.118 98.1047 205.118 98.73V102.678C205.118 102.771 205.09 102.851 205.034 102.916C204.978 102.972 204.904 103 204.81 103H204.11C204.017 103 203.938 102.972 203.872 102.916C203.816 102.851 203.788 102.771 203.788 102.678V98.8C203.788 98.1467 203.63 97.638 203.312 97.274C202.995 96.9007 202.528 96.714 201.912 96.714C201.334 96.714 200.867 96.9007 200.512 97.274C200.167 97.638 199.994 98.1467 199.994 98.8V102.678C199.994 102.771 199.962 102.851 199.896 102.916C199.84 102.972 199.766 103 199.672 103H198.972ZM209.469 103C209.329 103 209.217 102.967 209.133 102.902C209.059 102.837 208.998 102.753 208.951 102.65L206.361 96.154C206.343 96.1073 206.333 96.0607 206.333 96.014C206.333 95.93 206.361 95.86 206.417 95.804C206.473 95.748 206.543 95.72 206.627 95.72H207.299C207.402 95.72 207.481 95.748 207.537 95.804C207.593 95.86 207.626 95.9113 207.635 95.958L209.777 101.474L211.905 95.958C211.924 95.9113 211.957 95.86 212.003 95.804C212.059 95.748 212.139 95.72 212.241 95.72H212.927C213.002 95.72 213.067 95.748 213.123 95.804C213.189 95.86 213.221 95.93 213.221 96.014C213.221 96.0607 213.212 96.1073 213.193 96.154L210.589 102.65C210.552 102.753 210.491 102.837 210.407 102.902C210.333 102.967 210.221 103 210.071 103H209.469ZM217.326 103.14C216.364 103.14 215.599 102.846 215.03 102.258C214.46 101.661 214.148 100.849 214.092 99.822C214.082 99.7007 214.078 99.5467 214.078 99.36C214.078 99.164 214.082 99.0053 214.092 98.884C214.129 98.2213 214.283 97.6427 214.554 97.148C214.824 96.644 215.193 96.2567 215.66 95.986C216.136 95.7153 216.691 95.58 217.326 95.58C218.035 95.58 218.628 95.7293 219.104 96.028C219.589 96.3267 219.958 96.7513 220.21 97.302C220.462 97.8527 220.588 98.4967 220.588 99.234V99.472C220.588 99.5747 220.555 99.654 220.49 99.71C220.434 99.766 220.359 99.794 220.266 99.794H215.422C215.422 99.8033 215.422 99.822 215.422 99.85C215.422 99.878 215.422 99.9013 215.422 99.92C215.44 100.303 215.524 100.662 215.674 100.998C215.823 101.325 216.038 101.591 216.318 101.796C216.598 102.001 216.934 102.104 217.326 102.104C217.662 102.104 217.942 102.053 218.166 101.95C218.39 101.847 218.572 101.735 218.712 101.614C218.852 101.483 218.945 101.385 218.992 101.32C219.076 101.199 219.141 101.129 219.188 101.11C219.234 101.082 219.309 101.068 219.412 101.068H220.084C220.177 101.068 220.252 101.096 220.308 101.152C220.373 101.199 220.401 101.269 220.392 101.362C220.382 101.502 220.308 101.675 220.168 101.88C220.028 102.076 219.827 102.272 219.566 102.468C219.304 102.664 218.987 102.827 218.614 102.958C218.24 103.079 217.811 103.14 217.326 103.14ZM215.422 98.828H219.258V98.786C219.258 98.366 219.178 97.9927 219.02 97.666C218.87 97.3393 218.651 97.0827 218.362 96.896C218.072 96.7 217.727 96.602 217.326 96.602C216.924 96.602 216.579 96.7 216.29 96.896C216.01 97.0827 215.795 97.3393 215.646 97.666C215.496 97.9927 215.422 98.366 215.422 98.786V98.828ZM222.584 103C222.49 103 222.411 102.972 222.346 102.916C222.29 102.851 222.262 102.771 222.262 102.678V96.056C222.262 95.9627 222.29 95.8833 222.346 95.818C222.411 95.7527 222.49 95.72 222.584 95.72H223.228C223.321 95.72 223.4 95.7527 223.466 95.818C223.531 95.8833 223.564 95.9627 223.564 96.056V96.672C223.75 96.3547 224.007 96.1167 224.334 95.958C224.66 95.7993 225.052 95.72 225.51 95.72H226.07C226.163 95.72 226.238 95.7527 226.294 95.818C226.35 95.874 226.378 95.9487 226.378 96.042V96.616C226.378 96.7093 226.35 96.784 226.294 96.84C226.238 96.896 226.163 96.924 226.07 96.924H225.23C224.726 96.924 224.329 97.0733 224.04 97.372C223.75 97.6613 223.606 98.058 223.606 98.562V102.678C223.606 102.771 223.573 102.851 223.508 102.916C223.442 102.972 223.363 103 223.27 103H222.584ZM230.1 103.14C229.577 103.14 229.129 103.075 228.756 102.944C228.383 102.813 228.079 102.655 227.846 102.468C227.613 102.281 227.435 102.095 227.314 101.908C227.202 101.721 227.141 101.572 227.132 101.46C227.123 101.357 227.155 101.278 227.23 101.222C227.305 101.166 227.379 101.138 227.454 101.138H228.07C228.126 101.138 228.168 101.147 228.196 101.166C228.233 101.175 228.28 101.213 228.336 101.278C228.457 101.409 228.593 101.539 228.742 101.67C228.891 101.801 229.073 101.908 229.288 101.992C229.512 102.076 229.787 102.118 230.114 102.118C230.59 102.118 230.982 102.029 231.29 101.852C231.598 101.665 231.752 101.395 231.752 101.04C231.752 100.807 231.687 100.62 231.556 100.48C231.435 100.34 231.211 100.214 230.884 100.102C230.567 99.99 230.128 99.8733 229.568 99.752C229.008 99.6213 228.565 99.4627 228.238 99.276C227.911 99.08 227.678 98.8513 227.538 98.59C227.398 98.3193 227.328 98.016 227.328 97.68C227.328 97.3347 227.431 97.0033 227.636 96.686C227.841 96.3593 228.14 96.0933 228.532 95.888C228.933 95.6827 229.433 95.58 230.03 95.58C230.515 95.58 230.931 95.6407 231.276 95.762C231.621 95.8833 231.906 96.0373 232.13 96.224C232.354 96.4013 232.522 96.5787 232.634 96.756C232.746 96.9333 232.807 97.0827 232.816 97.204C232.825 97.2973 232.797 97.3767 232.732 97.442C232.667 97.498 232.592 97.526 232.508 97.526H231.92C231.855 97.526 231.799 97.512 231.752 97.484C231.715 97.456 231.677 97.4233 231.64 97.386C231.547 97.2647 231.435 97.1433 231.304 97.022C231.183 96.9007 231.019 96.8027 230.814 96.728C230.618 96.644 230.357 96.602 230.03 96.602C229.563 96.602 229.213 96.7 228.98 96.896C228.747 97.092 228.63 97.3393 228.63 97.638C228.63 97.8153 228.681 97.974 228.784 98.114C228.887 98.254 229.083 98.38 229.372 98.492C229.661 98.604 230.091 98.7253 230.66 98.856C231.276 98.9773 231.761 99.1407 232.116 99.346C232.471 99.5513 232.723 99.7893 232.872 100.06C233.021 100.331 233.096 100.643 233.096 100.998C233.096 101.39 232.979 101.749 232.746 102.076C232.522 102.403 232.186 102.664 231.738 102.86C231.299 103.047 230.753 103.14 230.1 103.14ZM236.747 103.14C236.28 103.14 235.855 103.047 235.473 102.86C235.09 102.673 234.782 102.421 234.549 102.104C234.315 101.787 234.199 101.427 234.199 101.026C234.199 100.382 234.46 99.8687 234.983 99.486C235.505 99.1033 236.187 98.8513 237.027 98.73L239.113 98.436V98.03C239.113 97.582 238.982 97.232 238.721 96.98C238.469 96.728 238.053 96.602 237.475 96.602C237.055 96.602 236.714 96.686 236.453 96.854C236.201 97.022 236.023 97.2367 235.921 97.498C235.865 97.638 235.767 97.708 235.627 97.708H234.997C234.894 97.708 234.815 97.68 234.759 97.624C234.712 97.5587 234.689 97.484 234.689 97.4C234.689 97.26 234.74 97.0873 234.843 96.882C234.955 96.6767 235.123 96.476 235.347 96.28C235.571 96.084 235.855 95.9207 236.201 95.79C236.555 95.65 236.985 95.58 237.489 95.58C238.049 95.58 238.52 95.6547 238.903 95.804C239.285 95.944 239.584 96.1353 239.799 96.378C240.023 96.6207 240.181 96.896 240.275 97.204C240.377 97.512 240.429 97.8247 240.429 98.142V102.678C240.429 102.771 240.396 102.851 240.331 102.916C240.275 102.972 240.2 103 240.107 103H239.463C239.36 103 239.281 102.972 239.225 102.916C239.169 102.851 239.141 102.771 239.141 102.678V102.076C239.019 102.244 238.856 102.412 238.651 102.58C238.445 102.739 238.189 102.874 237.881 102.986C237.573 103.089 237.195 103.14 236.747 103.14ZM237.041 102.09C237.423 102.09 237.773 102.011 238.091 101.852C238.408 101.684 238.655 101.427 238.833 101.082C239.019 100.737 239.113 100.303 239.113 99.78V99.388L237.489 99.626C236.826 99.7193 236.327 99.878 235.991 100.102C235.655 100.317 235.487 100.592 235.487 100.928C235.487 101.189 235.561 101.409 235.711 101.586C235.869 101.754 236.065 101.88 236.299 101.964C236.541 102.048 236.789 102.09 237.041 102.09ZM245.215 103C244.692 103 244.268 102.902 243.941 102.706C243.614 102.501 243.376 102.216 243.227 101.852C243.078 101.479 243.003 101.04 243.003 100.536V96.84H241.911C241.818 96.84 241.738 96.812 241.673 96.756C241.617 96.6907 241.589 96.6113 241.589 96.518V96.042C241.589 95.9487 241.617 95.874 241.673 95.818C241.738 95.7527 241.818 95.72 241.911 95.72H243.003V93.382C243.003 93.2887 243.031 93.214 243.087 93.158C243.152 93.0927 243.232 93.06 243.325 93.06H243.983C244.076 93.06 244.151 93.0927 244.207 93.158C244.272 93.214 244.305 93.2887 244.305 93.382V95.72H246.041C246.134 95.72 246.209 95.7527 246.265 95.818C246.33 95.874 246.363 95.9487 246.363 96.042V96.518C246.363 96.6113 246.33 96.6907 246.265 96.756C246.209 96.812 246.134 96.84 246.041 96.84H244.305V100.438C244.305 100.877 244.38 101.222 244.529 101.474C244.678 101.726 244.944 101.852 245.327 101.852H246.181C246.274 101.852 246.349 101.885 246.405 101.95C246.47 102.006 246.503 102.081 246.503 102.174V102.678C246.503 102.771 246.47 102.851 246.405 102.916C246.349 102.972 246.274 103 246.181 103H245.215ZM248.164 103C248.07 103 247.991 102.972 247.926 102.916C247.87 102.851 247.842 102.771 247.842 102.678V96.042C247.842 95.9487 247.87 95.874 247.926 95.818C247.991 95.7527 248.07 95.72 248.164 95.72H248.836C248.929 95.72 249.004 95.7527 249.06 95.818C249.116 95.874 249.144 95.9487 249.144 96.042V102.678C249.144 102.771 249.116 102.851 249.06 102.916C249.004 102.972 248.929 103 248.836 103H248.164ZM248.052 94.362C247.958 94.362 247.879 94.334 247.814 94.278C247.758 94.2127 247.73 94.1333 247.73 94.04V93.284C247.73 93.1907 247.758 93.116 247.814 93.06C247.879 92.9947 247.958 92.962 248.052 92.962H248.934C249.027 92.962 249.102 92.9947 249.158 93.06C249.223 93.116 249.256 93.1907 249.256 93.284V94.04C249.256 94.1333 249.223 94.2127 249.158 94.278C249.102 94.334 249.027 94.362 248.934 94.362H248.052ZM254.214 103.14C253.505 103.14 252.912 103.005 252.436 102.734C251.96 102.463 251.596 102.09 251.344 101.614C251.092 101.129 250.952 100.578 250.924 99.962C250.915 99.8033 250.91 99.6027 250.91 99.36C250.91 99.108 250.915 98.9073 250.924 98.758C250.952 98.1327 251.092 97.582 251.344 97.106C251.606 96.63 251.974 96.2567 252.45 95.986C252.926 95.7153 253.514 95.58 254.214 95.58C254.914 95.58 255.502 95.7153 255.978 95.986C256.454 96.2567 256.818 96.63 257.07 97.106C257.332 97.582 257.476 98.1327 257.504 98.758C257.514 98.9073 257.518 99.108 257.518 99.36C257.518 99.6027 257.514 99.8033 257.504 99.962C257.476 100.578 257.336 101.129 257.084 101.614C256.832 102.09 256.468 102.463 255.992 102.734C255.516 103.005 254.924 103.14 254.214 103.14ZM254.214 102.062C254.793 102.062 255.255 101.88 255.6 101.516C255.946 101.143 256.132 100.601 256.16 99.892C256.17 99.752 256.174 99.5747 256.174 99.36C256.174 99.1453 256.17 98.968 256.16 98.828C256.132 98.1187 255.946 97.582 255.6 97.218C255.255 96.8447 254.793 96.658 254.214 96.658C253.636 96.658 253.169 96.8447 252.814 97.218C252.469 97.582 252.287 98.1187 252.268 98.828C252.259 98.968 252.254 99.1453 252.254 99.36C252.254 99.5747 252.259 99.752 252.268 99.892C252.287 100.601 252.469 101.143 252.814 101.516C253.169 101.88 253.636 102.062 254.214 102.062ZM259.593 103C259.5 103 259.421 102.972 259.355 102.916C259.299 102.851 259.271 102.771 259.271 102.678V96.042C259.271 95.9487 259.299 95.874 259.355 95.818C259.421 95.7527 259.5 95.72 259.593 95.72H260.251C260.345 95.72 260.419 95.7527 260.475 95.818C260.541 95.874 260.573 95.9487 260.573 96.042V96.658C260.816 96.3407 261.119 96.084 261.483 95.888C261.857 95.6827 262.333 95.58 262.911 95.58C263.518 95.58 264.031 95.7153 264.451 95.986C264.881 96.2473 265.203 96.616 265.417 97.092C265.632 97.5587 265.739 98.1047 265.739 98.73V102.678C265.739 102.771 265.711 102.851 265.655 102.916C265.599 102.972 265.525 103 265.431 103H264.731C264.638 103 264.559 102.972 264.493 102.916C264.437 102.851 264.409 102.771 264.409 102.678V98.8C264.409 98.1467 264.251 97.638 263.933 97.274C263.616 96.9007 263.149 96.714 262.533 96.714C261.955 96.714 261.488 96.9007 261.133 97.274C260.788 97.638 260.615 98.1467 260.615 98.8V102.678C260.615 102.771 260.583 102.851 260.517 102.916C260.461 102.972 260.387 103 260.293 103H259.593ZM267.664 104.05C267.589 104.05 267.528 104.022 267.482 103.966C267.444 103.91 267.43 103.84 267.44 103.756L267.762 101.754C267.78 101.642 267.818 101.549 267.874 101.474C267.939 101.39 268.032 101.348 268.154 101.348H269.092C269.157 101.348 269.208 101.371 269.246 101.418C269.292 101.465 269.316 101.521 269.316 101.586C269.316 101.661 269.297 101.735 269.26 101.81L268.532 103.728C268.494 103.821 268.443 103.896 268.378 103.952C268.322 104.017 268.238 104.05 268.126 104.05H267.664ZM22.3634 123C21.8407 123 21.416 122.902 21.0894 122.706C20.7627 122.501 20.5247 122.216 20.3754 121.852C20.226 121.479 20.1514 121.04 20.1514 120.536V116.84H19.0594C18.966 116.84 18.8867 116.812 18.8214 116.756C18.7654 116.691 18.7374 116.611 18.7374 116.518V116.042C18.7374 115.949 18.7654 115.874 18.8214 115.818C18.8867 115.753 18.966 115.72 19.0594 115.72H20.1514V113.382C20.1514 113.289 20.1794 113.214 20.2354 113.158C20.3007 113.093 20.38 113.06 20.4734 113.06H21.1314C21.2247 113.06 21.2994 113.093 21.3554 113.158C21.4207 113.214 21.4534 113.289 21.4534 113.382V115.72H23.1894C23.2827 115.72 23.3574 115.753 23.4134 115.818C23.4787 115.874 23.5114 115.949 23.5114 116.042V116.518C23.5114 116.611 23.4787 116.691 23.4134 116.756C23.3574 116.812 23.2827 116.84 23.1894 116.84H21.4534V120.438C21.4534 120.877 21.528 121.222 21.6774 121.474C21.8267 121.726 22.0927 121.852 22.4754 121.852H23.3294C23.4227 121.852 23.4974 121.885 23.5534 121.95C23.6187 122.006 23.6514 122.081 23.6514 122.174V122.678C23.6514 122.771 23.6187 122.851 23.5534 122.916C23.4974 122.972 23.4227 123 23.3294 123H22.3634ZM25.3261 123C25.2328 123 25.1534 122.972 25.0881 122.916C25.0321 122.851 25.0041 122.771 25.0041 122.678V113.382C25.0041 113.289 25.0321 113.214 25.0881 113.158C25.1534 113.093 25.2328 113.06 25.3261 113.06H26.0261C26.1288 113.06 26.2081 113.093 26.2641 113.158C26.3201 113.214 26.3481 113.289 26.3481 113.382V116.644C26.6001 116.327 26.9081 116.07 27.2721 115.874C27.6361 115.678 28.0981 115.58 28.6581 115.58C29.2648 115.58 29.7781 115.715 30.1981 115.986C30.6274 116.247 30.9494 116.616 31.1641 117.092C31.3881 117.559 31.5001 118.105 31.5001 118.73V122.678C31.5001 122.771 31.4721 122.851 31.4161 122.916C31.3601 122.972 31.2808 123 31.1781 123H30.4781C30.3848 123 30.3054 122.972 30.2401 122.916C30.1841 122.851 30.1561 122.771 30.1561 122.678V118.8C30.1561 118.147 29.9974 117.638 29.6801 117.274C29.3628 116.901 28.8961 116.714 28.2801 116.714C27.7014 116.714 27.2348 116.901 26.8801 117.274C26.5254 117.638 26.3481 118.147 26.3481 118.8V122.678C26.3481 122.771 26.3201 122.851 26.2641 122.916C26.2081 122.972 26.1288 123 26.0261 123H25.3261ZM36.4194 123.14C35.458 123.14 34.6927 122.846 34.1234 122.258C33.554 121.661 33.2414 120.849 33.1854 119.822C33.176 119.701 33.1714 119.547 33.1714 119.36C33.1714 119.164 33.176 119.005 33.1854 118.884C33.2227 118.221 33.3767 117.643 33.6474 117.148C33.918 116.644 34.2867 116.257 34.7534 115.986C35.2294 115.715 35.7847 115.58 36.4194 115.58C37.1287 115.58 37.7214 115.729 38.1974 116.028C38.6827 116.327 39.0514 116.751 39.3034 117.302C39.5554 117.853 39.6814 118.497 39.6814 119.234V119.472C39.6814 119.575 39.6487 119.654 39.5834 119.71C39.5274 119.766 39.4527 119.794 39.3594 119.794H34.5154C34.5154 119.803 34.5154 119.822 34.5154 119.85C34.5154 119.878 34.5154 119.901 34.5154 119.92C34.534 120.303 34.618 120.662 34.7674 120.998C34.9167 121.325 35.1314 121.591 35.4114 121.796C35.6914 122.001 36.0274 122.104 36.4194 122.104C36.7554 122.104 37.0354 122.053 37.2594 121.95C37.4834 121.847 37.6654 121.735 37.8054 121.614C37.9454 121.483 38.0387 121.385 38.0854 121.32C38.1694 121.199 38.2347 121.129 38.2814 121.11C38.328 121.082 38.4027 121.068 38.5054 121.068H39.1774C39.2707 121.068 39.3454 121.096 39.4014 121.152C39.4667 121.199 39.4947 121.269 39.4854 121.362C39.476 121.502 39.4014 121.675 39.2614 121.88C39.1214 122.076 38.9207 122.272 38.6594 122.468C38.398 122.664 38.0807 122.827 37.7074 122.958C37.334 123.079 36.9047 123.14 36.4194 123.14ZM34.5154 118.828H38.3514V118.786C38.3514 118.366 38.272 117.993 38.1134 117.666C37.964 117.339 37.7447 117.083 37.4554 116.896C37.166 116.7 36.8207 116.602 36.4194 116.602C36.018 116.602 35.6727 116.7 35.3834 116.896C35.1034 117.083 34.8887 117.339 34.7394 117.666C34.59 117.993 34.5154 118.366 34.5154 118.786V118.828ZM42.3559 125.66C42.2812 125.66 42.2159 125.632 42.1599 125.576C42.1039 125.52 42.0759 125.455 42.0759 125.38C42.0759 125.343 42.0806 125.305 42.0899 125.268C42.0992 125.231 42.1179 125.184 42.1459 125.128L43.2239 122.566L40.5499 116.252C40.5032 116.14 40.4799 116.061 40.4799 116.014C40.4799 115.93 40.5079 115.86 40.5639 115.804C40.6199 115.748 40.6899 115.72 40.7739 115.72H41.4599C41.5532 115.72 41.6279 115.743 41.6839 115.79C41.7399 115.837 41.7772 115.893 41.7959 115.958L43.9239 121.054L46.1079 115.958C46.1359 115.893 46.1732 115.837 46.2199 115.79C46.2759 115.743 46.3552 115.72 46.4579 115.72H47.1159C47.1999 115.72 47.2699 115.748 47.3259 115.804C47.3819 115.86 47.4099 115.925 47.4099 116C47.4099 116.047 47.3866 116.131 47.3399 116.252L43.3639 125.422C43.3359 125.487 43.2939 125.543 43.2379 125.59C43.1912 125.637 43.1166 125.66 43.0139 125.66H42.3559ZM48.7788 115.762C48.7042 115.762 48.6435 115.734 48.5968 115.678C48.5595 115.622 48.5455 115.552 48.5548 115.468L48.8768 113.466C48.8955 113.354 48.9328 113.261 48.9888 113.186C49.0542 113.102 49.1475 113.06 49.2688 113.06H50.2068C50.2722 113.06 50.3235 113.088 50.3608 113.144C50.4075 113.191 50.4308 113.242 50.4308 113.298C50.4308 113.373 50.4122 113.447 50.3748 113.522L49.6468 115.44C49.6095 115.533 49.5582 115.613 49.4928 115.678C49.4368 115.734 49.3482 115.762 49.2268 115.762H48.7788ZM52.3144 123C52.221 123 52.1417 122.972 52.0764 122.916C52.0204 122.851 51.9924 122.771 51.9924 122.678V113.382C51.9924 113.289 52.0204 113.214 52.0764 113.158C52.1417 113.093 52.221 113.06 52.3144 113.06H52.9724C53.075 113.06 53.1544 113.093 53.2104 113.158C53.2664 113.214 53.2944 113.289 53.2944 113.382V122.678C53.2944 122.771 53.2664 122.851 53.2104 122.916C53.1544 122.972 53.075 123 52.9724 123H52.3144ZM55.7187 123C55.6253 123 55.546 122.972 55.4807 122.916C55.4247 122.851 55.3967 122.771 55.3967 122.678V113.382C55.3967 113.289 55.4247 113.214 55.4807 113.158C55.546 113.093 55.6253 113.06 55.7187 113.06H56.3767C56.4793 113.06 56.5587 113.093 56.6147 113.158C56.6707 113.214 56.6987 113.289 56.6987 113.382V122.678C56.6987 122.771 56.6707 122.851 56.6147 122.916C56.5587 122.972 56.4793 123 56.3767 123H55.7187ZM64.7386 123.14C64.216 123.14 63.768 123.075 63.3946 122.944C63.0213 122.813 62.718 122.655 62.4846 122.468C62.2513 122.281 62.074 122.095 61.9526 121.908C61.8406 121.721 61.78 121.572 61.7706 121.46C61.7613 121.357 61.794 121.278 61.8686 121.222C61.9433 121.166 62.018 121.138 62.0926 121.138H62.7086C62.7646 121.138 62.8066 121.147 62.8346 121.166C62.872 121.175 62.9186 121.213 62.9746 121.278C63.096 121.409 63.2313 121.539 63.3806 121.67C63.53 121.801 63.712 121.908 63.9266 121.992C64.1506 122.076 64.426 122.118 64.7526 122.118C65.2286 122.118 65.6206 122.029 65.9286 121.852C66.2366 121.665 66.3906 121.395 66.3906 121.04C66.3906 120.807 66.3253 120.62 66.1946 120.48C66.0733 120.34 65.8493 120.214 65.5226 120.102C65.2053 119.99 64.7666 119.873 64.2066 119.752C63.6466 119.621 63.2033 119.463 62.8766 119.276C62.55 119.08 62.3166 118.851 62.1766 118.59C62.0366 118.319 61.9666 118.016 61.9666 117.68C61.9666 117.335 62.0693 117.003 62.2746 116.686C62.48 116.359 62.7786 116.093 63.1706 115.888C63.572 115.683 64.0713 115.58 64.6686 115.58C65.154 115.58 65.5693 115.641 65.9146 115.762C66.26 115.883 66.5446 116.037 66.7686 116.224C66.9926 116.401 67.1606 116.579 67.2726 116.756C67.3846 116.933 67.4453 117.083 67.4546 117.204C67.464 117.297 67.436 117.377 67.3706 117.442C67.3053 117.498 67.2306 117.526 67.1466 117.526H66.5586C66.4933 117.526 66.4373 117.512 66.3906 117.484C66.3533 117.456 66.316 117.423 66.2786 117.386C66.1853 117.265 66.0733 117.143 65.9426 117.022C65.8213 116.901 65.658 116.803 65.4526 116.728C65.2566 116.644 64.9953 116.602 64.6686 116.602C64.202 116.602 63.852 116.7 63.6186 116.896C63.3853 117.092 63.2686 117.339 63.2686 117.638C63.2686 117.815 63.32 117.974 63.4226 118.114C63.5253 118.254 63.7213 118.38 64.0106 118.492C64.3 118.604 64.7293 118.725 65.2986 118.856C65.9146 118.977 66.4 119.141 66.7546 119.346C67.1093 119.551 67.3613 119.789 67.5106 120.06C67.66 120.331 67.7346 120.643 67.7346 120.998C67.7346 121.39 67.618 121.749 67.3846 122.076C67.1606 122.403 66.8246 122.664 66.3766 122.86C65.938 123.047 65.392 123.14 64.7386 123.14ZM69.6913 123C69.598 123 69.5187 122.972 69.4533 122.916C69.3973 122.851 69.3693 122.771 69.3693 122.678V113.382C69.3693 113.289 69.3973 113.214 69.4533 113.158C69.5187 113.093 69.598 113.06 69.6913 113.06H70.3913C70.494 113.06 70.5733 113.093 70.6293 113.158C70.6853 113.214 70.7133 113.289 70.7133 113.382V116.644C70.9653 116.327 71.2733 116.07 71.6373 115.874C72.0013 115.678 72.4633 115.58 73.0233 115.58C73.63 115.58 74.1433 115.715 74.5633 115.986C74.9927 116.247 75.3147 116.616 75.5293 117.092C75.7533 117.559 75.8653 118.105 75.8653 118.73V122.678C75.8653 122.771 75.8373 122.851 75.7813 122.916C75.7253 122.972 75.646 123 75.5433 123H74.8433C74.75 123 74.6707 122.972 74.6053 122.916C74.5493 122.851 74.5213 122.771 74.5213 122.678V118.8C74.5213 118.147 74.3627 117.638 74.0453 117.274C73.728 116.901 73.2613 116.714 72.6453 116.714C72.0667 116.714 71.6 116.901 71.2453 117.274C70.8907 117.638 70.7133 118.147 70.7133 118.8V122.678C70.7133 122.771 70.6853 122.851 70.6293 122.916C70.5733 122.972 70.494 123 70.3913 123H69.6913ZM80.8686 123.14C80.1593 123.14 79.5666 123.005 79.0906 122.734C78.6146 122.463 78.2506 122.09 77.9986 121.614C77.7466 121.129 77.6066 120.578 77.5786 119.962C77.5693 119.803 77.5646 119.603 77.5646 119.36C77.5646 119.108 77.5693 118.907 77.5786 118.758C77.6066 118.133 77.7466 117.582 77.9986 117.106C78.2599 116.63 78.6286 116.257 79.1046 115.986C79.5806 115.715 80.1686 115.58 80.8686 115.58C81.5686 115.58 82.1566 115.715 82.6326 115.986C83.1086 116.257 83.4726 116.63 83.7246 117.106C83.9859 117.582 84.1306 118.133 84.1586 118.758C84.1679 118.907 84.1726 119.108 84.1726 119.36C84.1726 119.603 84.1679 119.803 84.1586 119.962C84.1306 120.578 83.9906 121.129 83.7386 121.614C83.4866 122.09 83.1226 122.463 82.6466 122.734C82.1706 123.005 81.5779 123.14 80.8686 123.14ZM80.8686 122.062C81.4473 122.062 81.9093 121.88 82.2546 121.516C82.5999 121.143 82.7866 120.601 82.8146 119.892C82.8239 119.752 82.8286 119.575 82.8286 119.36C82.8286 119.145 82.8239 118.968 82.8146 118.828C82.7866 118.119 82.5999 117.582 82.2546 117.218C81.9093 116.845 81.4473 116.658 80.8686 116.658C80.2899 116.658 79.8233 116.845 79.4686 117.218C79.1233 117.582 78.9413 118.119 78.9226 118.828C78.9133 118.968 78.9086 119.145 78.9086 119.36C78.9086 119.575 78.9133 119.752 78.9226 119.892C78.9413 120.601 79.1233 121.143 79.4686 121.516C79.8233 121.88 80.2899 122.062 80.8686 122.062ZM87.6662 123C87.5449 123 87.4516 122.972 87.3862 122.916C87.3209 122.851 87.2649 122.762 87.2182 122.65L85.2302 116.154C85.2116 116.107 85.2022 116.061 85.2022 116.014C85.2022 115.93 85.2302 115.86 85.2862 115.804C85.3516 115.748 85.4216 115.72 85.4962 115.72H86.1122C86.2149 115.72 86.2942 115.748 86.3502 115.804C86.4062 115.86 86.4436 115.911 86.4622 115.958L88.0162 121.236L89.6822 116.014C89.7009 115.949 89.7382 115.883 89.7942 115.818C89.8596 115.753 89.9529 115.72 90.0742 115.72H90.5502C90.6716 115.72 90.7649 115.753 90.8302 115.818C90.8956 115.883 90.9329 115.949 90.9422 116.014L92.6082 121.236L94.1622 115.958C94.1716 115.911 94.2042 115.86 94.2602 115.804C94.3162 115.748 94.3956 115.72 94.4982 115.72H95.1142C95.1982 115.72 95.2682 115.748 95.3242 115.804C95.3802 115.86 95.4082 115.93 95.4082 116.014C95.4082 116.061 95.3989 116.107 95.3802 116.154L93.3922 122.65C93.3642 122.762 93.3129 122.851 93.2382 122.916C93.1729 122.972 93.0749 123 92.9442 123H92.3982C92.2769 123 92.1742 122.972 92.0902 122.916C92.0156 122.851 91.9642 122.762 91.9362 122.65L90.3122 117.638L88.6882 122.65C88.6509 122.762 88.5949 122.851 88.5202 122.916C88.4456 122.972 88.3429 123 88.2122 123H87.6662ZM102.778 123.14C102.181 123.14 101.672 123.009 101.252 122.748C100.842 122.477 100.529 122.104 100.314 121.628C100.1 121.152 99.9924 120.606 99.9924 119.99V116.042C99.9924 115.949 100.02 115.874 100.076 115.818C100.142 115.753 100.221 115.72 100.314 115.72H101.014C101.108 115.72 101.182 115.753 101.238 115.818C101.304 115.874 101.336 115.949 101.336 116.042V119.92C101.336 121.311 101.943 122.006 103.156 122.006C103.735 122.006 104.197 121.824 104.542 121.46C104.897 121.087 105.074 120.573 105.074 119.92V116.042C105.074 115.949 105.102 115.874 105.158 115.818C105.224 115.753 105.303 115.72 105.396 115.72H106.082C106.185 115.72 106.264 115.753 106.32 115.818C106.376 115.874 106.404 115.949 106.404 116.042V122.678C106.404 122.771 106.376 122.851 106.32 122.916C106.264 122.972 106.185 123 106.082 123H105.438C105.345 123 105.266 122.972 105.2 122.916C105.144 122.851 105.116 122.771 105.116 122.678V122.062C104.864 122.389 104.556 122.65 104.192 122.846C103.838 123.042 103.366 123.14 102.778 123.14ZM108.82 125.66C108.727 125.66 108.648 125.627 108.582 125.562C108.526 125.506 108.498 125.431 108.498 125.338V116.042C108.498 115.949 108.526 115.874 108.582 115.818C108.648 115.753 108.727 115.72 108.82 115.72H109.464C109.558 115.72 109.632 115.753 109.688 115.818C109.754 115.874 109.786 115.949 109.786 116.042V116.658C110.01 116.35 110.309 116.093 110.682 115.888C111.056 115.683 111.522 115.58 112.082 115.58C112.605 115.58 113.048 115.669 113.412 115.846C113.786 116.023 114.089 116.266 114.322 116.574C114.565 116.882 114.747 117.232 114.868 117.624C114.99 118.016 115.055 118.436 115.064 118.884C115.074 119.033 115.078 119.192 115.078 119.36C115.078 119.528 115.074 119.687 115.064 119.836C115.055 120.275 114.99 120.695 114.868 121.096C114.747 121.488 114.565 121.838 114.322 122.146C114.089 122.445 113.786 122.687 113.412 122.874C113.048 123.051 112.605 123.14 112.082 123.14C111.541 123.14 111.084 123.042 110.71 122.846C110.346 122.641 110.048 122.389 109.814 122.09V125.338C109.814 125.431 109.786 125.506 109.73 125.562C109.674 125.627 109.595 125.66 109.492 125.66H108.82ZM111.788 122.006C112.274 122.006 112.652 121.903 112.922 121.698C113.202 121.483 113.403 121.208 113.524 120.872C113.646 120.527 113.716 120.158 113.734 119.766C113.744 119.495 113.744 119.225 113.734 118.954C113.716 118.562 113.646 118.198 113.524 117.862C113.403 117.517 113.202 117.241 112.922 117.036C112.652 116.821 112.274 116.714 111.788 116.714C111.331 116.714 110.958 116.821 110.668 117.036C110.388 117.251 110.178 117.526 110.038 117.862C109.908 118.189 109.833 118.525 109.814 118.87C109.805 119.019 109.8 119.197 109.8 119.402C109.8 119.607 109.805 119.789 109.814 119.948C109.824 120.275 109.898 120.597 110.038 120.914C110.188 121.231 110.407 121.493 110.696 121.698C110.986 121.903 111.35 122.006 111.788 122.006ZM120.592 123C120.498 123 120.419 122.972 120.354 122.916C120.298 122.851 120.27 122.771 120.27 122.678V113.382C120.27 113.289 120.298 113.214 120.354 113.158C120.419 113.093 120.498 113.06 120.592 113.06H121.292C121.394 113.06 121.474 113.093 121.53 113.158C121.586 113.214 121.614 113.289 121.614 113.382V116.644C121.866 116.327 122.174 116.07 122.538 115.874C122.902 115.678 123.364 115.58 123.924 115.58C124.53 115.58 125.044 115.715 125.464 115.986C125.893 116.247 126.215 116.616 126.43 117.092C126.654 117.559 126.766 118.105 126.766 118.73V122.678C126.766 122.771 126.738 122.851 126.682 122.916C126.626 122.972 126.546 123 126.444 123H125.744C125.65 123 125.571 122.972 125.506 122.916C125.45 122.851 125.422 122.771 125.422 122.678V118.8C125.422 118.147 125.263 117.638 124.946 117.274C124.628 116.901 124.162 116.714 123.546 116.714C122.967 116.714 122.5 116.901 122.146 117.274C121.791 117.638 121.614 118.147 121.614 118.8V122.678C121.614 122.771 121.586 122.851 121.53 122.916C121.474 122.972 121.394 123 121.292 123H120.592ZM131.685 123.14C130.724 123.14 129.958 122.846 129.389 122.258C128.82 121.661 128.507 120.849 128.451 119.822C128.442 119.701 128.437 119.547 128.437 119.36C128.437 119.164 128.442 119.005 128.451 118.884C128.488 118.221 128.642 117.643 128.913 117.148C129.184 116.644 129.552 116.257 130.019 115.986C130.495 115.715 131.05 115.58 131.685 115.58C132.394 115.58 132.987 115.729 133.463 116.028C133.948 116.327 134.317 116.751 134.569 117.302C134.821 117.853 134.947 118.497 134.947 119.234V119.472C134.947 119.575 134.914 119.654 134.849 119.71C134.793 119.766 134.718 119.794 134.625 119.794H129.781C129.781 119.803 129.781 119.822 129.781 119.85C129.781 119.878 129.781 119.901 129.781 119.92C129.8 120.303 129.884 120.662 130.033 120.998C130.182 121.325 130.397 121.591 130.677 121.796C130.957 122.001 131.293 122.104 131.685 122.104C132.021 122.104 132.301 122.053 132.525 121.95C132.749 121.847 132.931 121.735 133.071 121.614C133.211 121.483 133.304 121.385 133.351 121.32C133.435 121.199 133.5 121.129 133.547 121.11C133.594 121.082 133.668 121.068 133.771 121.068H134.443C134.536 121.068 134.611 121.096 134.667 121.152C134.732 121.199 134.76 121.269 134.751 121.362C134.742 121.502 134.667 121.675 134.527 121.88C134.387 122.076 134.186 122.272 133.925 122.468C133.664 122.664 133.346 122.827 132.973 122.958C132.6 123.079 132.17 123.14 131.685 123.14ZM129.781 118.828H133.617V118.786C133.617 118.366 133.538 117.993 133.379 117.666C133.23 117.339 133.01 117.083 132.721 116.896C132.432 116.7 132.086 116.602 131.685 116.602C131.284 116.602 130.938 116.7 130.649 116.896C130.369 117.083 130.154 117.339 130.005 117.666C129.856 117.993 129.781 118.366 129.781 118.786V118.828ZM136.943 123C136.85 123 136.77 122.972 136.705 122.916C136.649 122.851 136.621 122.771 136.621 122.678V116.056C136.621 115.963 136.649 115.883 136.705 115.818C136.77 115.753 136.85 115.72 136.943 115.72H137.587C137.68 115.72 137.76 115.753 137.825 115.818C137.89 115.883 137.923 115.963 137.923 116.056V116.672C138.11 116.355 138.366 116.117 138.693 115.958C139.02 115.799 139.412 115.72 139.869 115.72H140.429C140.522 115.72 140.597 115.753 140.653 115.818C140.709 115.874 140.737 115.949 140.737 116.042V116.616C140.737 116.709 140.709 116.784 140.653 116.84C140.597 116.896 140.522 116.924 140.429 116.924H139.589C139.085 116.924 138.688 117.073 138.399 117.372C138.11 117.661 137.965 118.058 137.965 118.562V122.678C137.965 122.771 137.932 122.851 137.867 122.916C137.802 122.972 137.722 123 137.629 123H136.943ZM144.701 123.14C143.739 123.14 142.974 122.846 142.405 122.258C141.835 121.661 141.523 120.849 141.467 119.822C141.457 119.701 141.453 119.547 141.453 119.36C141.453 119.164 141.457 119.005 141.467 118.884C141.504 118.221 141.658 117.643 141.929 117.148C142.199 116.644 142.568 116.257 143.035 115.986C143.511 115.715 144.066 115.58 144.701 115.58C145.41 115.58 146.003 115.729 146.479 116.028C146.964 116.327 147.333 116.751 147.585 117.302C147.837 117.853 147.963 118.497 147.963 119.234V119.472C147.963 119.575 147.93 119.654 147.865 119.71C147.809 119.766 147.734 119.794 147.641 119.794H142.797C142.797 119.803 142.797 119.822 142.797 119.85C142.797 119.878 142.797 119.901 142.797 119.92C142.815 120.303 142.899 120.662 143.049 120.998C143.198 121.325 143.413 121.591 143.693 121.796C143.973 122.001 144.309 122.104 144.701 122.104C145.037 122.104 145.317 122.053 145.541 121.95C145.765 121.847 145.947 121.735 146.087 121.614C146.227 121.483 146.32 121.385 146.367 121.32C146.451 121.199 146.516 121.129 146.563 121.11C146.609 121.082 146.684 121.068 146.787 121.068H147.459C147.552 121.068 147.627 121.096 147.683 121.152C147.748 121.199 147.776 121.269 147.767 121.362C147.757 121.502 147.683 121.675 147.543 121.88C147.403 122.076 147.202 122.272 146.941 122.468C146.679 122.664 146.362 122.827 145.989 122.958C145.615 123.079 145.186 123.14 144.701 123.14ZM142.797 118.828H146.633V118.786C146.633 118.366 146.553 117.993 146.395 117.666C146.245 117.339 146.026 117.083 145.737 116.896C145.447 116.7 145.102 116.602 144.701 116.602C144.299 116.602 143.954 116.7 143.665 116.896C143.385 117.083 143.17 117.339 143.021 117.666C142.871 117.993 142.797 118.366 142.797 118.786V118.828ZM153.858 123C153.765 123 153.686 122.972 153.62 122.916C153.564 122.851 153.536 122.771 153.536 122.678V116.84H152.346C152.253 116.84 152.174 116.812 152.108 116.756C152.052 116.691 152.024 116.611 152.024 116.518V116.042C152.024 115.949 152.052 115.874 152.108 115.818C152.174 115.753 152.253 115.72 152.346 115.72H153.536V115.02C153.536 114.544 153.616 114.129 153.774 113.774C153.933 113.41 154.185 113.13 154.53 112.934C154.885 112.738 155.356 112.64 155.944 112.64H156.784C156.878 112.64 156.952 112.673 157.008 112.738C157.064 112.794 157.092 112.869 157.092 112.962V113.438C157.092 113.531 157.064 113.611 157.008 113.676C156.952 113.732 156.878 113.76 156.784 113.76H155.972C155.534 113.76 155.235 113.877 155.076 114.11C154.918 114.334 154.838 114.661 154.838 115.09V115.72H156.644C156.738 115.72 156.812 115.753 156.868 115.818C156.924 115.874 156.952 115.949 156.952 116.042V116.518C156.952 116.611 156.924 116.691 156.868 116.756C156.812 116.812 156.738 116.84 156.644 116.84H154.838V122.678C154.838 122.771 154.806 122.851 154.74 122.916C154.684 122.972 154.61 123 154.516 123H153.858ZM161.04 123.14C160.331 123.14 159.738 123.005 159.262 122.734C158.786 122.463 158.422 122.09 158.17 121.614C157.918 121.129 157.778 120.578 157.75 119.962C157.741 119.803 157.736 119.603 157.736 119.36C157.736 119.108 157.741 118.907 157.75 118.758C157.778 118.133 157.918 117.582 158.17 117.106C158.432 116.63 158.8 116.257 159.276 115.986C159.752 115.715 160.34 115.58 161.04 115.58C161.74 115.58 162.328 115.715 162.804 115.986C163.28 116.257 163.644 116.63 163.896 117.106C164.158 117.582 164.302 118.133 164.33 118.758C164.34 118.907 164.344 119.108 164.344 119.36C164.344 119.603 164.34 119.803 164.33 119.962C164.302 120.578 164.162 121.129 163.91 121.614C163.658 122.09 163.294 122.463 162.818 122.734C162.342 123.005 161.75 123.14 161.04 123.14ZM161.04 122.062C161.619 122.062 162.081 121.88 162.426 121.516C162.772 121.143 162.958 120.601 162.986 119.892C162.996 119.752 163 119.575 163 119.36C163 119.145 162.996 118.968 162.986 118.828C162.958 118.119 162.772 117.582 162.426 117.218C162.081 116.845 161.619 116.658 161.04 116.658C160.462 116.658 159.995 116.845 159.64 117.218C159.295 117.582 159.113 118.119 159.094 118.828C159.085 118.968 159.08 119.145 159.08 119.36C159.08 119.575 159.085 119.752 159.094 119.892C159.113 120.601 159.295 121.143 159.64 121.516C159.995 121.88 160.462 122.062 161.04 122.062ZM166.42 123C166.326 123 166.247 122.972 166.182 122.916C166.126 122.851 166.098 122.771 166.098 122.678V116.056C166.098 115.963 166.126 115.883 166.182 115.818C166.247 115.753 166.326 115.72 166.42 115.72H167.064C167.157 115.72 167.236 115.753 167.302 115.818C167.367 115.883 167.4 115.963 167.4 116.056V116.672C167.586 116.355 167.843 116.117 168.17 115.958C168.496 115.799 168.888 115.72 169.346 115.72H169.906C169.999 115.72 170.074 115.753 170.13 115.818C170.186 115.874 170.214 115.949 170.214 116.042V116.616C170.214 116.709 170.186 116.784 170.13 116.84C170.074 116.896 169.999 116.924 169.906 116.924H169.066C168.562 116.924 168.165 117.073 167.876 117.372C167.586 117.661 167.442 118.058 167.442 118.562V122.678C167.442 122.771 167.409 122.851 167.344 122.916C167.278 122.972 167.199 123 167.106 123H166.42ZM177.417 123.14C176.456 123.14 175.691 122.846 175.121 122.258C174.552 121.661 174.239 120.849 174.183 119.822C174.174 119.701 174.169 119.547 174.169 119.36C174.169 119.164 174.174 119.005 174.183 118.884C174.221 118.221 174.375 117.643 174.645 117.148C174.916 116.644 175.285 116.257 175.751 115.986C176.227 115.715 176.783 115.58 177.417 115.58C178.127 115.58 178.719 115.729 179.195 116.028C179.681 116.327 180.049 116.751 180.301 117.302C180.553 117.853 180.679 118.497 180.679 119.234V119.472C180.679 119.575 180.647 119.654 180.581 119.71C180.525 119.766 180.451 119.794 180.357 119.794H175.513C175.513 119.803 175.513 119.822 175.513 119.85C175.513 119.878 175.513 119.901 175.513 119.92C175.532 120.303 175.616 120.662 175.765 120.998C175.915 121.325 176.129 121.591 176.409 121.796C176.689 122.001 177.025 122.104 177.417 122.104C177.753 122.104 178.033 122.053 178.257 121.95C178.481 121.847 178.663 121.735 178.803 121.614C178.943 121.483 179.037 121.385 179.083 121.32C179.167 121.199 179.233 121.129 179.279 121.11C179.326 121.082 179.401 121.068 179.503 121.068H180.175C180.269 121.068 180.343 121.096 180.399 121.152C180.465 121.199 180.493 121.269 180.483 121.362C180.474 121.502 180.399 121.675 180.259 121.88C180.119 122.076 179.919 122.272 179.657 122.468C179.396 122.664 179.079 122.827 178.705 122.958C178.332 123.079 177.903 123.14 177.417 123.14ZM175.513 118.828H179.349V118.786C179.349 118.366 179.27 117.993 179.111 117.666C178.962 117.339 178.743 117.083 178.453 116.896C178.164 116.7 177.819 116.602 177.417 116.602C177.016 116.602 176.671 116.7 176.381 116.896C176.101 117.083 175.887 117.339 175.737 117.666C175.588 117.993 175.513 118.366 175.513 118.786V118.828ZM184.383 123.14C183.917 123.14 183.492 123.047 183.109 122.86C182.727 122.673 182.419 122.421 182.185 122.104C181.952 121.787 181.835 121.427 181.835 121.026C181.835 120.382 182.097 119.869 182.619 119.486C183.142 119.103 183.823 118.851 184.663 118.73L186.749 118.436V118.03C186.749 117.582 186.619 117.232 186.357 116.98C186.105 116.728 185.69 116.602 185.111 116.602C184.691 116.602 184.351 116.686 184.089 116.854C183.837 117.022 183.66 117.237 183.557 117.498C183.501 117.638 183.403 117.708 183.263 117.708H182.633C182.531 117.708 182.451 117.68 182.395 117.624C182.349 117.559 182.325 117.484 182.325 117.4C182.325 117.26 182.377 117.087 182.479 116.882C182.591 116.677 182.759 116.476 182.983 116.28C183.207 116.084 183.492 115.921 183.837 115.79C184.192 115.65 184.621 115.58 185.125 115.58C185.685 115.58 186.157 115.655 186.539 115.804C186.922 115.944 187.221 116.135 187.435 116.378C187.659 116.621 187.818 116.896 187.911 117.204C188.014 117.512 188.065 117.825 188.065 118.142V122.678C188.065 122.771 188.033 122.851 187.967 122.916C187.911 122.972 187.837 123 187.743 123H187.099C186.997 123 186.917 122.972 186.861 122.916C186.805 122.851 186.777 122.771 186.777 122.678V122.076C186.656 122.244 186.493 122.412 186.287 122.58C186.082 122.739 185.825 122.874 185.517 122.986C185.209 123.089 184.831 123.14 184.383 123.14ZM184.677 122.09C185.06 122.09 185.41 122.011 185.727 121.852C186.045 121.684 186.292 121.427 186.469 121.082C186.656 120.737 186.749 120.303 186.749 119.78V119.388L185.125 119.626C184.463 119.719 183.963 119.878 183.627 120.102C183.291 120.317 183.123 120.592 183.123 120.928C183.123 121.189 183.198 121.409 183.347 121.586C183.506 121.754 183.702 121.88 183.935 121.964C184.178 122.048 184.425 122.09 184.677 122.09ZM192.598 123.14C192.075 123.14 191.627 123.075 191.254 122.944C190.881 122.813 190.577 122.655 190.344 122.468C190.111 122.281 189.933 122.095 189.812 121.908C189.7 121.721 189.639 121.572 189.63 121.46C189.621 121.357 189.653 121.278 189.728 121.222C189.803 121.166 189.877 121.138 189.952 121.138H190.568C190.624 121.138 190.666 121.147 190.694 121.166C190.731 121.175 190.778 121.213 190.834 121.278C190.955 121.409 191.091 121.539 191.24 121.67C191.389 121.801 191.571 121.908 191.786 121.992C192.01 122.076 192.285 122.118 192.612 122.118C193.088 122.118 193.48 122.029 193.788 121.852C194.096 121.665 194.25 121.395 194.25 121.04C194.25 120.807 194.185 120.62 194.054 120.48C193.933 120.34 193.709 120.214 193.382 120.102C193.065 119.99 192.626 119.873 192.066 119.752C191.506 119.621 191.063 119.463 190.736 119.276C190.409 119.08 190.176 118.851 190.036 118.59C189.896 118.319 189.826 118.016 189.826 117.68C189.826 117.335 189.929 117.003 190.134 116.686C190.339 116.359 190.638 116.093 191.03 115.888C191.431 115.683 191.931 115.58 192.528 115.58C193.013 115.58 193.429 115.641 193.774 115.762C194.119 115.883 194.404 116.037 194.628 116.224C194.852 116.401 195.02 116.579 195.132 116.756C195.244 116.933 195.305 117.083 195.314 117.204C195.323 117.297 195.295 117.377 195.23 117.442C195.165 117.498 195.09 117.526 195.006 117.526H194.418C194.353 117.526 194.297 117.512 194.25 117.484C194.213 117.456 194.175 117.423 194.138 117.386C194.045 117.265 193.933 117.143 193.802 117.022C193.681 116.901 193.517 116.803 193.312 116.728C193.116 116.644 192.855 116.602 192.528 116.602C192.061 116.602 191.711 116.7 191.478 116.896C191.245 117.092 191.128 117.339 191.128 117.638C191.128 117.815 191.179 117.974 191.282 118.114C191.385 118.254 191.581 118.38 191.87 118.492C192.159 118.604 192.589 118.725 193.158 118.856C193.774 118.977 194.259 119.141 194.614 119.346C194.969 119.551 195.221 119.789 195.37 120.06C195.519 120.331 195.594 120.643 195.594 120.998C195.594 121.39 195.477 121.749 195.244 122.076C195.02 122.403 194.684 122.664 194.236 122.86C193.797 123.047 193.251 123.14 192.598 123.14ZM198.243 125.66C198.168 125.66 198.103 125.632 198.047 125.576C197.991 125.52 197.963 125.455 197.963 125.38C197.963 125.343 197.967 125.305 197.977 125.268C197.986 125.231 198.005 125.184 198.033 125.128L199.111 122.566L196.437 116.252C196.39 116.14 196.367 116.061 196.367 116.014C196.367 115.93 196.395 115.86 196.451 115.804C196.507 115.748 196.577 115.72 196.661 115.72H197.347C197.44 115.72 197.515 115.743 197.571 115.79C197.627 115.837 197.664 115.893 197.683 115.958L199.811 121.054L201.995 115.958C202.023 115.893 202.06 115.837 202.107 115.79C202.163 115.743 202.242 115.72 202.345 115.72H203.003C203.087 115.72 203.157 115.748 203.213 115.804C203.269 115.86 203.297 115.925 203.297 116C203.297 116.047 203.273 116.131 203.227 116.252L199.251 125.422C199.223 125.487 199.181 125.543 199.125 125.59C199.078 125.637 199.003 125.66 198.901 125.66H198.243ZM209.772 123.14C209.305 123.14 208.881 123.047 208.498 122.86C208.115 122.673 207.807 122.421 207.574 122.104C207.341 121.787 207.224 121.427 207.224 121.026C207.224 120.382 207.485 119.869 208.008 119.486C208.531 119.103 209.212 118.851 210.052 118.73L212.138 118.436V118.03C212.138 117.582 212.007 117.232 211.746 116.98C211.494 116.728 211.079 116.602 210.5 116.602C210.08 116.602 209.739 116.686 209.478 116.854C209.226 117.022 209.049 117.237 208.946 117.498C208.89 117.638 208.792 117.708 208.652 117.708H208.022C207.919 117.708 207.84 117.68 207.784 117.624C207.737 117.559 207.714 117.484 207.714 117.4C207.714 117.26 207.765 117.087 207.868 116.882C207.98 116.677 208.148 116.476 208.372 116.28C208.596 116.084 208.881 115.921 209.226 115.79C209.581 115.65 210.01 115.58 210.514 115.58C211.074 115.58 211.545 115.655 211.928 115.804C212.311 115.944 212.609 116.135 212.824 116.378C213.048 116.621 213.207 116.896 213.3 117.204C213.403 117.512 213.454 117.825 213.454 118.142V122.678C213.454 122.771 213.421 122.851 213.356 122.916C213.3 122.972 213.225 123 213.132 123H212.488C212.385 123 212.306 122.972 212.25 122.916C212.194 122.851 212.166 122.771 212.166 122.678V122.076C212.045 122.244 211.881 122.412 211.676 122.58C211.471 122.739 211.214 122.874 210.906 122.986C210.598 123.089 210.22 123.14 209.772 123.14ZM210.066 122.09C210.449 122.09 210.799 122.011 211.116 121.852C211.433 121.684 211.681 121.427 211.858 121.082C212.045 120.737 212.138 120.303 212.138 119.78V119.388L210.514 119.626C209.851 119.719 209.352 119.878 209.016 120.102C208.68 120.317 208.512 120.592 208.512 120.928C208.512 121.189 208.587 121.409 208.736 121.586C208.895 121.754 209.091 121.88 209.324 121.964C209.567 122.048 209.814 122.09 210.066 122.09ZM218.407 123.14C217.744 123.14 217.17 123.014 216.685 122.762C216.209 122.501 215.84 122.132 215.579 121.656C215.317 121.171 215.177 120.592 215.159 119.92C215.149 119.78 215.145 119.593 215.145 119.36C215.145 119.127 215.149 118.94 215.159 118.8C215.177 118.128 215.317 117.554 215.579 117.078C215.84 116.593 216.209 116.224 216.685 115.972C217.17 115.711 217.744 115.58 218.407 115.58C218.948 115.58 219.41 115.655 219.793 115.804C220.185 115.953 220.507 116.145 220.759 116.378C221.011 116.611 221.197 116.863 221.319 117.134C221.449 117.405 221.519 117.661 221.529 117.904C221.538 117.997 221.51 118.072 221.445 118.128C221.379 118.184 221.3 118.212 221.207 118.212H220.535C220.441 118.212 220.371 118.193 220.325 118.156C220.278 118.109 220.231 118.035 220.185 117.932C220.017 117.475 219.788 117.153 219.499 116.966C219.209 116.779 218.85 116.686 218.421 116.686C217.861 116.686 217.403 116.859 217.049 117.204C216.703 117.549 216.517 118.105 216.489 118.87C216.479 119.206 216.479 119.533 216.489 119.85C216.517 120.625 216.703 121.185 217.049 121.53C217.403 121.866 217.861 122.034 218.421 122.034C218.85 122.034 219.209 121.941 219.499 121.754C219.788 121.567 220.017 121.245 220.185 120.788C220.231 120.685 220.278 120.615 220.325 120.578C220.371 120.531 220.441 120.508 220.535 120.508H221.207C221.3 120.508 221.379 120.536 221.445 120.592C221.51 120.648 221.538 120.723 221.529 120.816C221.519 121.012 221.477 121.213 221.403 121.418C221.328 121.623 221.207 121.833 221.039 122.048C220.88 122.253 220.679 122.44 220.437 122.608C220.194 122.767 219.9 122.897 219.555 123C219.219 123.093 218.836 123.14 218.407 123.14ZM226.131 123.14C225.469 123.14 224.895 123.014 224.409 122.762C223.933 122.501 223.565 122.132 223.303 121.656C223.042 121.171 222.902 120.592 222.883 119.92C222.874 119.78 222.869 119.593 222.869 119.36C222.869 119.127 222.874 118.94 222.883 118.8C222.902 118.128 223.042 117.554 223.303 117.078C223.565 116.593 223.933 116.224 224.409 115.972C224.895 115.711 225.469 115.58 226.131 115.58C226.673 115.58 227.135 115.655 227.517 115.804C227.909 115.953 228.231 116.145 228.483 116.378C228.735 116.611 228.922 116.863 229.043 117.134C229.174 117.405 229.244 117.661 229.253 117.904C229.263 117.997 229.235 118.072 229.169 118.128C229.104 118.184 229.025 118.212 228.931 118.212H228.259C228.166 118.212 228.096 118.193 228.049 118.156C228.003 118.109 227.956 118.035 227.909 117.932C227.741 117.475 227.513 117.153 227.223 116.966C226.934 116.779 226.575 116.686 226.145 116.686C225.585 116.686 225.128 116.859 224.773 117.204C224.428 117.549 224.241 118.105 224.213 118.87C224.204 119.206 224.204 119.533 224.213 119.85C224.241 120.625 224.428 121.185 224.773 121.53C225.128 121.866 225.585 122.034 226.145 122.034C226.575 122.034 226.934 121.941 227.223 121.754C227.513 121.567 227.741 121.245 227.909 120.788C227.956 120.685 228.003 120.615 228.049 120.578C228.096 120.531 228.166 120.508 228.259 120.508H228.931C229.025 120.508 229.104 120.536 229.169 120.592C229.235 120.648 229.263 120.723 229.253 120.816C229.244 121.012 229.202 121.213 229.127 121.418C229.053 121.623 228.931 121.833 228.763 122.048C228.605 122.253 228.404 122.44 228.161 122.608C227.919 122.767 227.625 122.897 227.279 123C226.943 123.093 226.561 123.14 226.131 123.14ZM233.814 123.14C232.853 123.14 232.087 122.846 231.518 122.258C230.949 121.661 230.636 120.849 230.58 119.822C230.571 119.701 230.566 119.547 230.566 119.36C230.566 119.164 230.571 119.005 230.58 118.884C230.617 118.221 230.771 117.643 231.042 117.148C231.313 116.644 231.681 116.257 232.148 115.986C232.624 115.715 233.179 115.58 233.814 115.58C234.523 115.58 235.116 115.729 235.592 116.028C236.077 116.327 236.446 116.751 236.698 117.302C236.95 117.853 237.076 118.497 237.076 119.234V119.472C237.076 119.575 237.043 119.654 236.978 119.71C236.922 119.766 236.847 119.794 236.754 119.794H231.91C231.91 119.803 231.91 119.822 231.91 119.85C231.91 119.878 231.91 119.901 231.91 119.92C231.929 120.303 232.013 120.662 232.162 120.998C232.311 121.325 232.526 121.591 232.806 121.796C233.086 122.001 233.422 122.104 233.814 122.104C234.15 122.104 234.43 122.053 234.654 121.95C234.878 121.847 235.06 121.735 235.2 121.614C235.34 121.483 235.433 121.385 235.48 121.32C235.564 121.199 235.629 121.129 235.676 121.11C235.723 121.082 235.797 121.068 235.9 121.068H236.572C236.665 121.068 236.74 121.096 236.796 121.152C236.861 121.199 236.889 121.269 236.88 121.362C236.871 121.502 236.796 121.675 236.656 121.88C236.516 122.076 236.315 122.272 236.054 122.468C235.793 122.664 235.475 122.827 235.102 122.958C234.729 123.079 234.299 123.14 233.814 123.14ZM231.91 118.828H235.746V118.786C235.746 118.366 235.667 117.993 235.508 117.666C235.359 117.339 235.139 117.083 234.85 116.896C234.561 116.7 234.215 116.602 233.814 116.602C233.413 116.602 233.067 116.7 232.778 116.896C232.498 117.083 232.283 117.339 232.134 117.666C231.985 117.993 231.91 118.366 231.91 118.786V118.828ZM241.27 123.14C240.747 123.14 240.299 123.075 239.926 122.944C239.553 122.813 239.249 122.655 239.016 122.468C238.783 122.281 238.605 122.095 238.484 121.908C238.372 121.721 238.311 121.572 238.302 121.46C238.293 121.357 238.325 121.278 238.4 121.222C238.475 121.166 238.549 121.138 238.624 121.138H239.24C239.296 121.138 239.338 121.147 239.366 121.166C239.403 121.175 239.45 121.213 239.506 121.278C239.627 121.409 239.763 121.539 239.912 121.67C240.061 121.801 240.243 121.908 240.458 121.992C240.682 122.076 240.957 122.118 241.284 122.118C241.76 122.118 242.152 122.029 242.46 121.852C242.768 121.665 242.922 121.395 242.922 121.04C242.922 120.807 242.857 120.62 242.726 120.48C242.605 120.34 242.381 120.214 242.054 120.102C241.737 119.99 241.298 119.873 240.738 119.752C240.178 119.621 239.735 119.463 239.408 119.276C239.081 119.08 238.848 118.851 238.708 118.59C238.568 118.319 238.498 118.016 238.498 117.68C238.498 117.335 238.601 117.003 238.806 116.686C239.011 116.359 239.31 116.093 239.702 115.888C240.103 115.683 240.603 115.58 241.2 115.58C241.685 115.58 242.101 115.641 242.446 115.762C242.791 115.883 243.076 116.037 243.3 116.224C243.524 116.401 243.692 116.579 243.804 116.756C243.916 116.933 243.977 117.083 243.986 117.204C243.995 117.297 243.967 117.377 243.902 117.442C243.837 117.498 243.762 117.526 243.678 117.526H243.09C243.025 117.526 242.969 117.512 242.922 117.484C242.885 117.456 242.847 117.423 242.81 117.386C242.717 117.265 242.605 117.143 242.474 117.022C242.353 116.901 242.189 116.803 241.984 116.728C241.788 116.644 241.527 116.602 241.2 116.602C240.733 116.602 240.383 116.7 240.15 116.896C239.917 117.092 239.8 117.339 239.8 117.638C239.8 117.815 239.851 117.974 239.954 118.114C240.057 118.254 240.253 118.38 240.542 118.492C240.831 118.604 241.261 118.725 241.83 118.856C242.446 118.977 242.931 119.141 243.286 119.346C243.641 119.551 243.893 119.789 244.042 120.06C244.191 120.331 244.266 120.643 244.266 120.998C244.266 121.39 244.149 121.749 243.916 122.076C243.692 122.403 243.356 122.664 242.908 122.86C242.469 123.047 241.923 123.14 241.27 123.14ZM248.407 123.14C247.884 123.14 247.436 123.075 247.063 122.944C246.689 122.813 246.386 122.655 246.153 122.468C245.919 122.281 245.742 122.095 245.621 121.908C245.509 121.721 245.448 121.572 245.439 121.46C245.429 121.357 245.462 121.278 245.537 121.222C245.611 121.166 245.686 121.138 245.761 121.138H246.377C246.433 121.138 246.475 121.147 246.503 121.166C246.54 121.175 246.587 121.213 246.643 121.278C246.764 121.409 246.899 121.539 247.049 121.67C247.198 121.801 247.38 121.908 247.595 121.992C247.819 122.076 248.094 122.118 248.421 122.118C248.897 122.118 249.289 122.029 249.597 121.852C249.905 121.665 250.059 121.395 250.059 121.04C250.059 120.807 249.993 120.62 249.863 120.48C249.741 120.34 249.517 120.214 249.191 120.102C248.873 119.99 248.435 119.873 247.875 119.752C247.315 119.621 246.871 119.463 246.545 119.276C246.218 119.08 245.985 118.851 245.845 118.59C245.705 118.319 245.635 118.016 245.635 117.68C245.635 117.335 245.737 117.003 245.943 116.686C246.148 116.359 246.447 116.093 246.839 115.888C247.24 115.683 247.739 115.58 248.337 115.58C248.822 115.58 249.237 115.641 249.583 115.762C249.928 115.883 250.213 116.037 250.437 116.224C250.661 116.401 250.829 116.579 250.941 116.756C251.053 116.933 251.113 117.083 251.123 117.204C251.132 117.297 251.104 117.377 251.039 117.442C250.973 117.498 250.899 117.526 250.815 117.526H250.227C250.161 117.526 250.105 117.512 250.059 117.484C250.021 117.456 249.984 117.423 249.947 117.386C249.853 117.265 249.741 117.143 249.611 117.022C249.489 116.901 249.326 116.803 249.121 116.728C248.925 116.644 248.663 116.602 248.337 116.602C247.87 116.602 247.52 116.7 247.287 116.896C247.053 117.092 246.937 117.339 246.937 117.638C246.937 117.815 246.988 117.974 247.091 118.114C247.193 118.254 247.389 118.38 247.679 118.492C247.968 118.604 248.397 118.725 248.967 118.856C249.583 118.977 250.068 119.141 250.423 119.346C250.777 119.551 251.029 119.789 251.179 120.06C251.328 120.331 251.403 120.643 251.403 120.998C251.403 121.39 251.286 121.749 251.053 122.076C250.829 122.403 250.493 122.664 250.045 122.86C249.606 123.047 249.06 123.14 248.407 123.14ZM253.247 123C253.154 123 253.075 122.972 253.009 122.916C252.953 122.851 252.925 122.771 252.925 122.678V121.67C252.925 121.577 252.953 121.502 253.009 121.446C253.075 121.381 253.154 121.348 253.247 121.348H254.255C254.349 121.348 254.423 121.381 254.479 121.446C254.545 121.502 254.577 121.577 254.577 121.67V122.678C254.577 122.771 254.545 122.851 254.479 122.916C254.423 122.972 254.349 123 254.255 123H253.247Z" fill="#707070"/>
</svg>
