<svg width="276" height="132" viewBox="0 0 276 132" fill="none" xmlns="http://www.w3.org/2000/svg">
<rect x="98" width="80" height="80" rx="40" fill="white"/>
<path d="M151.75 26.25H124.25C123.587 26.25 122.951 26.5134 122.482 26.9822C122.013 27.4511 121.75 28.087 121.75 28.75V48.75C121.75 49.413 122.013 50.0489 122.482 50.5178C122.951 50.9866 123.587 51.25 124.25 51.25H133.692L135.83 54.9906C136.048 55.3731 136.364 55.6911 136.745 55.9122C137.127 56.1333 137.559 56.2498 138 56.2498C138.441 56.2498 138.873 56.1333 139.255 55.9122C139.636 55.6911 139.952 55.3731 140.17 54.9906L142.308 51.25H151.75C152.413 51.25 153.049 50.9866 153.518 50.5178C153.987 50.0489 154.25 49.413 154.25 48.75V28.75C154.25 28.087 153.987 27.4511 153.518 26.9822C153.049 26.5134 152.413 26.25 151.75 26.25ZM143 42.5H133C132.668 42.5 132.351 42.3683 132.116 42.1339C131.882 41.8995 131.75 41.5815 131.75 41.25C131.75 40.9185 131.882 40.6005 132.116 40.3661C132.351 40.1317 132.668 40 133 40H143C143.332 40 143.649 40.1317 143.884 40.3661C144.118 40.6005 144.25 40.9185 144.25 41.25C144.25 41.5815 144.118 41.8995 143.884 42.1339C143.649 42.3683 143.332 42.5 143 42.5ZM143 37.5H133C132.668 37.5 132.351 37.3683 132.116 37.1339C131.882 36.8995 131.75 36.5815 131.75 36.25C131.75 35.9185 131.882 35.6005 132.116 35.3661C132.351 35.1317 132.668 35 133 35H143C143.332 35 143.649 35.1317 143.884 35.3661C144.118 35.6005 144.25 35.9185 144.25 36.25C144.25 36.5815 144.118 36.8995 143.884 37.1339C143.649 37.3683 143.332 37.5 143 37.5Z" fill="#BDBDBD"/>
<path d="M20.4498 104C20.3431 104 20.2578 103.968 20.1938 103.904C20.1298 103.84 20.0978 103.755 20.0978 103.648V93.168C20.0978 93.0507 20.1298 92.96 20.1938 92.896C20.2578 92.832 20.3431 92.8 20.4498 92.8H20.7858C20.8924 92.8 20.9724 92.8267 21.0258 92.88C21.0791 92.9333 21.1111 92.9707 21.1218 92.992L27.0258 102.016V93.168C27.0258 93.0507 27.0578 92.96 27.1218 92.896C27.1858 92.832 27.2711 92.8 27.3778 92.8H27.6658C27.7831 92.8 27.8738 92.832 27.9378 92.896C28.0018 92.96 28.0338 93.0507 28.0338 93.168V103.632C28.0338 103.739 28.0018 103.829 27.9378 103.904C27.8738 103.968 27.7884 104 27.6818 104H27.3298C27.2231 104 27.1431 103.973 27.0898 103.92C27.0471 103.867 27.0151 103.829 26.9938 103.808L21.1058 94.816V103.648C21.1058 103.755 21.0738 103.84 21.0098 103.904C20.9458 103.968 20.8551 104 20.7378 104H20.4498ZM33.9153 104.16C32.8806 104.16 32.0593 103.824 31.4513 103.152C30.8433 102.469 30.4966 101.579 30.4113 100.48C30.4006 100.32 30.3953 100.107 30.3953 99.84C30.3953 99.5733 30.4006 99.36 30.4113 99.2C30.4646 98.4747 30.6353 97.8347 30.9233 97.28C31.2113 96.7253 31.6059 96.2933 32.1073 95.984C32.6193 95.6747 33.2219 95.52 33.9153 95.52C34.6619 95.52 35.2966 95.6853 35.8193 96.016C36.3419 96.3467 36.7419 96.8213 37.0193 97.44C37.3073 98.0587 37.4513 98.7947 37.4513 99.648V99.888C37.4513 99.9947 37.4139 100.08 37.3393 100.144C37.2753 100.208 37.1899 100.24 37.0833 100.24H31.3873C31.3873 100.24 31.3873 100.261 31.3873 100.304C31.3873 100.347 31.3873 100.379 31.3873 100.4C31.4086 100.88 31.5206 101.339 31.7233 101.776C31.9259 102.203 32.2139 102.555 32.5873 102.832C32.9606 103.099 33.4033 103.232 33.9153 103.232C34.3739 103.232 34.7526 103.163 35.0513 103.024C35.3606 102.885 35.6059 102.736 35.7873 102.576C35.9686 102.405 36.0859 102.277 36.1393 102.192C36.2353 102.053 36.3099 101.973 36.3633 101.952C36.4166 101.92 36.5019 101.904 36.6193 101.904H36.8753C36.9713 101.904 37.0513 101.936 37.1153 102C37.1899 102.053 37.2219 102.128 37.2113 102.224C37.2006 102.373 37.1153 102.56 36.9553 102.784C36.8059 102.997 36.5873 103.211 36.2993 103.424C36.0219 103.637 35.6806 103.813 35.2753 103.952C34.8699 104.091 34.4166 104.16 33.9153 104.16ZM31.3873 99.344H36.4753V99.28C36.4753 98.7467 36.3739 98.2667 36.1713 97.84C35.9686 97.4133 35.6753 97.0773 35.2913 96.832C34.9073 96.576 34.4486 96.448 33.9153 96.448C33.3819 96.448 32.9233 96.576 32.5393 96.832C32.1659 97.0773 31.8779 97.4133 31.6753 97.84C31.4833 98.2667 31.3873 98.7467 31.3873 99.28V99.344ZM41.5185 104C41.3798 104 41.2732 103.968 41.1985 103.904C41.1238 103.84 41.0598 103.739 41.0065 103.6L38.7505 96.176C38.7292 96.112 38.7185 96.0533 38.7185 96C38.7185 95.9147 38.7505 95.84 38.8145 95.776C38.8785 95.712 38.9532 95.68 39.0385 95.68H39.3425C39.4492 95.68 39.5292 95.712 39.5825 95.776C39.6465 95.8293 39.6838 95.8773 39.6945 95.92L41.6625 102.576L43.7585 96C43.7798 95.936 43.8225 95.8667 43.8865 95.792C43.9505 95.7173 44.0518 95.68 44.1905 95.68H44.5105C44.6492 95.68 44.7505 95.7173 44.8145 95.792C44.8892 95.8667 44.9318 95.936 44.9425 96L47.0385 102.576L49.0065 95.92C49.0172 95.8773 49.0492 95.8293 49.1025 95.776C49.1665 95.712 49.2518 95.68 49.3585 95.68H49.6625C49.7478 95.68 49.8225 95.712 49.8865 95.776C49.9505 95.84 49.9825 95.9147 49.9825 96C49.9825 96.0533 49.9718 96.112 49.9505 96.176L47.6945 103.6C47.6518 103.739 47.5932 103.84 47.5185 103.904C47.4438 103.968 47.3318 104 47.1825 104H46.9105C46.7718 104 46.6545 103.968 46.5585 103.904C46.4732 103.84 46.4092 103.739 46.3665 103.6L44.3505 97.296L42.3345 103.6C42.2918 103.739 42.2278 103.84 42.1425 103.904C42.0572 103.968 41.9398 104 41.7905 104H41.5185ZM56.0386 104C55.932 104 55.8466 103.968 55.7826 103.904C55.7186 103.84 55.6866 103.755 55.6866 103.648V96.032C55.6866 95.9253 55.7186 95.84 55.7826 95.776C55.8466 95.712 55.932 95.68 56.0386 95.68H56.3106C56.4173 95.68 56.5026 95.712 56.5666 95.776C56.6306 95.84 56.6626 95.9253 56.6626 96.032V96.592C56.9293 96.2507 57.244 95.9893 57.6066 95.808C57.98 95.616 58.428 95.52 58.9506 95.52C60.1453 95.52 60.9986 96.0213 61.5106 97.024C61.756 96.5653 62.1133 96.2027 62.5826 95.936C63.0626 95.6587 63.612 95.52 64.2306 95.52C64.796 95.52 65.3026 95.6533 65.7506 95.92C66.2093 96.176 66.5666 96.56 66.8226 97.072C67.0893 97.584 67.2226 98.224 67.2226 98.992V103.648C67.2226 103.755 67.1906 103.84 67.1266 103.904C67.0626 103.968 66.9773 104 66.8706 104H66.5986C66.492 104 66.4066 103.968 66.3426 103.904C66.2786 103.84 66.2466 103.755 66.2466 103.648V99.152C66.2466 98.448 66.1453 97.904 65.9426 97.52C65.74 97.1253 65.4733 96.848 65.1426 96.688C64.812 96.528 64.4546 96.448 64.0706 96.448C63.7506 96.448 63.4253 96.528 63.0946 96.688C62.764 96.848 62.4866 97.1253 62.2626 97.52C62.0493 97.904 61.9426 98.448 61.9426 99.152V103.648C61.9426 103.755 61.9106 103.84 61.8466 103.904C61.7826 103.968 61.6973 104 61.5906 104H61.3186C61.212 104 61.1266 103.968 61.0626 103.904C60.9986 103.84 60.9666 103.755 60.9666 103.648V99.152C60.9666 98.448 60.86 97.904 60.6466 97.52C60.4333 97.1253 60.1613 96.848 59.8306 96.688C59.5 96.528 59.1533 96.448 58.7906 96.448C58.4706 96.448 58.1453 96.528 57.8146 96.688C57.484 96.848 57.2066 97.1253 56.9826 97.52C56.7693 97.904 56.6626 98.4427 56.6626 99.136V103.648C56.6626 103.755 56.6306 103.84 56.5666 103.904C56.5026 103.968 56.4173 104 56.3106 104H56.0386ZM72.8215 104.16C71.7868 104.16 70.9655 103.824 70.3575 103.152C69.7495 102.469 69.4028 101.579 69.3175 100.48C69.3068 100.32 69.3015 100.107 69.3015 99.84C69.3015 99.5733 69.3068 99.36 69.3175 99.2C69.3708 98.4747 69.5415 97.8347 69.8295 97.28C70.1175 96.7253 70.5122 96.2933 71.0135 95.984C71.5255 95.6747 72.1282 95.52 72.8215 95.52C73.5682 95.52 74.2028 95.6853 74.7255 96.016C75.2482 96.3467 75.6482 96.8213 75.9255 97.44C76.2135 98.0587 76.3575 98.7947 76.3575 99.648V99.888C76.3575 99.9947 76.3202 100.08 76.2455 100.144C76.1815 100.208 76.0962 100.24 75.9895 100.24H70.2935C70.2935 100.24 70.2935 100.261 70.2935 100.304C70.2935 100.347 70.2935 100.379 70.2935 100.4C70.3148 100.88 70.4268 101.339 70.6295 101.776C70.8322 102.203 71.1202 102.555 71.4935 102.832C71.8668 103.099 72.3095 103.232 72.8215 103.232C73.2802 103.232 73.6588 103.163 73.9575 103.024C74.2668 102.885 74.5122 102.736 74.6935 102.576C74.8748 102.405 74.9922 102.277 75.0455 102.192C75.1415 102.053 75.2162 101.973 75.2695 101.952C75.3228 101.92 75.4082 101.904 75.5255 101.904H75.7815C75.8775 101.904 75.9575 101.936 76.0215 102C76.0962 102.053 76.1282 102.128 76.1175 102.224C76.1068 102.373 76.0215 102.56 75.8615 102.784C75.7122 102.997 75.4935 103.211 75.2055 103.424C74.9282 103.637 74.5868 103.813 74.1815 103.952C73.7762 104.091 73.3228 104.16 72.8215 104.16ZM70.2935 99.344H75.3815V99.28C75.3815 98.7467 75.2802 98.2667 75.0775 97.84C74.8748 97.4133 74.5815 97.0773 74.1975 96.832C73.8135 96.576 73.3548 96.448 72.8215 96.448C72.2882 96.448 71.8295 96.576 71.4455 96.832C71.0722 97.0773 70.7842 97.4133 70.5815 97.84C70.3895 98.2667 70.2935 98.7467 70.2935 99.28V99.344ZM81.1079 104.16C80.5532 104.16 80.0732 104.085 79.6679 103.936C79.2732 103.787 78.9479 103.611 78.6919 103.408C78.4359 103.195 78.2439 102.987 78.1159 102.784C77.9985 102.581 77.9345 102.427 77.9239 102.32C77.9132 102.203 77.9505 102.117 78.0359 102.064C78.1212 102 78.2012 101.968 78.2759 101.968H78.5159C78.5799 101.968 78.6332 101.979 78.6759 102C78.7292 102.021 78.7932 102.08 78.8679 102.176C79.0065 102.357 79.1665 102.533 79.3479 102.704C79.5292 102.864 79.7585 102.992 80.0359 103.088C80.3239 103.184 80.6812 103.232 81.1079 103.232C81.7479 103.232 82.2759 103.109 82.6919 102.864C83.1079 102.619 83.3159 102.256 83.3159 101.776C83.3159 101.477 83.2305 101.237 83.0599 101.056C82.8999 100.875 82.6225 100.715 82.2279 100.576C81.8332 100.437 81.2999 100.293 80.6279 100.144C79.9559 99.984 79.4385 99.792 79.0759 99.568C78.7239 99.344 78.4839 99.088 78.3559 98.8C78.2279 98.5013 78.1639 98.1813 78.1639 97.84C78.1639 97.4667 78.2705 97.104 78.4839 96.752C78.6972 96.3893 79.0119 96.096 79.4279 95.872C79.8545 95.6373 80.3879 95.52 81.0279 95.52C81.5505 95.52 81.9932 95.5893 82.3559 95.728C82.7292 95.8667 83.0332 96.0373 83.2679 96.24C83.5025 96.432 83.6732 96.624 83.7799 96.816C83.8972 97.008 83.9612 97.1627 83.9719 97.28C83.9825 97.3867 83.9505 97.472 83.8759 97.536C83.8012 97.6 83.7159 97.632 83.6199 97.632H83.3799C83.2945 97.632 83.2252 97.616 83.1719 97.584C83.1185 97.5413 83.0705 97.488 83.0279 97.424C82.9212 97.2533 82.7932 97.0933 82.6439 96.944C82.4945 96.7947 82.2919 96.6773 82.0359 96.592C81.7905 96.496 81.4545 96.448 81.0279 96.448C80.3879 96.448 79.9132 96.5813 79.6039 96.848C79.2945 97.104 79.1399 97.4347 79.1399 97.84C79.1399 98.0747 79.2039 98.2827 79.3319 98.464C79.4599 98.6347 79.6999 98.7947 80.0519 98.944C80.4039 99.0827 80.9159 99.232 81.5879 99.392C82.2705 99.5413 82.8092 99.728 83.2039 99.952C83.5985 100.165 83.8759 100.421 84.0359 100.72C84.2065 101.019 84.2919 101.371 84.2919 101.776C84.2919 102.203 84.1692 102.597 83.9239 102.96C83.6892 103.323 83.3319 103.616 82.8519 103.84C82.3825 104.053 81.8012 104.16 81.1079 104.16ZM88.9829 104.16C88.4282 104.16 87.9482 104.085 87.5429 103.936C87.1482 103.787 86.8229 103.611 86.5669 103.408C86.3109 103.195 86.1189 102.987 85.9909 102.784C85.8735 102.581 85.8095 102.427 85.7989 102.32C85.7882 102.203 85.8255 102.117 85.9109 102.064C85.9962 102 86.0762 101.968 86.1509 101.968H86.3909C86.4549 101.968 86.5082 101.979 86.5509 102C86.6042 102.021 86.6682 102.08 86.7429 102.176C86.8815 102.357 87.0415 102.533 87.2229 102.704C87.4042 102.864 87.6335 102.992 87.9109 103.088C88.1989 103.184 88.5562 103.232 88.9829 103.232C89.6229 103.232 90.1509 103.109 90.5669 102.864C90.9829 102.619 91.1909 102.256 91.1909 101.776C91.1909 101.477 91.1055 101.237 90.9349 101.056C90.7749 100.875 90.4975 100.715 90.1029 100.576C89.7082 100.437 89.1749 100.293 88.5029 100.144C87.8309 99.984 87.3135 99.792 86.9509 99.568C86.5989 99.344 86.3589 99.088 86.2309 98.8C86.1029 98.5013 86.0389 98.1813 86.0389 97.84C86.0389 97.4667 86.1455 97.104 86.3589 96.752C86.5722 96.3893 86.8869 96.096 87.3029 95.872C87.7295 95.6373 88.2629 95.52 88.9029 95.52C89.4255 95.52 89.8682 95.5893 90.2309 95.728C90.6042 95.8667 90.9082 96.0373 91.1429 96.24C91.3775 96.432 91.5482 96.624 91.6549 96.816C91.7722 97.008 91.8362 97.1627 91.8469 97.28C91.8575 97.3867 91.8255 97.472 91.7509 97.536C91.6762 97.6 91.5909 97.632 91.4949 97.632H91.2549C91.1695 97.632 91.1002 97.616 91.0469 97.584C90.9935 97.5413 90.9455 97.488 90.9029 97.424C90.7962 97.2533 90.6682 97.0933 90.5189 96.944C90.3695 96.7947 90.1669 96.6773 89.9109 96.592C89.6655 96.496 89.3295 96.448 88.9029 96.448C88.2629 96.448 87.7882 96.5813 87.4789 96.848C87.1695 97.104 87.0149 97.4347 87.0149 97.84C87.0149 98.0747 87.0789 98.2827 87.2069 98.464C87.3349 98.6347 87.5749 98.7947 87.9269 98.944C88.2789 99.0827 88.7909 99.232 89.4629 99.392C90.1455 99.5413 90.6842 99.728 91.0789 99.952C91.4735 100.165 91.7509 100.421 91.9109 100.72C92.0815 101.019 92.1669 101.371 92.1669 101.776C92.1669 102.203 92.0442 102.597 91.7989 102.96C91.5642 103.323 91.2069 103.616 90.7269 103.84C90.2575 104.053 89.6762 104.16 88.9829 104.16ZM96.4579 104.16C95.9459 104.16 95.4712 104.053 95.0339 103.84C94.6072 103.627 94.2605 103.344 93.9939 102.992C93.7272 102.629 93.5939 102.224 93.5939 101.776C93.5939 101.051 93.8872 100.469 94.4739 100.032C95.0605 99.5947 95.8232 99.312 96.7619 99.184L99.2899 98.832V98.272C99.2899 97.7067 99.1139 97.264 98.7619 96.944C98.4205 96.6133 97.8712 96.448 97.1139 96.448C96.5592 96.448 96.1112 96.56 95.7699 96.784C95.4285 96.9973 95.1939 97.28 95.0659 97.632C95.0125 97.792 94.9112 97.872 94.7619 97.872H94.5059C94.3779 97.872 94.2872 97.84 94.2339 97.776C94.1805 97.7013 94.1539 97.616 94.1539 97.52C94.1539 97.3707 94.2072 97.184 94.3139 96.96C94.4312 96.736 94.6072 96.5173 94.8419 96.304C95.0765 96.08 95.3805 95.8933 95.7539 95.744C96.1272 95.5947 96.5805 95.52 97.1139 95.52C97.7432 95.52 98.2605 95.6053 98.6659 95.776C99.0819 95.9467 99.4019 96.1707 99.6259 96.448C99.8605 96.7147 100.026 97.0133 100.122 97.344C100.218 97.6747 100.266 98 100.266 98.32V103.648C100.266 103.755 100.234 103.84 100.17 103.904C100.106 103.968 100.021 104 99.9139 104H99.6419C99.5352 104 99.4499 103.968 99.3859 103.904C99.3219 103.84 99.2899 103.755 99.2899 103.648V102.896C99.1619 103.088 98.9805 103.28 98.7459 103.472C98.5112 103.664 98.2072 103.829 97.8339 103.968C97.4712 104.096 97.0125 104.16 96.4579 104.16ZM96.6179 103.232C97.1085 103.232 97.5565 103.125 97.9619 102.912C98.3672 102.699 98.6872 102.373 98.9219 101.936C99.1672 101.488 99.2899 100.928 99.2899 100.256V99.712L97.2259 100C96.3512 100.117 95.6899 100.32 95.2419 100.608C94.7939 100.896 94.5699 101.259 94.5699 101.696C94.5699 102.048 94.6712 102.336 94.8739 102.56C95.0765 102.784 95.3325 102.955 95.6419 103.072C95.9619 103.179 96.2872 103.232 96.6179 103.232ZM105.9 107.52C105.217 107.52 104.657 107.429 104.22 107.248C103.793 107.067 103.457 106.843 103.212 106.576C102.977 106.32 102.812 106.059 102.716 105.792C102.62 105.536 102.567 105.328 102.556 105.168C102.545 105.061 102.577 104.971 102.652 104.896C102.727 104.832 102.812 104.8 102.908 104.8H103.132C103.217 104.8 103.292 104.816 103.356 104.848C103.42 104.891 103.473 104.987 103.516 105.136C103.58 105.307 103.681 105.504 103.82 105.728C103.969 105.963 104.199 106.165 104.508 106.336C104.828 106.507 105.265 106.592 105.82 106.592C106.407 106.592 106.897 106.517 107.292 106.368C107.687 106.219 107.985 105.952 108.188 105.568C108.401 105.195 108.508 104.672 108.508 104V102.896C108.241 103.259 107.889 103.563 107.452 103.808C107.025 104.043 106.481 104.16 105.82 104.16C105.201 104.16 104.673 104.048 104.236 103.824C103.809 103.6 103.463 103.301 103.196 102.928C102.929 102.555 102.732 102.139 102.604 101.68C102.476 101.221 102.407 100.757 102.396 100.288C102.385 99.9893 102.385 99.6907 102.396 99.392C102.407 98.9227 102.476 98.4587 102.604 98C102.732 97.5413 102.929 97.1253 103.196 96.752C103.463 96.3787 103.809 96.08 104.236 95.856C104.673 95.632 105.201 95.52 105.82 95.52C106.481 95.52 107.025 95.6427 107.452 95.888C107.889 96.1333 108.241 96.432 108.508 96.784V96.048C108.508 95.9413 108.54 95.856 108.604 95.792C108.668 95.7173 108.753 95.68 108.86 95.68H109.116C109.223 95.68 109.308 95.7173 109.372 95.792C109.447 95.856 109.484 95.9413 109.484 96.048V103.84C109.484 104.523 109.383 105.141 109.18 105.696C108.977 106.251 108.615 106.693 108.092 107.024C107.58 107.355 106.849 107.52 105.9 107.52ZM105.916 103.232C106.524 103.232 107.015 103.088 107.388 102.8C107.761 102.512 108.033 102.155 108.204 101.728C108.385 101.291 108.487 100.853 108.508 100.416C108.519 100.256 108.524 100.064 108.524 99.84C108.524 99.616 108.519 99.424 108.508 99.264C108.487 98.8267 108.385 98.3947 108.204 97.968C108.033 97.5307 107.761 97.168 107.388 96.88C107.015 96.592 106.524 96.448 105.916 96.448C105.297 96.448 104.801 96.5867 104.428 96.864C104.065 97.1413 103.804 97.504 103.644 97.952C103.484 98.4 103.393 98.88 103.372 99.392C103.361 99.6907 103.361 99.9893 103.372 100.288C103.393 100.8 103.484 101.28 103.644 101.728C103.804 102.176 104.065 102.539 104.428 102.816C104.801 103.093 105.297 103.232 105.916 103.232ZM115.181 104.16C114.146 104.16 113.325 103.824 112.717 103.152C112.109 102.469 111.762 101.579 111.677 100.48C111.666 100.32 111.661 100.107 111.661 99.84C111.661 99.5733 111.666 99.36 111.677 99.2C111.73 98.4747 111.901 97.8347 112.189 97.28C112.477 96.7253 112.872 96.2933 113.373 95.984C113.885 95.6747 114.488 95.52 115.181 95.52C115.928 95.52 116.562 95.6853 117.085 96.016C117.608 96.3467 118.008 96.8213 118.285 97.44C118.573 98.0587 118.717 98.7947 118.717 99.648V99.888C118.717 99.9947 118.68 100.08 118.605 100.144C118.541 100.208 118.456 100.24 118.349 100.24H112.653C112.653 100.24 112.653 100.261 112.653 100.304C112.653 100.347 112.653 100.379 112.653 100.4C112.674 100.88 112.786 101.339 112.989 101.776C113.192 102.203 113.48 102.555 113.853 102.832C114.226 103.099 114.669 103.232 115.181 103.232C115.64 103.232 116.018 103.163 116.317 103.024C116.626 102.885 116.872 102.736 117.053 102.576C117.234 102.405 117.352 102.277 117.405 102.192C117.501 102.053 117.576 101.973 117.629 101.952C117.682 101.92 117.768 101.904 117.885 101.904H118.141C118.237 101.904 118.317 101.936 118.381 102C118.456 102.053 118.488 102.128 118.477 102.224C118.466 102.373 118.381 102.56 118.221 102.784C118.072 102.997 117.853 103.211 117.565 103.424C117.288 103.637 116.946 103.813 116.541 103.952C116.136 104.091 115.682 104.16 115.181 104.16ZM112.653 99.344H117.741V99.28C117.741 98.7467 117.64 98.2667 117.437 97.84C117.234 97.4133 116.941 97.0773 116.557 96.832C116.173 96.576 115.714 96.448 115.181 96.448C114.648 96.448 114.189 96.576 113.805 96.832C113.432 97.0773 113.144 97.4133 112.941 97.84C112.749 98.2667 112.653 98.7467 112.653 99.28V99.344ZM126.737 104C126.599 104 126.492 103.968 126.417 103.904C126.343 103.84 126.279 103.739 126.225 103.6L123.969 96.176C123.948 96.112 123.937 96.0533 123.937 96C123.937 95.9147 123.969 95.84 124.033 95.776C124.097 95.712 124.172 95.68 124.257 95.68H124.561C124.668 95.68 124.748 95.712 124.801 95.776C124.865 95.8293 124.903 95.8773 124.913 95.92L126.881 102.576L128.977 96C128.999 95.936 129.041 95.8667 129.105 95.792C129.169 95.7173 129.271 95.68 129.409 95.68H129.729C129.868 95.68 129.969 95.7173 130.033 95.792C130.108 95.8667 130.151 95.936 130.161 96L132.257 102.576L134.225 95.92C134.236 95.8773 134.268 95.8293 134.321 95.776C134.385 95.712 134.471 95.68 134.577 95.68H134.881C134.967 95.68 135.041 95.712 135.105 95.776C135.169 95.84 135.201 95.9147 135.201 96C135.201 96.0533 135.191 96.112 135.169 96.176L132.913 103.6C132.871 103.739 132.812 103.84 132.737 103.904C132.663 103.968 132.551 104 132.401 104H132.129C131.991 104 131.873 103.968 131.777 103.904C131.692 103.84 131.628 103.739 131.585 103.6L129.569 97.296L127.553 103.6C127.511 103.739 127.447 103.84 127.361 103.904C127.276 103.968 127.159 104 127.009 104H126.737ZM137.507 104C137.401 104 137.315 103.968 137.251 103.904C137.187 103.84 137.155 103.755 137.155 103.648V96.032C137.155 95.9253 137.187 95.84 137.251 95.776C137.315 95.712 137.401 95.68 137.507 95.68H137.779C137.886 95.68 137.971 95.712 138.035 95.776C138.099 95.84 138.131 95.9253 138.131 96.032V103.648C138.131 103.755 138.099 103.84 138.035 103.904C137.971 103.968 137.886 104 137.779 104H137.507ZM137.331 93.968C137.225 93.968 137.139 93.936 137.075 93.872C137.011 93.808 136.979 93.7227 136.979 93.616V93.008C136.979 92.9013 137.011 92.816 137.075 92.752C137.139 92.6773 137.225 92.64 137.331 92.64H137.939C138.046 92.64 138.131 92.6773 138.195 92.752C138.27 92.816 138.307 92.9013 138.307 93.008V93.616C138.307 93.7227 138.27 93.808 138.195 93.872C138.131 93.936 138.046 93.968 137.939 93.968H137.331ZM141.086 104C140.979 104 140.894 103.968 140.83 103.904C140.766 103.84 140.734 103.755 140.734 103.648V92.992C140.734 92.8853 140.766 92.8 140.83 92.736C140.894 92.672 140.979 92.64 141.086 92.64H141.358C141.465 92.64 141.55 92.672 141.614 92.736C141.678 92.8 141.71 92.8853 141.71 92.992V103.648C141.71 103.755 141.678 103.84 141.614 103.904C141.55 103.968 141.465 104 141.358 104H141.086ZM144.68 104C144.573 104 144.488 103.968 144.424 103.904C144.36 103.84 144.328 103.755 144.328 103.648V92.992C144.328 92.8853 144.36 92.8 144.424 92.736C144.488 92.672 144.573 92.64 144.68 92.64H144.952C145.058 92.64 145.144 92.672 145.208 92.736C145.272 92.8 145.304 92.8853 145.304 92.992V103.648C145.304 103.755 145.272 103.84 145.208 103.904C145.144 103.968 145.058 104 144.952 104H144.68ZM154.27 104.16C153.758 104.16 153.284 104.053 152.846 103.84C152.42 103.627 152.073 103.344 151.806 102.992C151.54 102.629 151.406 102.224 151.406 101.776C151.406 101.051 151.7 100.469 152.286 100.032C152.873 99.5947 153.636 99.312 154.574 99.184L157.102 98.832V98.272C157.102 97.7067 156.926 97.264 156.574 96.944C156.233 96.6133 155.684 96.448 154.926 96.448C154.372 96.448 153.924 96.56 153.582 96.784C153.241 96.9973 153.006 97.28 152.878 97.632C152.825 97.792 152.724 97.872 152.574 97.872H152.318C152.19 97.872 152.1 97.84 152.046 97.776C151.993 97.7013 151.966 97.616 151.966 97.52C151.966 97.3707 152.02 97.184 152.126 96.96C152.244 96.736 152.42 96.5173 152.654 96.304C152.889 96.08 153.193 95.8933 153.566 95.744C153.94 95.5947 154.393 95.52 154.926 95.52C155.556 95.52 156.073 95.6053 156.478 95.776C156.894 95.9467 157.214 96.1707 157.438 96.448C157.673 96.7147 157.838 97.0133 157.934 97.344C158.03 97.6747 158.078 98 158.078 98.32V103.648C158.078 103.755 158.046 103.84 157.982 103.904C157.918 103.968 157.833 104 157.726 104H157.454C157.348 104 157.262 103.968 157.198 103.904C157.134 103.84 157.102 103.755 157.102 103.648V102.896C156.974 103.088 156.793 103.28 156.558 103.472C156.324 103.664 156.02 103.829 155.646 103.968C155.284 104.096 154.825 104.16 154.27 104.16ZM154.43 103.232C154.921 103.232 155.369 103.125 155.774 102.912C156.18 102.699 156.5 102.373 156.734 101.936C156.98 101.488 157.102 100.928 157.102 100.256V99.712L155.038 100C154.164 100.117 153.502 100.32 153.054 100.608C152.606 100.896 152.382 101.259 152.382 101.696C152.382 102.048 152.484 102.336 152.686 102.56C152.889 102.784 153.145 102.955 153.454 103.072C153.774 103.179 154.1 103.232 154.43 103.232ZM160.977 107.04C160.87 107.04 160.785 107.008 160.721 106.944C160.657 106.88 160.625 106.795 160.625 106.688V96.032C160.625 95.9253 160.657 95.84 160.721 95.776C160.785 95.712 160.87 95.68 160.977 95.68H161.249C161.355 95.68 161.441 95.712 161.505 95.776C161.569 95.84 161.601 95.9253 161.601 96.032V96.784C161.867 96.4213 162.214 96.1227 162.641 95.888C163.078 95.6427 163.627 95.52 164.289 95.52C164.918 95.52 165.446 95.632 165.873 95.856C166.299 96.0693 166.646 96.3573 166.913 96.72C167.179 97.0827 167.377 97.488 167.505 97.936C167.633 98.384 167.702 98.8427 167.713 99.312C167.723 99.472 167.729 99.648 167.729 99.84C167.729 100.032 167.723 100.208 167.713 100.368C167.702 100.837 167.633 101.296 167.505 101.744C167.377 102.192 167.179 102.597 166.913 102.96C166.646 103.323 166.299 103.616 165.873 103.84C165.446 104.053 164.918 104.16 164.289 104.16C163.627 104.16 163.078 104.037 162.641 103.792C162.214 103.547 161.867 103.248 161.601 102.896V106.688C161.601 106.795 161.569 106.88 161.505 106.944C161.441 107.008 161.355 107.04 161.249 107.04H160.977ZM164.193 103.232C164.822 103.232 165.318 103.093 165.681 102.816C166.043 102.539 166.305 102.176 166.465 101.728C166.625 101.28 166.715 100.8 166.737 100.288C166.747 99.9893 166.747 99.6907 166.737 99.392C166.715 98.88 166.625 98.4 166.465 97.952C166.305 97.504 166.043 97.1413 165.681 96.864C165.318 96.5867 164.822 96.448 164.193 96.448C163.585 96.448 163.094 96.592 162.721 96.88C162.347 97.168 162.07 97.5307 161.889 97.968C161.718 98.3947 161.622 98.8267 161.601 99.264C161.59 99.424 161.585 99.632 161.585 99.888C161.585 100.144 161.59 100.352 161.601 100.512C161.611 100.939 161.707 101.36 161.889 101.776C162.081 102.192 162.363 102.539 162.737 102.816C163.121 103.093 163.606 103.232 164.193 103.232ZM170.273 107.04C170.167 107.04 170.081 107.008 170.017 106.944C169.953 106.88 169.921 106.795 169.921 106.688V96.032C169.921 95.9253 169.953 95.84 170.017 95.776C170.081 95.712 170.167 95.68 170.273 95.68H170.545C170.652 95.68 170.737 95.712 170.801 95.776C170.865 95.84 170.897 95.9253 170.897 96.032V96.784C171.164 96.4213 171.511 96.1227 171.937 95.888C172.375 95.6427 172.924 95.52 173.585 95.52C174.215 95.52 174.743 95.632 175.169 95.856C175.596 96.0693 175.943 96.3573 176.209 96.72C176.476 97.0827 176.673 97.488 176.801 97.936C176.929 98.384 176.999 98.8427 177.009 99.312C177.02 99.472 177.025 99.648 177.025 99.84C177.025 100.032 177.02 100.208 177.009 100.368C176.999 100.837 176.929 101.296 176.801 101.744C176.673 102.192 176.476 102.597 176.209 102.96C175.943 103.323 175.596 103.616 175.169 103.84C174.743 104.053 174.215 104.16 173.585 104.16C172.924 104.16 172.375 104.037 171.937 103.792C171.511 103.547 171.164 103.248 170.897 102.896V106.688C170.897 106.795 170.865 106.88 170.801 106.944C170.737 107.008 170.652 107.04 170.545 107.04H170.273ZM173.489 103.232C174.119 103.232 174.615 103.093 174.977 102.816C175.34 102.539 175.601 102.176 175.761 101.728C175.921 101.28 176.012 100.8 176.033 100.288C176.044 99.9893 176.044 99.6907 176.033 99.392C176.012 98.88 175.921 98.4 175.761 97.952C175.601 97.504 175.34 97.1413 174.977 96.864C174.615 96.5867 174.119 96.448 173.489 96.448C172.881 96.448 172.391 96.592 172.017 96.88C171.644 97.168 171.367 97.5307 171.185 97.968C171.015 98.3947 170.919 98.8267 170.897 99.264C170.887 99.424 170.881 99.632 170.881 99.888C170.881 100.144 170.887 100.352 170.897 100.512C170.908 100.939 171.004 101.36 171.185 101.776C171.377 102.192 171.66 102.539 172.033 102.816C172.417 103.093 172.903 103.232 173.489 103.232ZM182.29 104.16C181.256 104.16 180.434 103.824 179.826 103.152C179.218 102.469 178.872 101.579 178.786 100.48C178.776 100.32 178.77 100.107 178.77 99.84C178.77 99.5733 178.776 99.36 178.786 99.2C178.84 98.4747 179.01 97.8347 179.298 97.28C179.586 96.7253 179.981 96.2933 180.482 95.984C180.994 95.6747 181.597 95.52 182.29 95.52C183.037 95.52 183.672 95.6853 184.194 96.016C184.717 96.3467 185.117 96.8213 185.394 97.44C185.682 98.0587 185.826 98.7947 185.826 99.648V99.888C185.826 99.9947 185.789 100.08 185.714 100.144C185.65 100.208 185.565 100.24 185.458 100.24H179.762C179.762 100.24 179.762 100.261 179.762 100.304C179.762 100.347 179.762 100.379 179.762 100.4C179.784 100.88 179.896 101.339 180.098 101.776C180.301 102.203 180.589 102.555 180.962 102.832C181.336 103.099 181.778 103.232 182.29 103.232C182.749 103.232 183.128 103.163 183.426 103.024C183.736 102.885 183.981 102.736 184.162 102.576C184.344 102.405 184.461 102.277 184.514 102.192C184.61 102.053 184.685 101.973 184.738 101.952C184.792 101.92 184.877 101.904 184.994 101.904H185.25C185.346 101.904 185.426 101.936 185.49 102C185.565 102.053 185.597 102.128 185.586 102.224C185.576 102.373 185.49 102.56 185.33 102.784C185.181 102.997 184.962 103.211 184.674 103.424C184.397 103.637 184.056 103.813 183.65 103.952C183.245 104.091 182.792 104.16 182.29 104.16ZM179.762 99.344H184.85V99.28C184.85 98.7467 184.749 98.2667 184.546 97.84C184.344 97.4133 184.05 97.0773 183.666 96.832C183.282 96.576 182.824 96.448 182.29 96.448C181.757 96.448 181.298 96.576 180.914 96.832C180.541 97.0773 180.253 97.4133 180.05 97.84C179.858 98.2667 179.762 98.7467 179.762 99.28V99.344ZM190.177 104.16C189.665 104.16 189.19 104.053 188.753 103.84C188.326 103.627 187.979 103.344 187.713 102.992C187.446 102.629 187.313 102.224 187.313 101.776C187.313 101.051 187.606 100.469 188.193 100.032C188.779 99.5947 189.542 99.312 190.481 99.184L193.009 98.832V98.272C193.009 97.7067 192.833 97.264 192.481 96.944C192.139 96.6133 191.59 96.448 190.833 96.448C190.278 96.448 189.83 96.56 189.489 96.784C189.147 96.9973 188.913 97.28 188.785 97.632C188.731 97.792 188.63 97.872 188.481 97.872H188.225C188.097 97.872 188.006 97.84 187.953 97.776C187.899 97.7013 187.873 97.616 187.873 97.52C187.873 97.3707 187.926 97.184 188.033 96.96C188.15 96.736 188.326 96.5173 188.561 96.304C188.795 96.08 189.099 95.8933 189.473 95.744C189.846 95.5947 190.299 95.52 190.833 95.52C191.462 95.52 191.979 95.6053 192.385 95.776C192.801 95.9467 193.121 96.1707 193.345 96.448C193.579 96.7147 193.745 97.0133 193.841 97.344C193.937 97.6747 193.985 98 193.985 98.32V103.648C193.985 103.755 193.953 103.84 193.889 103.904C193.825 103.968 193.739 104 193.633 104H193.361C193.254 104 193.169 103.968 193.105 103.904C193.041 103.84 193.009 103.755 193.009 103.648V102.896C192.881 103.088 192.699 103.28 192.465 103.472C192.23 103.664 191.926 103.829 191.553 103.968C191.19 104.096 190.731 104.16 190.177 104.16ZM190.337 103.232C190.827 103.232 191.275 103.125 191.681 102.912C192.086 102.699 192.406 102.373 192.641 101.936C192.886 101.488 193.009 100.928 193.009 100.256V99.712L190.945 100C190.07 100.117 189.409 100.32 188.961 100.608C188.513 100.896 188.289 101.259 188.289 101.696C188.289 102.048 188.39 102.336 188.593 102.56C188.795 102.784 189.051 102.955 189.361 103.072C189.681 103.179 190.006 103.232 190.337 103.232ZM196.867 104C196.76 104 196.675 103.968 196.611 103.904C196.547 103.84 196.515 103.755 196.515 103.648V96.048C196.515 95.9413 196.547 95.856 196.611 95.792C196.675 95.7173 196.76 95.68 196.867 95.68H197.123C197.229 95.68 197.315 95.7173 197.379 95.792C197.453 95.856 197.491 95.9413 197.491 96.048V96.784C197.683 96.4107 197.96 96.1333 198.323 95.952C198.685 95.7707 199.133 95.68 199.667 95.68H200.259C200.365 95.68 200.451 95.712 200.515 95.776C200.579 95.84 200.611 95.9253 200.611 96.032V96.256C200.611 96.3627 200.579 96.448 200.515 96.512C200.451 96.576 200.365 96.608 200.259 96.608H199.571C198.931 96.608 198.424 96.7947 198.051 97.168C197.677 97.5413 197.491 98.048 197.491 98.688V103.648C197.491 103.755 197.453 103.84 197.379 103.904C197.315 103.968 197.229 104 197.123 104H196.867ZM208.98 104.16C208.212 104.16 207.566 104 207.044 103.68C206.532 103.36 206.137 102.923 205.86 102.368C205.593 101.813 205.449 101.195 205.428 100.512C205.417 100.352 205.412 100.128 205.412 99.84C205.412 99.552 205.417 99.328 205.428 99.168C205.449 98.4747 205.593 97.856 205.86 97.312C206.137 96.7573 206.532 96.32 207.044 96C207.566 95.68 208.212 95.52 208.98 95.52C209.748 95.52 210.388 95.68 210.9 96C211.422 96.32 211.817 96.7573 212.084 97.312C212.361 97.856 212.51 98.4747 212.532 99.168C212.542 99.328 212.548 99.552 212.548 99.84C212.548 100.128 212.542 100.352 212.532 100.512C212.51 101.195 212.361 101.813 212.084 102.368C211.817 102.923 211.422 103.36 210.9 103.68C210.388 104 209.748 104.16 208.98 104.16ZM208.98 103.232C209.726 103.232 210.334 102.992 210.804 102.512C211.273 102.032 211.524 101.339 211.556 100.432C211.566 100.272 211.572 100.075 211.572 99.84C211.572 99.6053 211.566 99.408 211.556 99.248C211.524 98.3307 211.273 97.6373 210.804 97.168C210.334 96.688 209.726 96.448 208.98 96.448C208.233 96.448 207.625 96.688 207.156 97.168C206.686 97.6373 206.436 98.3307 206.404 99.248C206.393 99.408 206.388 99.6053 206.388 99.84C206.388 100.075 206.393 100.272 206.404 100.432C206.436 101.339 206.686 102.032 207.156 102.512C207.625 102.992 208.233 103.232 208.98 103.232ZM215.086 104C214.979 104 214.894 103.968 214.83 103.904C214.766 103.84 214.734 103.755 214.734 103.648V96.032C214.734 95.9253 214.766 95.84 214.83 95.776C214.894 95.712 214.979 95.68 215.086 95.68H215.358C215.464 95.68 215.55 95.712 215.614 95.776C215.678 95.84 215.71 95.9253 215.71 96.032V96.784C215.998 96.4107 216.344 96.1067 216.75 95.872C217.166 95.6373 217.715 95.52 218.398 95.52C219.123 95.52 219.726 95.68 220.206 96C220.696 96.3093 221.059 96.736 221.294 97.28C221.539 97.8133 221.661 98.4213 221.661 99.104V103.648C221.661 103.755 221.63 103.84 221.566 103.904C221.502 103.968 221.416 104 221.31 104H221.038C220.931 104 220.846 103.968 220.782 103.904C220.718 103.84 220.686 103.755 220.686 103.648V99.184C220.686 98.3307 220.478 97.664 220.062 97.184C219.646 96.6933 219.038 96.448 218.238 96.448C217.48 96.448 216.867 96.6933 216.398 97.184C215.939 97.664 215.71 98.3307 215.71 99.184V103.648C215.71 103.755 215.678 103.84 215.614 103.904C215.55 103.968 215.464 104 215.358 104H215.086ZM230.737 104C230.182 104 229.745 103.883 229.425 103.648C229.105 103.413 228.881 103.093 228.753 102.688C228.625 102.283 228.561 101.829 228.561 101.328V96.608H227.313C227.206 96.608 227.121 96.576 227.057 96.512C226.993 96.448 226.961 96.3627 226.961 96.256V96.032C226.961 95.9253 226.993 95.84 227.057 95.776C227.121 95.712 227.206 95.68 227.313 95.68H228.561V92.992C228.561 92.8853 228.593 92.8 228.657 92.736C228.721 92.672 228.806 92.64 228.913 92.64H229.185C229.291 92.64 229.377 92.672 229.441 92.736C229.505 92.8 229.537 92.8853 229.537 92.992V95.68H231.521C231.627 95.68 231.713 95.712 231.777 95.776C231.841 95.84 231.873 95.9253 231.873 96.032V96.256C231.873 96.3627 231.841 96.448 231.777 96.512C231.713 96.576 231.627 96.608 231.521 96.608H229.537V101.264C229.537 101.829 229.627 102.272 229.809 102.592C230.001 102.912 230.337 103.072 230.817 103.072H231.681C231.787 103.072 231.873 103.104 231.937 103.168C232.001 103.232 232.033 103.317 232.033 103.424V103.648C232.033 103.755 232.001 103.84 231.937 103.904C231.873 103.968 231.787 104 231.681 104H230.737ZM234.055 104C233.948 104 233.863 103.968 233.799 103.904C233.735 103.84 233.703 103.755 233.703 103.648V92.992C233.703 92.8853 233.735 92.8 233.799 92.736C233.863 92.672 233.948 92.64 234.055 92.64H234.327C234.433 92.64 234.519 92.672 234.583 92.736C234.647 92.8 234.679 92.8853 234.679 92.992V96.784C234.967 96.4107 235.313 96.1067 235.719 95.872C236.135 95.6373 236.684 95.52 237.367 95.52C238.092 95.52 238.695 95.68 239.175 96C239.665 96.3093 240.028 96.736 240.263 97.28C240.508 97.8133 240.631 98.4213 240.631 99.104V103.648C240.631 103.755 240.599 103.84 240.535 103.904C240.471 103.968 240.385 104 240.279 104H240.007C239.9 104 239.815 103.968 239.751 103.904C239.687 103.84 239.655 103.755 239.655 103.648V99.184C239.655 98.3307 239.447 97.664 239.031 97.184C238.615 96.6933 238.007 96.448 237.207 96.448C236.449 96.448 235.836 96.6933 235.367 97.184C234.908 97.664 234.679 98.3307 234.679 99.184V103.648C234.679 103.755 234.647 103.84 234.583 103.904C234.519 103.968 234.433 104 234.327 104H234.055ZM243.492 104C243.385 104 243.3 103.968 243.236 103.904C243.172 103.84 243.14 103.755 243.14 103.648V96.032C243.14 95.9253 243.172 95.84 243.236 95.776C243.3 95.712 243.385 95.68 243.492 95.68H243.764C243.87 95.68 243.956 95.712 244.02 95.776C244.084 95.84 244.116 95.9253 244.116 96.032V103.648C244.116 103.755 244.084 103.84 244.02 103.904C243.956 103.968 243.87 104 243.764 104H243.492ZM243.316 93.968C243.209 93.968 243.124 93.936 243.06 93.872C242.996 93.808 242.964 93.7227 242.964 93.616V93.008C242.964 92.9013 242.996 92.816 243.06 92.752C243.124 92.6773 243.209 92.64 243.316 92.64H243.924C244.03 92.64 244.116 92.6773 244.18 92.752C244.254 92.816 244.292 92.9013 244.292 93.008V93.616C244.292 93.7227 244.254 93.808 244.18 93.872C244.116 93.936 244.03 93.968 243.924 93.968H243.316ZM249.342 104.16C248.788 104.16 248.308 104.085 247.902 103.936C247.508 103.787 247.182 103.611 246.926 103.408C246.67 103.195 246.478 102.987 246.35 102.784C246.233 102.581 246.169 102.427 246.158 102.32C246.148 102.203 246.185 102.117 246.27 102.064C246.356 102 246.436 101.968 246.51 101.968H246.75C246.814 101.968 246.868 101.979 246.91 102C246.964 102.021 247.028 102.08 247.102 102.176C247.241 102.357 247.401 102.533 247.582 102.704C247.764 102.864 247.993 102.992 248.27 103.088C248.558 103.184 248.916 103.232 249.342 103.232C249.982 103.232 250.51 103.109 250.926 102.864C251.342 102.619 251.55 102.256 251.55 101.776C251.55 101.477 251.465 101.237 251.294 101.056C251.134 100.875 250.857 100.715 250.462 100.576C250.068 100.437 249.534 100.293 248.862 100.144C248.19 99.984 247.673 99.792 247.31 99.568C246.958 99.344 246.718 99.088 246.59 98.8C246.462 98.5013 246.398 98.1813 246.398 97.84C246.398 97.4667 246.505 97.104 246.718 96.752C246.932 96.3893 247.246 96.096 247.662 95.872C248.089 95.6373 248.622 95.52 249.262 95.52C249.785 95.52 250.228 95.5893 250.59 95.728C250.964 95.8667 251.268 96.0373 251.502 96.24C251.737 96.432 251.908 96.624 252.014 96.816C252.132 97.008 252.196 97.1627 252.206 97.28C252.217 97.3867 252.185 97.472 252.11 97.536C252.036 97.6 251.95 97.632 251.854 97.632H251.614C251.529 97.632 251.46 97.616 251.406 97.584C251.353 97.5413 251.305 97.488 251.262 97.424C251.156 97.2533 251.028 97.0933 250.878 96.944C250.729 96.7947 250.526 96.6773 250.27 96.592C250.025 96.496 249.689 96.448 249.262 96.448C248.622 96.448 248.148 96.5813 247.838 96.848C247.529 97.104 247.374 97.4347 247.374 97.84C247.374 98.0747 247.438 98.2827 247.566 98.464C247.694 98.6347 247.934 98.7947 248.286 98.944C248.638 99.0827 249.15 99.232 249.822 99.392C250.505 99.5413 251.044 99.728 251.438 99.952C251.833 100.165 252.11 100.421 252.27 100.72C252.441 101.019 252.526 101.371 252.526 101.776C252.526 102.203 252.404 102.597 252.158 102.96C251.924 103.323 251.566 103.616 251.086 103.84C250.617 104.053 250.036 104.16 249.342 104.16ZM62.7839 126.16C62.0373 126.16 61.4026 126.016 60.8799 125.728C60.3573 125.429 59.9573 125.003 59.6799 124.448C59.4133 123.893 59.2693 123.237 59.2479 122.48C59.2373 122.32 59.2319 122.107 59.2319 121.84C59.2319 121.573 59.2373 121.36 59.2479 121.2C59.2693 120.432 59.4133 119.776 59.6799 119.232C59.9573 118.677 60.3573 118.256 60.8799 117.968C61.4026 117.669 62.0373 117.52 62.7839 117.52C63.3493 117.52 63.8346 117.6 64.2399 117.76C64.6559 117.909 64.9973 118.112 65.2639 118.368C65.5306 118.613 65.7333 118.885 65.8719 119.184C66.0106 119.483 66.0853 119.776 66.0959 120.064C66.1066 120.171 66.0746 120.256 65.9999 120.32C65.9253 120.384 65.8399 120.416 65.7439 120.416H65.5199C65.4133 120.416 65.3333 120.395 65.2799 120.352C65.2373 120.299 65.1893 120.208 65.1359 120.08C64.9119 119.472 64.6026 119.051 64.2079 118.816C63.8239 118.571 63.3493 118.448 62.7839 118.448C62.0586 118.448 61.4559 118.672 60.9759 119.12C60.5066 119.557 60.2559 120.277 60.2239 121.28C60.2026 121.653 60.2026 122.027 60.2239 122.4C60.2559 123.403 60.5066 124.128 60.9759 124.576C61.4559 125.013 62.0586 125.232 62.7839 125.232C63.3493 125.232 63.8239 125.115 64.2079 124.88C64.6026 124.635 64.9119 124.208 65.1359 123.6C65.1893 123.472 65.2373 123.387 65.2799 123.344C65.3333 123.291 65.4133 123.264 65.5199 123.264H65.7439C65.8399 123.264 65.9253 123.296 65.9999 123.36C66.0746 123.424 66.1066 123.509 66.0959 123.616C66.0853 123.851 66.0373 124.085 65.9519 124.32C65.8666 124.555 65.7333 124.784 65.5519 125.008C65.3813 125.232 65.1679 125.429 64.9119 125.6C64.6559 125.771 64.3466 125.904 63.9839 126C63.6319 126.107 63.2319 126.16 62.7839 126.16ZM68.5781 126C68.4714 126 68.3861 125.968 68.3221 125.904C68.2581 125.84 68.2261 125.755 68.2261 125.648V114.992C68.2261 114.885 68.2581 114.8 68.3221 114.736C68.3861 114.672 68.4714 114.64 68.5781 114.64H68.8501C68.9567 114.64 69.0421 114.672 69.1061 114.736C69.1701 114.8 69.2021 114.885 69.2021 114.992V118.784C69.4901 118.411 69.8367 118.107 70.2421 117.872C70.6581 117.637 71.2074 117.52 71.8901 117.52C72.6154 117.52 73.2181 117.68 73.6981 118C74.1887 118.309 74.5514 118.736 74.7861 119.28C75.0314 119.813 75.1541 120.421 75.1541 121.104V125.648C75.1541 125.755 75.1221 125.84 75.0581 125.904C74.9941 125.968 74.9087 126 74.8021 126H74.5301C74.4234 126 74.3381 125.968 74.2741 125.904C74.2101 125.84 74.1781 125.755 74.1781 125.648V121.184C74.1781 120.331 73.9701 119.664 73.5541 119.184C73.1381 118.693 72.5301 118.448 71.7301 118.448C70.9727 118.448 70.3594 118.693 69.8901 119.184C69.4314 119.664 69.2021 120.331 69.2021 121.184V125.648C69.2021 125.755 69.1701 125.84 69.1061 125.904C69.0421 125.968 68.9567 126 68.8501 126H68.5781ZM79.9032 126.16C79.3912 126.16 78.9165 126.053 78.4792 125.84C78.0525 125.627 77.7059 125.344 77.4392 124.992C77.1725 124.629 77.0392 124.224 77.0392 123.776C77.0392 123.051 77.3325 122.469 77.9192 122.032C78.5059 121.595 79.2685 121.312 80.2072 121.184L82.7352 120.832V120.272C82.7352 119.707 82.5592 119.264 82.2072 118.944C81.8659 118.613 81.3165 118.448 80.5592 118.448C80.0045 118.448 79.5565 118.56 79.2152 118.784C78.8739 118.997 78.6392 119.28 78.5112 119.632C78.4579 119.792 78.3565 119.872 78.2072 119.872H77.9512C77.8232 119.872 77.7325 119.84 77.6792 119.776C77.6259 119.701 77.5992 119.616 77.5992 119.52C77.5992 119.371 77.6525 119.184 77.7592 118.96C77.8765 118.736 78.0525 118.517 78.2872 118.304C78.5219 118.08 78.8259 117.893 79.1992 117.744C79.5725 117.595 80.0259 117.52 80.5592 117.52C81.1885 117.52 81.7059 117.605 82.1112 117.776C82.5272 117.947 82.8472 118.171 83.0712 118.448C83.3059 118.715 83.4712 119.013 83.5672 119.344C83.6632 119.675 83.7112 120 83.7112 120.32V125.648C83.7112 125.755 83.6792 125.84 83.6152 125.904C83.5512 125.968 83.4659 126 83.3592 126H83.0872C82.9805 126 82.8952 125.968 82.8312 125.904C82.7672 125.84 82.7352 125.755 82.7352 125.648V124.896C82.6072 125.088 82.4259 125.28 82.1912 125.472C81.9565 125.664 81.6525 125.829 81.2792 125.968C80.9165 126.096 80.4579 126.16 79.9032 126.16ZM80.0632 125.232C80.5539 125.232 81.0019 125.125 81.4072 124.912C81.8125 124.699 82.1325 124.373 82.3672 123.936C82.6125 123.488 82.7352 122.928 82.7352 122.256V121.712L80.6712 122C79.7965 122.117 79.1352 122.32 78.6872 122.608C78.2392 122.896 78.0152 123.259 78.0152 123.696C78.0152 124.048 78.1165 124.336 78.3192 124.56C78.5219 124.784 78.7779 124.955 79.0872 125.072C79.4072 125.179 79.7325 125.232 80.0632 125.232ZM88.9632 126C88.4085 126 87.9712 125.883 87.6512 125.648C87.3312 125.413 87.1072 125.093 86.9792 124.688C86.8512 124.283 86.7872 123.829 86.7872 123.328V118.608H85.5392C85.4325 118.608 85.3472 118.576 85.2832 118.512C85.2192 118.448 85.1872 118.363 85.1872 118.256V118.032C85.1872 117.925 85.2192 117.84 85.2832 117.776C85.3472 117.712 85.4325 117.68 85.5392 117.68H86.7872V114.992C86.7872 114.885 86.8192 114.8 86.8832 114.736C86.9472 114.672 87.0325 114.64 87.1392 114.64H87.4112C87.5179 114.64 87.6032 114.672 87.6672 114.736C87.7312 114.8 87.7632 114.885 87.7632 114.992V117.68H89.7472C89.8539 117.68 89.9392 117.712 90.0032 117.776C90.0672 117.84 90.0992 117.925 90.0992 118.032V118.256C90.0992 118.363 90.0672 118.448 90.0032 118.512C89.9392 118.576 89.8539 118.608 89.7472 118.608H87.7632V123.264C87.7632 123.829 87.8539 124.272 88.0352 124.592C88.2272 124.912 88.5632 125.072 89.0432 125.072H89.9072C90.0139 125.072 90.0992 125.104 90.1632 125.168C90.2272 125.232 90.2592 125.317 90.2592 125.424V125.648C90.2592 125.755 90.2272 125.84 90.1632 125.904C90.0992 125.968 90.0139 126 89.9072 126H88.9632ZM98.2782 126.16C97.7662 126.16 97.2915 126.053 96.8542 125.84C96.4275 125.627 96.0809 125.344 95.8142 124.992C95.5475 124.629 95.4142 124.224 95.4142 123.776C95.4142 123.051 95.7075 122.469 96.2942 122.032C96.8809 121.595 97.6435 121.312 98.5822 121.184L101.11 120.832V120.272C101.11 119.707 100.934 119.264 100.582 118.944C100.241 118.613 99.6915 118.448 98.9342 118.448C98.3795 118.448 97.9315 118.56 97.5902 118.784C97.2489 118.997 97.0142 119.28 96.8862 119.632C96.8329 119.792 96.7315 119.872 96.5822 119.872H96.3262C96.1982 119.872 96.1075 119.84 96.0542 119.776C96.0009 119.701 95.9742 119.616 95.9742 119.52C95.9742 119.371 96.0275 119.184 96.1342 118.96C96.2515 118.736 96.4275 118.517 96.6622 118.304C96.8969 118.08 97.2009 117.893 97.5742 117.744C97.9475 117.595 98.4009 117.52 98.9342 117.52C99.5635 117.52 100.081 117.605 100.486 117.776C100.902 117.947 101.222 118.171 101.446 118.448C101.681 118.715 101.846 119.013 101.942 119.344C102.038 119.675 102.086 120 102.086 120.32V125.648C102.086 125.755 102.054 125.84 101.99 125.904C101.926 125.968 101.841 126 101.734 126H101.462C101.356 126 101.27 125.968 101.206 125.904C101.142 125.84 101.11 125.755 101.11 125.648V124.896C100.982 125.088 100.801 125.28 100.566 125.472C100.332 125.664 100.028 125.829 99.6542 125.968C99.2915 126.096 98.8329 126.16 98.2782 126.16ZM98.4382 125.232C98.9289 125.232 99.3769 125.125 99.7822 124.912C100.188 124.699 100.508 124.373 100.742 123.936C100.988 123.488 101.11 122.928 101.11 122.256V121.712L99.0462 122C98.1715 122.117 97.5102 122.32 97.0622 122.608C96.6142 122.896 96.3902 123.259 96.3902 123.696C96.3902 124.048 96.4915 124.336 96.6942 124.56C96.8969 124.784 97.1529 124.955 97.4622 125.072C97.7822 125.179 98.1075 125.232 98.4382 125.232ZM105.674 126C105.568 126 105.482 125.968 105.418 125.904C105.354 125.84 105.322 125.755 105.322 125.648V118.608H103.898C103.792 118.608 103.706 118.576 103.642 118.512C103.578 118.448 103.546 118.363 103.546 118.256V118.032C103.546 117.925 103.578 117.84 103.642 117.776C103.706 117.712 103.792 117.68 103.898 117.68H105.322V116.768C105.322 116.288 105.386 115.851 105.514 115.456C105.653 115.061 105.893 114.747 106.234 114.512C106.586 114.277 107.088 114.16 107.738 114.16H108.57C108.677 114.16 108.762 114.192 108.826 114.256C108.89 114.32 108.922 114.405 108.922 114.512V114.736C108.922 114.843 108.89 114.928 108.826 114.992C108.762 115.056 108.677 115.088 108.57 115.088H107.738C107.173 115.088 106.789 115.243 106.586 115.552C106.394 115.851 106.298 116.283 106.298 116.848V117.68H108.41C108.517 117.68 108.602 117.712 108.666 117.776C108.73 117.84 108.762 117.925 108.762 118.032V118.256C108.762 118.363 108.73 118.448 108.666 118.512C108.602 118.576 108.517 118.608 108.41 118.608H106.298V125.648C106.298 125.755 106.266 125.84 106.202 125.904C106.138 125.968 106.053 126 105.946 126H105.674ZM113.104 126C112.549 126 112.112 125.883 111.792 125.648C111.472 125.413 111.248 125.093 111.12 124.688C110.992 124.283 110.928 123.829 110.928 123.328V118.608H109.68C109.573 118.608 109.488 118.576 109.424 118.512C109.36 118.448 109.328 118.363 109.328 118.256V118.032C109.328 117.925 109.36 117.84 109.424 117.776C109.488 117.712 109.573 117.68 109.68 117.68H110.928V114.992C110.928 114.885 110.96 114.8 111.024 114.736C111.088 114.672 111.173 114.64 111.28 114.64H111.552C111.658 114.64 111.744 114.672 111.808 114.736C111.872 114.8 111.904 114.885 111.904 114.992V117.68H113.888C113.994 117.68 114.08 117.712 114.144 117.776C114.208 117.84 114.24 117.925 114.24 118.032V118.256C114.24 118.363 114.208 118.448 114.144 118.512C114.08 118.576 113.994 118.608 113.888 118.608H111.904V123.264C111.904 123.829 111.994 124.272 112.176 124.592C112.368 124.912 112.704 125.072 113.184 125.072H114.048C114.154 125.072 114.24 125.104 114.304 125.168C114.368 125.232 114.4 125.317 114.4 125.424V125.648C114.4 125.755 114.368 125.84 114.304 125.904C114.24 125.968 114.154 126 114.048 126H113.104ZM119.142 126.16C118.107 126.16 117.286 125.824 116.678 125.152C116.07 124.469 115.723 123.579 115.638 122.48C115.627 122.32 115.622 122.107 115.622 121.84C115.622 121.573 115.627 121.36 115.638 121.2C115.691 120.475 115.862 119.835 116.15 119.28C116.438 118.725 116.832 118.293 117.334 117.984C117.846 117.675 118.448 117.52 119.142 117.52C119.888 117.52 120.523 117.685 121.046 118.016C121.568 118.347 121.968 118.821 122.246 119.44C122.534 120.059 122.678 120.795 122.678 121.648V121.888C122.678 121.995 122.64 122.08 122.566 122.144C122.502 122.208 122.416 122.24 122.31 122.24H116.614C116.614 122.24 116.614 122.261 116.614 122.304C116.614 122.347 116.614 122.379 116.614 122.4C116.635 122.88 116.747 123.339 116.95 123.776C117.152 124.203 117.44 124.555 117.814 124.832C118.187 125.099 118.63 125.232 119.142 125.232C119.6 125.232 119.979 125.163 120.278 125.024C120.587 124.885 120.832 124.736 121.014 124.576C121.195 124.405 121.312 124.277 121.366 124.192C121.462 124.053 121.536 123.973 121.59 123.952C121.643 123.92 121.728 123.904 121.846 123.904H122.102C122.198 123.904 122.278 123.936 122.342 124C122.416 124.053 122.448 124.128 122.438 124.224C122.427 124.373 122.342 124.56 122.182 124.784C122.032 124.997 121.814 125.211 121.526 125.424C121.248 125.637 120.907 125.813 120.502 125.952C120.096 126.091 119.643 126.16 119.142 126.16ZM116.614 121.344H121.702V121.28C121.702 120.747 121.6 120.267 121.398 119.84C121.195 119.413 120.902 119.077 120.518 118.832C120.134 118.576 119.675 118.448 119.142 118.448C118.608 118.448 118.15 118.576 117.766 118.832C117.392 119.077 117.104 119.413 116.902 119.84C116.71 120.267 116.614 120.747 116.614 121.28V121.344ZM125.14 126C125.034 126 124.948 125.968 124.884 125.904C124.82 125.84 124.788 125.755 124.788 125.648V118.048C124.788 117.941 124.82 117.856 124.884 117.792C124.948 117.717 125.034 117.68 125.14 117.68H125.396C125.503 117.68 125.588 117.717 125.652 117.792C125.727 117.856 125.764 117.941 125.764 118.048V118.784C125.956 118.411 126.234 118.133 126.596 117.952C126.959 117.771 127.407 117.68 127.94 117.68H128.532C128.639 117.68 128.724 117.712 128.788 117.776C128.852 117.84 128.884 117.925 128.884 118.032V118.256C128.884 118.363 128.852 118.448 128.788 118.512C128.724 118.576 128.639 118.608 128.532 118.608H127.844C127.204 118.608 126.698 118.795 126.324 119.168C125.951 119.541 125.764 120.048 125.764 120.688V125.648C125.764 125.755 125.727 125.84 125.652 125.904C125.588 125.968 125.503 126 125.396 126H125.14ZM136.526 126C135.971 126 135.534 125.883 135.214 125.648C134.894 125.413 134.67 125.093 134.542 124.688C134.414 124.283 134.35 123.829 134.35 123.328V118.608H133.102C132.995 118.608 132.91 118.576 132.846 118.512C132.782 118.448 132.75 118.363 132.75 118.256V118.032C132.75 117.925 132.782 117.84 132.846 117.776C132.91 117.712 132.995 117.68 133.102 117.68H134.35V114.992C134.35 114.885 134.382 114.8 134.446 114.736C134.51 114.672 134.595 114.64 134.702 114.64H134.974C135.08 114.64 135.166 114.672 135.23 114.736C135.294 114.8 135.326 114.885 135.326 114.992V117.68H137.31C137.416 117.68 137.502 117.712 137.566 117.776C137.63 117.84 137.662 117.925 137.662 118.032V118.256C137.662 118.363 137.63 118.448 137.566 118.512C137.502 118.576 137.416 118.608 137.31 118.608H135.326V123.264C135.326 123.829 135.416 124.272 135.598 124.592C135.79 124.912 136.126 125.072 136.606 125.072H137.47C137.576 125.072 137.662 125.104 137.726 125.168C137.79 125.232 137.822 125.317 137.822 125.424V125.648C137.822 125.755 137.79 125.84 137.726 125.904C137.662 125.968 137.576 126 137.47 126H136.526ZM139.844 126C139.737 126 139.652 125.968 139.588 125.904C139.524 125.84 139.492 125.755 139.492 125.648V114.992C139.492 114.885 139.524 114.8 139.588 114.736C139.652 114.672 139.737 114.64 139.844 114.64H140.116C140.222 114.64 140.308 114.672 140.372 114.736C140.436 114.8 140.468 114.885 140.468 114.992V118.784C140.756 118.411 141.102 118.107 141.508 117.872C141.924 117.637 142.473 117.52 143.156 117.52C143.881 117.52 144.484 117.68 144.964 118C145.454 118.309 145.817 118.736 146.052 119.28C146.297 119.813 146.42 120.421 146.42 121.104V125.648C146.42 125.755 146.388 125.84 146.324 125.904C146.26 125.968 146.174 126 146.068 126H145.796C145.689 126 145.604 125.968 145.54 125.904C145.476 125.84 145.444 125.755 145.444 125.648V121.184C145.444 120.331 145.236 119.664 144.82 119.184C144.404 118.693 143.796 118.448 142.996 118.448C142.238 118.448 141.625 118.693 141.156 119.184C140.697 119.664 140.468 120.331 140.468 121.184V125.648C140.468 125.755 140.436 125.84 140.372 125.904C140.308 125.968 140.222 126 140.116 126H139.844ZM152.017 126.16C150.982 126.16 150.161 125.824 149.553 125.152C148.945 124.469 148.598 123.579 148.513 122.48C148.502 122.32 148.497 122.107 148.497 121.84C148.497 121.573 148.502 121.36 148.513 121.2C148.566 120.475 148.737 119.835 149.025 119.28C149.313 118.725 149.707 118.293 150.209 117.984C150.721 117.675 151.323 117.52 152.017 117.52C152.763 117.52 153.398 117.685 153.921 118.016C154.443 118.347 154.843 118.821 155.121 119.44C155.409 120.059 155.553 120.795 155.553 121.648V121.888C155.553 121.995 155.515 122.08 155.441 122.144C155.377 122.208 155.291 122.24 155.185 122.24H149.489C149.489 122.24 149.489 122.261 149.489 122.304C149.489 122.347 149.489 122.379 149.489 122.4C149.51 122.88 149.622 123.339 149.825 123.776C150.027 124.203 150.315 124.555 150.689 124.832C151.062 125.099 151.505 125.232 152.017 125.232C152.475 125.232 152.854 125.163 153.153 125.024C153.462 124.885 153.707 124.736 153.889 124.576C154.07 124.405 154.187 124.277 154.241 124.192C154.337 124.053 154.411 123.973 154.465 123.952C154.518 123.92 154.603 123.904 154.721 123.904H154.977C155.073 123.904 155.153 123.936 155.217 124C155.291 124.053 155.323 124.128 155.313 124.224C155.302 124.373 155.217 124.56 155.057 124.784C154.907 124.997 154.689 125.211 154.401 125.424C154.123 125.637 153.782 125.813 153.377 125.952C152.971 126.091 152.518 126.16 152.017 126.16ZM149.489 121.344H154.577V121.28C154.577 120.747 154.475 120.267 154.273 119.84C154.07 119.413 153.777 119.077 153.393 118.832C153.009 118.576 152.55 118.448 152.017 118.448C151.483 118.448 151.025 118.576 150.641 118.832C150.267 119.077 149.979 119.413 149.777 119.84C149.585 120.267 149.489 120.747 149.489 121.28V121.344ZM158.79 129.04C158.705 129.04 158.63 129.008 158.566 128.944C158.502 128.88 158.47 128.805 158.47 128.72C158.47 128.677 158.475 128.629 158.486 128.576C158.507 128.533 158.534 128.475 158.566 128.4L159.798 125.52L156.742 118.32C156.678 118.16 156.646 118.053 156.646 118C156.646 117.915 156.678 117.84 156.742 117.776C156.806 117.712 156.881 117.68 156.966 117.68H157.302C157.409 117.68 157.489 117.707 157.542 117.76C157.606 117.803 157.649 117.856 157.67 117.92L160.358 124.256L163.11 117.92C163.142 117.856 163.185 117.803 163.238 117.76C163.291 117.707 163.371 117.68 163.478 117.68H163.798C163.883 117.68 163.958 117.712 164.022 117.776C164.086 117.84 164.118 117.915 164.118 118C164.118 118.053 164.086 118.16 164.022 118.32L159.478 128.8C159.446 128.864 159.403 128.917 159.35 128.96C159.297 129.013 159.217 129.04 159.11 129.04H158.79ZM165.85 117.328C165.764 117.328 165.7 117.296 165.658 117.232C165.626 117.168 165.615 117.088 165.626 116.992L165.93 115.072C165.951 114.944 165.988 114.843 166.042 114.768C166.106 114.683 166.202 114.64 166.33 114.64H167.05C167.124 114.64 167.183 114.667 167.226 114.72C167.268 114.773 167.29 114.832 167.29 114.896C167.29 114.992 167.268 115.088 167.226 115.184L166.538 116.992C166.495 117.099 166.442 117.184 166.378 117.248C166.324 117.301 166.239 117.328 166.122 117.328H165.85ZM169.406 126C169.299 126 169.214 125.968 169.15 125.904C169.086 125.84 169.054 125.755 169.054 125.648V118.048C169.054 117.941 169.086 117.856 169.15 117.792C169.214 117.717 169.299 117.68 169.406 117.68H169.662C169.768 117.68 169.854 117.717 169.918 117.792C169.992 117.856 170.03 117.941 170.03 118.048V118.784C170.222 118.411 170.499 118.133 170.862 117.952C171.224 117.771 171.672 117.68 172.206 117.68H172.798C172.904 117.68 172.99 117.712 173.054 117.776C173.118 117.84 173.15 117.925 173.15 118.032V118.256C173.15 118.363 173.118 118.448 173.054 118.512C172.99 118.576 172.904 118.608 172.798 118.608H172.11C171.47 118.608 170.963 118.795 170.59 119.168C170.216 119.541 170.03 120.048 170.03 120.688V125.648C170.03 125.755 169.992 125.84 169.918 125.904C169.854 125.968 169.768 126 169.662 126H169.406ZM177.517 126.16C176.482 126.16 175.661 125.824 175.053 125.152C174.445 124.469 174.098 123.579 174.013 122.48C174.002 122.32 173.997 122.107 173.997 121.84C173.997 121.573 174.002 121.36 174.013 121.2C174.066 120.475 174.237 119.835 174.525 119.28C174.813 118.725 175.207 118.293 175.709 117.984C176.221 117.675 176.823 117.52 177.517 117.52C178.263 117.52 178.898 117.685 179.421 118.016C179.943 118.347 180.343 118.821 180.621 119.44C180.909 120.059 181.053 120.795 181.053 121.648V121.888C181.053 121.995 181.015 122.08 180.941 122.144C180.877 122.208 180.791 122.24 180.685 122.24H174.989C174.989 122.24 174.989 122.261 174.989 122.304C174.989 122.347 174.989 122.379 174.989 122.4C175.01 122.88 175.122 123.339 175.325 123.776C175.527 124.203 175.815 124.555 176.189 124.832C176.562 125.099 177.005 125.232 177.517 125.232C177.975 125.232 178.354 125.163 178.653 125.024C178.962 124.885 179.207 124.736 179.389 124.576C179.57 124.405 179.687 124.277 179.741 124.192C179.837 124.053 179.911 123.973 179.965 123.952C180.018 123.92 180.103 123.904 180.221 123.904H180.477C180.573 123.904 180.653 123.936 180.717 124C180.791 124.053 180.823 124.128 180.813 124.224C180.802 124.373 180.717 124.56 180.557 124.784C180.407 124.997 180.189 125.211 179.901 125.424C179.623 125.637 179.282 125.813 178.877 125.952C178.471 126.091 178.018 126.16 177.517 126.16ZM174.989 121.344H180.077V121.28C180.077 120.747 179.975 120.267 179.773 119.84C179.57 119.413 179.277 119.077 178.893 118.832C178.509 118.576 178.05 118.448 177.517 118.448C176.983 118.448 176.525 118.576 176.141 118.832C175.767 119.077 175.479 119.413 175.277 119.84C175.085 120.267 174.989 120.747 174.989 121.28V121.344ZM189.928 126.16C189.374 126.16 188.894 126.085 188.488 125.936C188.094 125.787 187.768 125.611 187.512 125.408C187.256 125.195 187.064 124.987 186.936 124.784C186.819 124.581 186.755 124.427 186.744 124.32C186.734 124.203 186.771 124.117 186.856 124.064C186.942 124 187.022 123.968 187.096 123.968H187.336C187.4 123.968 187.454 123.979 187.496 124C187.55 124.021 187.614 124.08 187.688 124.176C187.827 124.357 187.987 124.533 188.168 124.704C188.35 124.864 188.579 124.992 188.856 125.088C189.144 125.184 189.502 125.232 189.928 125.232C190.568 125.232 191.096 125.109 191.512 124.864C191.928 124.619 192.136 124.256 192.136 123.776C192.136 123.477 192.051 123.237 191.88 123.056C191.72 122.875 191.443 122.715 191.048 122.576C190.654 122.437 190.12 122.293 189.448 122.144C188.776 121.984 188.259 121.792 187.896 121.568C187.544 121.344 187.304 121.088 187.176 120.8C187.048 120.501 186.984 120.181 186.984 119.84C186.984 119.467 187.091 119.104 187.304 118.752C187.518 118.389 187.832 118.096 188.248 117.872C188.675 117.637 189.208 117.52 189.848 117.52C190.371 117.52 190.814 117.589 191.176 117.728C191.55 117.867 191.854 118.037 192.088 118.24C192.323 118.432 192.494 118.624 192.6 118.816C192.718 119.008 192.782 119.163 192.792 119.28C192.803 119.387 192.771 119.472 192.696 119.536C192.622 119.6 192.536 119.632 192.44 119.632H192.2C192.115 119.632 192.046 119.616 191.992 119.584C191.939 119.541 191.891 119.488 191.848 119.424C191.742 119.253 191.614 119.093 191.464 118.944C191.315 118.795 191.112 118.677 190.856 118.592C190.611 118.496 190.275 118.448 189.848 118.448C189.208 118.448 188.734 118.581 188.424 118.848C188.115 119.104 187.96 119.435 187.96 119.84C187.96 120.075 188.024 120.283 188.152 120.464C188.28 120.635 188.52 120.795 188.872 120.944C189.224 121.083 189.736 121.232 190.408 121.392C191.091 121.541 191.63 121.728 192.024 121.952C192.419 122.165 192.696 122.421 192.856 122.72C193.027 123.019 193.112 123.371 193.112 123.776C193.112 124.203 192.99 124.597 192.744 124.96C192.51 125.323 192.152 125.616 191.672 125.84C191.203 126.053 190.622 126.16 189.928 126.16ZM198.251 126.16C197.217 126.16 196.395 125.824 195.787 125.152C195.179 124.469 194.833 123.579 194.747 122.48C194.737 122.32 194.731 122.107 194.731 121.84C194.731 121.573 194.737 121.36 194.747 121.2C194.801 120.475 194.971 119.835 195.259 119.28C195.547 118.725 195.942 118.293 196.443 117.984C196.955 117.675 197.558 117.52 198.251 117.52C198.998 117.52 199.633 117.685 200.155 118.016C200.678 118.347 201.078 118.821 201.355 119.44C201.643 120.059 201.787 120.795 201.787 121.648V121.888C201.787 121.995 201.75 122.08 201.675 122.144C201.611 122.208 201.526 122.24 201.419 122.24H195.723C195.723 122.24 195.723 122.261 195.723 122.304C195.723 122.347 195.723 122.379 195.723 122.4C195.745 122.88 195.857 123.339 196.059 123.776C196.262 124.203 196.55 124.555 196.923 124.832C197.297 125.099 197.739 125.232 198.251 125.232C198.71 125.232 199.089 125.163 199.387 125.024C199.697 124.885 199.942 124.736 200.123 124.576C200.305 124.405 200.422 124.277 200.475 124.192C200.571 124.053 200.646 123.973 200.699 123.952C200.753 123.92 200.838 123.904 200.955 123.904H201.211C201.307 123.904 201.387 123.936 201.451 124C201.526 124.053 201.558 124.128 201.547 124.224C201.537 124.373 201.451 124.56 201.291 124.784C201.142 124.997 200.923 125.211 200.635 125.424C200.358 125.637 200.017 125.813 199.611 125.952C199.206 126.091 198.753 126.16 198.251 126.16ZM195.723 121.344H200.811V121.28C200.811 120.747 200.71 120.267 200.507 119.84C200.305 119.413 200.011 119.077 199.627 118.832C199.243 118.576 198.785 118.448 198.251 118.448C197.718 118.448 197.259 118.576 196.875 118.832C196.502 119.077 196.214 119.413 196.011 119.84C195.819 120.267 195.723 120.747 195.723 121.28V121.344ZM204.25 126C204.143 126 204.058 125.968 203.994 125.904C203.93 125.84 203.898 125.755 203.898 125.648V118.032C203.898 117.925 203.93 117.84 203.994 117.776C204.058 117.712 204.143 117.68 204.25 117.68H204.522C204.628 117.68 204.714 117.712 204.778 117.776C204.842 117.84 204.874 117.925 204.874 118.032V118.784C205.162 118.411 205.508 118.107 205.914 117.872C206.33 117.637 206.879 117.52 207.562 117.52C208.287 117.52 208.89 117.68 209.37 118C209.86 118.309 210.223 118.736 210.458 119.28C210.703 119.813 210.826 120.421 210.826 121.104V125.648C210.826 125.755 210.794 125.84 210.73 125.904C210.666 125.968 210.58 126 210.474 126H210.202C210.095 126 210.01 125.968 209.946 125.904C209.882 125.84 209.85 125.755 209.85 125.648V121.184C209.85 120.331 209.642 119.664 209.226 119.184C208.81 118.693 208.202 118.448 207.402 118.448C206.644 118.448 206.031 118.693 205.562 119.184C205.103 119.664 204.874 120.331 204.874 121.184V125.648C204.874 125.755 204.842 125.84 204.778 125.904C204.714 125.968 204.628 126 204.522 126H204.25ZM216.01 126C215.455 126 215.018 125.883 214.698 125.648C214.378 125.413 214.154 125.093 214.026 124.688C213.898 124.283 213.834 123.829 213.834 123.328V118.608H212.586C212.479 118.608 212.394 118.576 212.33 118.512C212.266 118.448 212.234 118.363 212.234 118.256V118.032C212.234 117.925 212.266 117.84 212.33 117.776C212.394 117.712 212.479 117.68 212.586 117.68H213.834V114.992C213.834 114.885 213.866 114.8 213.93 114.736C213.994 114.672 214.079 114.64 214.186 114.64H214.458C214.565 114.64 214.65 114.672 214.714 114.736C214.778 114.8 214.81 114.885 214.81 114.992V117.68H216.794C216.901 117.68 216.986 117.712 217.05 117.776C217.114 117.84 217.146 117.925 217.146 118.032V118.256C217.146 118.363 217.114 118.448 217.05 118.512C216.986 118.576 216.901 118.608 216.794 118.608H214.81V123.264C214.81 123.829 214.901 124.272 215.082 124.592C215.274 124.912 215.61 125.072 216.09 125.072H216.954C217.061 125.072 217.146 125.104 217.21 125.168C217.274 125.232 217.306 125.317 217.306 125.424V125.648C217.306 125.755 217.274 125.84 217.21 125.904C217.146 125.968 217.061 126 216.954 126H216.01Z" fill="#707070"/>
</svg>
