<svg width="42" height="42" viewBox="0 0 42 42" fill="none" xmlns="http://www.w3.org/2000/svg">
<rect x="0.25" y="0.25" width="41.5" height="41.5" rx="5.75" fill="white"/>
<rect x="0.25" y="0.25" width="41.5" height="41.5" rx="5.75" stroke="#EAEAEA" stroke-width="0.5"/>
<path d="M13.0001 24.5C11.8956 24.5 11.0001 23.6046 11.0001 22.5C11.0001 21.3954 11.8956 20.5 13.0001 20.5" stroke="#292929" stroke-width="1.5" stroke-linecap="round" stroke-linejoin="round"/>
<path d="M29.0001 24.5C30.1047 24.5 31.0001 23.6046 31.0001 22.5C31.0001 21.3954 30.1047 20.5 29.0001 20.5" stroke="#292929" stroke-width="1.5" stroke-linecap="round" stroke-linejoin="round"/>
<path d="M15.9999 16V13" stroke="#292929" stroke-width="1.5" stroke-linejoin="round"/>
<path d="M26.0001 16V13" stroke="#292929" stroke-width="1.5" stroke-linejoin="round"/>
<path d="M16 12.9998C16.5523 12.9998 17 12.5521 17 11.9998C17 11.4475 16.5523 10.9998 16 10.9998C15.4477 10.9998 15 11.4475 15 11.9998C15 12.5521 15.4477 12.9998 16 12.9998Z" stroke="#292929" stroke-width="1.5" stroke-linejoin="round"/>
<path d="M25.9999 12.9998C26.5522 12.9998 26.9999 12.5521 26.9999 11.9998C26.9999 11.4475 26.5522 10.9998 25.9999 10.9998C25.4476 10.9998 24.9999 11.4475 24.9999 11.9998C24.9999 12.5521 25.4476 12.9998 25.9999 12.9998Z" stroke="#292929" stroke-width="1.5" stroke-linejoin="round"/>
<path d="M22.5 16H19.5C16.6716 16 15.2574 16 14.3787 16.9089C13.5 17.8179 13.5 19.2809 13.5 22.2069C13.5 25.1329 13.5 26.5958 14.3787 27.5048C15.2574 28.4138 16.6716 28.4138 19.5 28.4138H20.5253C21.3169 28.4138 21.5962 28.5773 22.1417 29.1713C22.745 29.8283 23.6791 30.705 24.5242 30.9091C25.7254 31.1994 25.8599 30.7979 25.5919 29.6531C25.5156 29.327 25.3252 28.8056 25.526 28.5018C25.6385 28.3316 25.8259 28.2898 26.2008 28.2061C26.7922 28.074 27.2798 27.8581 27.6213 27.5048C28.5 26.5958 28.5 25.1329 28.5 22.2069C28.5 19.2809 28.5 17.8179 27.6213 16.9089C26.7426 16 25.3284 16 22.5 16Z" stroke="#292929" stroke-width="1.5" stroke-linejoin="round"/>
<path d="M18.5001 23.9999C19.0702 24.6071 19.9778 24.9999 21.0001 24.9999C22.0224 24.9999 22.93 24.6071 23.5001 23.9999" stroke="#292929" stroke-width="1.5" stroke-linecap="round" stroke-linejoin="round"/>
<path d="M18.009 19.9998H18" stroke="#292929" stroke-width="1.5" stroke-linecap="round" stroke-linejoin="round"/>
<path d="M24.009 19.9998H24" stroke="#292929" stroke-width="1.5" stroke-linecap="round" stroke-linejoin="round"/>
</svg>
