<svg width="28" height="28" viewBox="0 0 28 28" fill="none" xmlns="http://www.w3.org/2000/svg">
<path d="M25.9998 6.44345V27.9999H2.61304V0H19.5564L22.5576 3.0012L25.9998 6.44345Z" fill="#B12A27"/>
<path d="M13.2153 1.87549H1.99902V6.89405H13.2153V1.87549Z" fill="#F2F2F2"/>
<path d="M6.01483 3.52074C5.96534 3.40119 5.89938 3.294 5.80871 3.20333C5.71804 3.11266 5.6067 3.03845 5.47889 2.98896C5.34699 2.93536 5.19856 2.91064 5.03368 2.91064H3.80103V6.09318H4.42353V4.8935H5.03368C5.19856 4.8935 5.34699 4.86879 5.47889 4.81519C5.6067 4.7657 5.71799 4.69154 5.80871 4.60082C5.89944 4.51014 5.96539 4.40706 6.01483 4.28341C6.06017 4.16386 6.08494 4.03606 6.08494 3.90415C6.08488 3.76809 6.06017 3.64029 6.01483 3.52074ZM5.34283 4.2174C5.26036 4.29571 5.14497 4.33695 5.00481 4.33695H4.42353V3.46299H5.00481C5.14497 3.46299 5.26042 3.50422 5.34283 3.58664C5.42114 3.66495 5.46238 3.77214 5.46238 3.90404C5.46243 4.0319 5.4212 4.13909 5.34283 4.2174Z" fill="#B12A27"/>
<path d="M8.99124 4.14325C8.98714 4.03196 8.98299 3.93303 8.97063 3.8423C8.95827 3.75157 8.93765 3.66916 8.90878 3.59085C8.8799 3.51664 8.84282 3.44243 8.79333 3.37647C8.68204 3.21569 8.54598 3.09614 8.39346 3.02193C8.23678 2.94772 8.05128 2.91064 7.8328 2.91064H6.68677V6.09318H7.8328C8.05128 6.09318 8.23678 6.05611 8.39346 5.98189C8.54598 5.90768 8.68204 5.78814 8.79333 5.62736C8.84282 5.5614 8.8799 5.48719 8.90878 5.41298C8.93765 5.33467 8.95827 5.2522 8.97063 5.16153C8.98299 5.07086 8.98709 4.97187 8.99124 4.86058C8.99535 4.75339 8.99535 4.63385 8.99535 4.50194C8.99535 4.37004 8.99535 4.25043 8.99124 4.14325ZM8.36874 4.8235C8.36874 4.91833 8.36048 4.99254 8.35222 5.0585C8.34396 5.12035 8.3316 5.17804 8.31514 5.21928C8.29868 5.26461 8.27391 5.30585 8.24509 5.34293C8.142 5.47483 7.98538 5.53668 7.77926 5.53668H7.30517V3.46304H7.77926C7.98538 3.46304 8.14206 3.529 8.24509 3.6609C8.27396 3.69798 8.29868 3.73511 8.31514 3.78045C8.3316 3.82579 8.34402 3.87938 8.35222 3.94533C8.36048 4.00718 8.36874 4.0855 8.36874 4.17617C8.37284 4.26689 8.37284 4.37818 8.37284 4.50183C8.37289 4.62559 8.37289 4.73278 8.36874 4.8235Z" fill="#B12A27"/>
<path d="M11.6501 3.46304V2.91064H9.55176V6.09318H10.1743V4.80289H11.4316V4.24633H10.1743V3.46304H11.6501Z" fill="#B12A27"/>
<path d="M6.01483 3.52074C5.96534 3.40119 5.89938 3.294 5.80871 3.20333C5.71804 3.11266 5.6067 3.03845 5.47889 2.98896C5.34699 2.93536 5.19856 2.91064 5.03368 2.91064H3.80103V6.09318H4.42353V4.8935H5.03368C5.19856 4.8935 5.34699 4.86879 5.47889 4.81519C5.6067 4.7657 5.71799 4.69154 5.80871 4.60082C5.89944 4.51014 5.96539 4.40706 6.01483 4.28341C6.06017 4.16386 6.08494 4.03606 6.08494 3.90415C6.08488 3.76809 6.06017 3.64029 6.01483 3.52074ZM5.34283 4.2174C5.26036 4.29571 5.14497 4.33695 5.00481 4.33695H4.42353V3.46299H5.00481C5.14497 3.46299 5.26042 3.50422 5.34283 3.58664C5.42114 3.66495 5.46238 3.77214 5.46238 3.90404C5.46243 4.0319 5.4212 4.13909 5.34283 4.2174Z" fill="#B12A27"/>
<path opacity="0.08" d="M25.9998 6.44347V27.9999H2.61304V22.9458L13.5458 12.013L14.1931 11.3657L14.5517 11.007L15.1495 10.4093L15.8586 9.70022L22.5576 3.00122L25.9998 6.44347Z" fill="#040000"/>
<path d="M25.9996 6.44416H19.5554V0L25.9996 6.44416Z" fill="#771B1B"/>
<path d="M22.6615 20.2705C22.5254 20.0314 22.3399 19.8047 22.1091 19.5985C21.9195 19.4254 21.6969 19.2646 21.4454 19.1162C20.4312 18.5185 18.9842 18.2299 17.0178 18.2299H16.8199C16.7127 18.1309 16.6015 18.032 16.486 17.9289C15.7399 17.257 15.1462 16.5273 14.6845 15.7152C15.5914 13.7157 16.0243 11.9348 15.9707 10.4178C15.9624 10.1622 15.9254 9.92306 15.8594 9.70043C15.7605 9.34179 15.5956 9.02433 15.3647 8.76461C15.3606 8.76051 15.3606 8.76051 15.3564 8.75636C14.9895 8.34412 14.4784 8.10913 13.9589 8.10913C13.4353 8.10913 12.953 8.33586 12.6026 8.75226C12.2563 9.16449 12.0708 9.7293 12.0626 10.393C12.0502 11.4071 12.1326 12.3676 12.3058 13.254C12.3223 13.3241 12.3347 13.3941 12.3511 13.4642C12.5243 14.2681 12.7799 15.0307 13.1097 15.7398C12.7221 16.5272 12.3305 17.2074 12.0584 17.6691C11.8523 18.0195 11.6256 18.3864 11.3906 18.7533C10.3311 18.943 9.43237 19.1738 8.64913 19.4624C7.58967 19.8458 6.74043 20.3405 6.13028 20.93C5.73451 21.3093 5.46654 21.7133 5.33463 22.1338C5.19447 22.5666 5.20273 22.9995 5.35935 23.387C5.50362 23.7457 5.76333 24.0466 6.10966 24.2527C6.19213 24.3022 6.2787 24.3434 6.36937 24.3805C6.63324 24.4877 6.92177 24.5454 7.22272 24.5454C7.91944 24.5454 8.63672 24.2445 9.24271 23.7044C10.3723 22.6944 11.5389 21.0702 12.2274 20.0436C12.7921 19.9571 13.4064 19.8829 14.099 19.8086C14.9153 19.7262 15.6367 19.6767 16.2922 19.652C16.4942 19.8334 16.688 20.0065 16.8735 20.1714C17.9041 21.0907 18.6874 21.7544 19.3964 22.2203C19.3964 22.2244 19.4005 22.2244 19.4047 22.2244C19.685 22.4099 19.953 22.5624 20.221 22.6861C20.5219 22.8262 20.8269 22.9005 21.1402 22.9005C21.536 22.9005 21.907 22.7809 22.2162 22.5624C22.5295 22.3357 22.7563 22.01 22.8594 21.6431C22.9789 21.2021 22.9088 20.7116 22.6615 20.2705ZM13.5467 12.0132C13.489 11.5019 13.4642 10.9702 13.4725 10.4095C13.4807 9.87772 13.6745 9.51903 13.9589 9.51903C14.1733 9.51903 14.4 9.71279 14.503 10.0838C14.5319 10.1951 14.5525 10.3229 14.5566 10.4671C14.5649 10.6403 14.5607 10.8217 14.5525 11.0072C14.5278 11.5308 14.4371 12.0873 14.2805 12.6851C14.1856 13.0685 14.062 13.4683 13.9095 13.8847C13.7363 13.2994 13.6126 12.6768 13.5467 12.0132ZM6.67037 22.8635C6.60026 22.6903 6.67863 22.3564 7.10738 21.9442C7.76287 21.3176 8.78935 20.8229 10.2199 20.4477C9.9478 20.8187 9.67983 21.1568 9.42012 21.466C9.02434 21.9441 8.64508 22.3482 8.3029 22.6532C8.01022 22.917 7.68865 23.082 7.38361 23.1232C7.33001 23.1315 7.27642 23.1356 7.22283 23.1356C6.9548 23.1356 6.73633 23.0284 6.67037 22.8635ZM13.2581 18.4813L13.287 18.436L13.2416 18.4442C13.2499 18.4236 13.2622 18.403 13.2746 18.3866C13.4477 18.0939 13.6662 17.7187 13.9012 17.2859L13.9218 17.3312L13.9754 17.2199C14.1486 17.4673 14.3382 17.7105 14.5361 17.9454C14.6309 18.0567 14.7298 18.1639 14.8288 18.2711L14.7628 18.2752L14.8205 18.3288C14.6515 18.3412 14.4742 18.3577 14.2969 18.3741C14.1856 18.3865 14.0702 18.3948 13.9547 18.4071C13.7157 18.4318 13.4807 18.4566 13.2581 18.4813ZM20.1962 21.0537C19.7056 20.7404 19.1574 20.2993 18.4813 19.7098C19.4418 19.8087 20.1962 20.019 20.7322 20.3323C20.9672 20.4683 21.1444 20.6085 21.264 20.7445C21.4618 20.9547 21.5319 21.1444 21.4948 21.2722C21.4618 21.4 21.3175 21.4866 21.1402 21.4866C21.0372 21.4866 20.93 21.4619 20.8187 21.4083C20.629 21.3176 20.4312 21.2062 20.221 21.0702C20.2127 21.0702 20.2045 21.062 20.1962 21.0537Z" fill="#F2F2F2"/>
</svg>
