<svg width="28" height="28" viewBox="0 0 28 28" fill="none" xmlns="http://www.w3.org/2000/svg">
<rect width="28" height="28" rx="14" fill="#F1F1F1"/>
<path d="M14.5126 11.093L17.2967 11.8348M13.9157 13.3078L15.3078 13.6787M13.985 17.4804L14.5418 17.6288C16.1168 18.0484 16.9043 18.2582 17.5247 17.9021C18.145 17.5459 18.3561 16.7628 18.7781 15.1967L19.3749 12.9819C19.7969 11.4158 20.0079 10.6328 19.6497 10.0159C19.2916 9.399 18.5041 9.18918 16.9291 8.76955L16.3722 8.62118C14.7973 8.20154 14.0098 7.99173 13.3894 8.34789C12.769 8.70405 12.558 9.4871 12.136 11.0532L11.5392 13.268C11.1171 14.8341 10.9061 15.6171 11.2643 16.234C11.6225 16.8509 12.41 17.0608 13.985 17.4804Z" stroke="#292929" stroke-width="0.875" stroke-linecap="round"/>
<path d="M14.0013 19.2187L13.4458 19.37C11.8745 19.7979 11.0888 20.0118 10.4699 19.6486C9.85099 19.2855 9.64047 18.4871 9.21945 16.8903L8.62403 14.632C8.20301 13.0352 7.99249 12.2368 8.34984 11.6078C8.65894 11.0637 9.33464 11.0835 10.2096 11.0835" stroke="#292929" stroke-width="0.875" stroke-linecap="round"/>
</svg>
