<svg width="18" height="18" viewBox="0 0 18 18" fill="none" xmlns="http://www.w3.org/2000/svg">
<path d="M2.25 15.75L6 12" stroke="#292929" stroke-width="1.125" stroke-linecap="round" stroke-linejoin="round"/>
<path d="M9.94387 14.1536C7.13637 13.5161 4.48383 10.8636 3.8464 8.05613C3.74549 7.61168 3.69504 7.3895 3.84121 7.02898C3.98737 6.66847 4.16593 6.55691 4.52303 6.33382C5.33029 5.82949 6.2044 5.66916 7.11157 5.7494C8.38447 5.86199 9.02092 5.91828 9.3384 5.75286C9.65595 5.58743 9.87165 5.20063 10.3032 4.42702L10.8498 3.44703C11.2099 2.80146 11.3899 2.47868 11.8135 2.32652C12.237 2.17435 12.4918 2.26649 13.0016 2.45078C14.1937 2.88177 15.1182 3.80629 15.5492 4.99837C15.7335 5.50813 15.8257 5.76301 15.6735 6.18653C15.5213 6.61005 15.1985 6.7901 14.5529 7.15019L13.5504 7.7094C12.7782 8.14005 12.3922 8.35545 12.2268 8.676C12.0614 8.99663 12.1215 9.6192 12.2416 10.8644C12.3299 11.7801 12.1777 12.66 11.6666 13.4773C11.4433 13.8344 11.3316 14.0129 10.9712 14.159C10.6108 14.305 10.3885 14.2545 9.94387 14.1536Z" stroke="#292929" stroke-width="1.125" stroke-linecap="round" stroke-linejoin="round"/>
</svg>
