<svg width="340" height="20" viewBox="0 0 340 20" fill="none" xmlns="http://www.w3.org/2000/svg">
<path d="M18.25 16.75L22 13" stroke="#9D9D9D" stroke-width="1.125" stroke-linecap="round" stroke-linejoin="round"/>
<path d="M25.9439 15.1536C23.1364 14.5161 20.4838 11.8636 19.8464 9.05613C19.7455 8.61168 19.695 8.3895 19.8412 8.02898C19.9874 7.66847 20.1659 7.55691 20.523 7.33382C21.3303 6.82949 22.2044 6.66916 23.1116 6.7494C24.3845 6.86199 25.0209 6.91828 25.3384 6.75286C25.6559 6.58743 25.8716 6.20063 26.3032 5.42702L26.8498 4.44703C27.2099 3.80146 27.3899 3.47868 27.8135 3.32652C28.237 3.17435 28.4918 3.26649 29.0016 3.45078C30.1937 3.88177 31.1182 4.80629 31.5492 5.99837C31.7335 6.50813 31.8257 6.76301 31.6735 7.18653C31.5213 7.61005 31.1985 7.7901 30.5529 8.15019L29.5504 8.7094C28.7782 9.14005 28.3922 9.35545 28.2268 9.676C28.0614 9.99663 28.1215 10.6192 28.2416 11.8644C28.3299 12.7801 28.1777 13.66 27.6666 14.4773C27.4433 14.8344 27.3316 15.0129 26.9712 15.1589C26.6108 15.305 26.3885 15.2545 25.9439 15.1536Z" fill="#9D9D9D"/>
<path d="M41.54 15C41.4373 15 41.358 14.972 41.302 14.916C41.246 14.8507 41.218 14.7713 41.218 14.678V5.536C41.218 5.43333 41.246 5.354 41.302 5.298C41.358 5.23267 41.4373 5.2 41.54 5.2H45.096C45.7867 5.2 46.384 5.312 46.888 5.536C47.4013 5.76 47.798 6.096 48.078 6.544C48.358 6.98267 48.498 7.53333 48.498 8.196C48.498 8.85867 48.358 9.40933 48.078 9.848C47.798 10.2867 47.4013 10.618 46.888 10.842C46.384 11.066 45.7867 11.178 45.096 11.178H42.618V14.678C42.618 14.7713 42.5853 14.8507 42.52 14.916C42.464 14.972 42.3847 15 42.282 15H41.54ZM42.604 10.002H45.026C45.7167 10.002 46.2347 9.848 46.58 9.54C46.9253 9.232 47.098 8.784 47.098 8.196C47.098 7.61733 46.93 7.16933 46.594 6.852C46.258 6.53467 45.7353 6.376 45.026 6.376H42.604V10.002ZM50.3404 15C50.2471 15 50.1678 14.972 50.1024 14.916C50.0464 14.8507 50.0184 14.7713 50.0184 14.678V8.042C50.0184 7.94867 50.0464 7.874 50.1024 7.818C50.1678 7.75267 50.2471 7.72 50.3404 7.72H51.0124C51.1058 7.72 51.1804 7.75267 51.2364 7.818C51.2924 7.874 51.3204 7.94867 51.3204 8.042V14.678C51.3204 14.7713 51.2924 14.8507 51.2364 14.916C51.1804 14.972 51.1058 15 51.0124 15H50.3404ZM50.2284 6.362C50.1351 6.362 50.0558 6.334 49.9904 6.278C49.9344 6.21267 49.9064 6.13333 49.9064 6.04V5.284C49.9064 5.19067 49.9344 5.116 49.9904 5.06C50.0558 4.99467 50.1351 4.962 50.2284 4.962H51.1104C51.2038 4.962 51.2784 4.99467 51.3344 5.06C51.3998 5.116 51.4324 5.19067 51.4324 5.284V6.04C51.4324 6.13333 51.3998 6.21267 51.3344 6.278C51.2784 6.334 51.2038 6.362 51.1104 6.362H50.2284ZM53.731 15C53.6377 15 53.5584 14.972 53.493 14.916C53.437 14.8507 53.409 14.7713 53.409 14.678V8.042C53.409 7.94867 53.437 7.874 53.493 7.818C53.5584 7.75267 53.6377 7.72 53.731 7.72H54.389C54.4824 7.72 54.557 7.75267 54.613 7.818C54.6784 7.874 54.711 7.94867 54.711 8.042V8.658C54.9537 8.34067 55.257 8.084 55.621 7.888C55.9944 7.68267 56.4704 7.58 57.049 7.58C57.6557 7.58 58.169 7.71533 58.589 7.986C59.0184 8.24733 59.3404 8.616 59.555 9.092C59.7697 9.55867 59.877 10.1047 59.877 10.73V14.678C59.877 14.7713 59.849 14.8507 59.793 14.916C59.737 14.972 59.6624 15 59.569 15H58.869C58.7757 15 58.6964 14.972 58.631 14.916C58.575 14.8507 58.547 14.7713 58.547 14.678V10.8C58.547 10.1467 58.3884 9.638 58.071 9.274C57.7537 8.90067 57.287 8.714 56.671 8.714C56.0924 8.714 55.6257 8.90067 55.271 9.274C54.9257 9.638 54.753 10.1467 54.753 10.8V14.678C54.753 14.7713 54.7204 14.8507 54.655 14.916C54.599 14.972 54.5244 15 54.431 15H53.731ZM62.2213 15C62.1279 15 62.0486 14.972 61.9833 14.916C61.9273 14.8507 61.8993 14.7713 61.8993 14.678V8.042C61.8993 7.94867 61.9273 7.874 61.9833 7.818C62.0486 7.75267 62.1279 7.72 62.2213 7.72H62.8793C62.9726 7.72 63.0473 7.75267 63.1033 7.818C63.1686 7.874 63.2013 7.94867 63.2013 8.042V8.658C63.4439 8.34067 63.7473 8.084 64.1113 7.888C64.4846 7.68267 64.9606 7.58 65.5393 7.58C66.1459 7.58 66.6593 7.71533 67.0793 7.986C67.5086 8.24733 67.8306 8.616 68.0453 9.092C68.2599 9.55867 68.3673 10.1047 68.3673 10.73V14.678C68.3673 14.7713 68.3393 14.8507 68.2833 14.916C68.2273 14.972 68.1526 15 68.0593 15H67.3593C67.2659 15 67.1866 14.972 67.1213 14.916C67.0653 14.8507 67.0373 14.7713 67.0373 14.678V10.8C67.0373 10.1467 66.8786 9.638 66.5613 9.274C66.2439 8.90067 65.7773 8.714 65.1613 8.714C64.5826 8.714 64.1159 8.90067 63.7613 9.274C63.4159 9.638 63.2433 10.1467 63.2433 10.8V14.678C63.2433 14.7713 63.2106 14.8507 63.1453 14.916C63.0893 14.972 63.0146 15 62.9213 15H62.2213ZM73.2875 15.14C72.3262 15.14 71.5608 14.846 70.9915 14.258C70.4222 13.6607 70.1095 12.8487 70.0535 11.822C70.0442 11.7007 70.0395 11.5467 70.0395 11.36C70.0395 11.164 70.0442 11.0053 70.0535 10.884C70.0908 10.2213 70.2448 9.64267 70.5155 9.148C70.7862 8.644 71.1548 8.25667 71.6215 7.986C72.0975 7.71533 72.6528 7.58 73.2875 7.58C73.9968 7.58 74.5895 7.72933 75.0655 8.028C75.5508 8.32667 75.9195 8.75133 76.1715 9.302C76.4235 9.85267 76.5495 10.4967 76.5495 11.234V11.472C76.5495 11.5747 76.5168 11.654 76.4515 11.71C76.3955 11.766 76.3208 11.794 76.2275 11.794H71.3835C71.3835 11.8033 71.3835 11.822 71.3835 11.85C71.3835 11.878 71.3835 11.9013 71.3835 11.92C71.4022 12.3027 71.4862 12.662 71.6355 12.998C71.7848 13.3247 71.9995 13.5907 72.2795 13.796C72.5595 14.0013 72.8955 14.104 73.2875 14.104C73.6235 14.104 73.9035 14.0527 74.1275 13.95C74.3515 13.8473 74.5335 13.7353 74.6735 13.614C74.8135 13.4833 74.9068 13.3853 74.9535 13.32C75.0375 13.1987 75.1028 13.1287 75.1495 13.11C75.1962 13.082 75.2708 13.068 75.3735 13.068H76.0455C76.1388 13.068 76.2135 13.096 76.2695 13.152C76.3348 13.1987 76.3628 13.2687 76.3535 13.362C76.3442 13.502 76.2695 13.6747 76.1295 13.88C75.9895 14.076 75.7888 14.272 75.5275 14.468C75.2662 14.664 74.9488 14.8273 74.5755 14.958C74.2022 15.0793 73.7728 15.14 73.2875 15.14ZM71.3835 10.828H75.2195V10.786C75.2195 10.366 75.1402 9.99267 74.9815 9.666C74.8322 9.33933 74.6128 9.08267 74.3235 8.896C74.0342 8.7 73.6888 8.602 73.2875 8.602C72.8862 8.602 72.5408 8.7 72.2515 8.896C71.9715 9.08267 71.7568 9.33933 71.6075 9.666C71.4582 9.99267 71.3835 10.366 71.3835 10.786V10.828ZM80.8835 15.14C80.3702 15.14 79.9268 15.0513 79.5535 14.874C79.1802 14.6873 78.8722 14.44 78.6295 14.132C78.3962 13.8147 78.2188 13.4553 78.0975 13.054C77.9855 12.6527 77.9202 12.228 77.9015 11.78C77.8922 11.6307 77.8875 11.4907 77.8875 11.36C77.8875 11.2293 77.8922 11.0893 77.9015 10.94C77.9202 10.5013 77.9855 10.0813 78.0975 9.68C78.2188 9.27867 78.3962 8.91933 78.6295 8.602C78.8722 8.28467 79.1802 8.03733 79.5535 7.86C79.9268 7.67333 80.3702 7.58 80.8835 7.58C81.4342 7.58 81.8915 7.678 82.2555 7.874C82.6195 8.07 82.9182 8.31267 83.1515 8.602V5.382C83.1515 5.28867 83.1795 5.214 83.2355 5.158C83.3008 5.09267 83.3802 5.06 83.4735 5.06H84.1455C84.2388 5.06 84.3135 5.09267 84.3695 5.158C84.4348 5.214 84.4675 5.28867 84.4675 5.382V14.678C84.4675 14.7713 84.4348 14.8507 84.3695 14.916C84.3135 14.972 84.2388 15 84.1455 15H83.5155C83.4128 15 83.3335 14.972 83.2775 14.916C83.2215 14.8507 83.1935 14.7713 83.1935 14.678V14.09C82.9602 14.3887 82.6568 14.6407 82.2835 14.846C81.9102 15.042 81.4435 15.14 80.8835 15.14ZM81.1775 14.006C81.6442 14.006 82.0175 13.8987 82.2975 13.684C82.5775 13.4693 82.7875 13.1987 82.9275 12.872C83.0675 12.536 83.1422 12.1953 83.1515 11.85C83.1608 11.7007 83.1655 11.5233 83.1655 11.318C83.1655 11.1033 83.1608 10.9213 83.1515 10.772C83.1422 10.4453 83.0628 10.1233 82.9135 9.806C82.7735 9.48867 82.5588 9.22733 82.2695 9.022C81.9895 8.81667 81.6255 8.714 81.1775 8.714C80.7015 8.714 80.3235 8.82133 80.0435 9.036C79.7635 9.24133 79.5628 9.51667 79.4415 9.862C79.3202 10.198 79.2502 10.562 79.2315 10.954C79.2222 11.2247 79.2222 11.4953 79.2315 11.766C79.2502 12.158 79.3202 12.5267 79.4415 12.872C79.5628 13.208 79.7635 13.4833 80.0435 13.698C80.3235 13.9033 80.7015 14.006 81.1775 14.006ZM90.4853 15C90.392 15 90.3126 14.972 90.2473 14.916C90.1913 14.8507 90.1633 14.7713 90.1633 14.678V5.536C90.1633 5.43333 90.1913 5.354 90.2473 5.298C90.3126 5.23267 90.392 5.2 90.4853 5.2H91.1853C91.2973 5.2 91.3813 5.228 91.4373 5.284C91.4933 5.34 91.526 5.38667 91.5353 5.424L94.5033 11.08L97.4853 5.424C97.504 5.38667 97.5366 5.34 97.5833 5.284C97.6393 5.228 97.7233 5.2 97.8353 5.2H98.5213C98.624 5.2 98.7033 5.23267 98.7593 5.298C98.8246 5.354 98.8573 5.43333 98.8573 5.536V14.678C98.8573 14.7713 98.8246 14.8507 98.7593 14.916C98.7033 14.972 98.624 15 98.5213 15H97.8353C97.742 15 97.6626 14.972 97.5973 14.916C97.5413 14.8507 97.5133 14.7713 97.5133 14.678V7.79L95.1753 12.354C95.138 12.4473 95.082 12.522 95.0073 12.578C94.9326 12.6247 94.8393 12.648 94.7273 12.648H94.2933C94.172 12.648 94.074 12.6247 93.9993 12.578C93.934 12.522 93.878 12.4473 93.8313 12.354L91.4933 7.79V14.678C91.4933 14.7713 91.4606 14.8507 91.3953 14.916C91.3393 14.972 91.2646 15 91.1713 15H90.4853ZM103.995 15.14C103.033 15.14 102.268 14.846 101.699 14.258C101.129 13.6607 100.817 12.8487 100.761 11.822C100.751 11.7007 100.747 11.5467 100.747 11.36C100.747 11.164 100.751 11.0053 100.761 10.884C100.798 10.2213 100.952 9.64267 101.223 9.148C101.493 8.644 101.862 8.25667 102.329 7.986C102.805 7.71533 103.36 7.58 103.995 7.58C104.704 7.58 105.297 7.72933 105.773 8.028C106.258 8.32667 106.627 8.75133 106.879 9.302C107.131 9.85267 107.257 10.4967 107.257 11.234V11.472C107.257 11.5747 107.224 11.654 107.159 11.71C107.103 11.766 107.028 11.794 106.935 11.794H102.091C102.091 11.8033 102.091 11.822 102.091 11.85C102.091 11.878 102.091 11.9013 102.091 11.92C102.109 12.3027 102.193 12.662 102.343 12.998C102.492 13.3247 102.707 13.5907 102.987 13.796C103.267 14.0013 103.603 14.104 103.995 14.104C104.331 14.104 104.611 14.0527 104.835 13.95C105.059 13.8473 105.241 13.7353 105.381 13.614C105.521 13.4833 105.614 13.3853 105.661 13.32C105.745 13.1987 105.81 13.1287 105.857 13.11C105.903 13.082 105.978 13.068 106.081 13.068H106.753C106.846 13.068 106.921 13.096 106.977 13.152C107.042 13.1987 107.07 13.2687 107.061 13.362C107.051 13.502 106.977 13.6747 106.837 13.88C106.697 14.076 106.496 14.272 106.235 14.468C105.973 14.664 105.656 14.8273 105.283 14.958C104.909 15.0793 104.48 15.14 103.995 15.14ZM102.091 10.828H105.927V10.786C105.927 10.366 105.847 9.99267 105.689 9.666C105.539 9.33933 105.32 9.08267 105.031 8.896C104.741 8.7 104.396 8.602 103.995 8.602C103.593 8.602 103.248 8.7 102.959 8.896C102.679 9.08267 102.464 9.33933 102.315 9.666C102.165 9.99267 102.091 10.366 102.091 10.786V10.828ZM111.451 15.14C110.928 15.14 110.48 15.0747 110.107 14.944C109.733 14.8133 109.43 14.6547 109.197 14.468C108.963 14.2813 108.786 14.0947 108.665 13.908C108.553 13.7213 108.492 13.572 108.483 13.46C108.473 13.3573 108.506 13.278 108.581 13.222C108.655 13.166 108.73 13.138 108.805 13.138H109.421C109.477 13.138 109.519 13.1473 109.547 13.166C109.584 13.1753 109.631 13.2127 109.687 13.278C109.808 13.4087 109.943 13.5393 110.093 13.67C110.242 13.8007 110.424 13.908 110.639 13.992C110.863 14.076 111.138 14.118 111.465 14.118C111.941 14.118 112.333 14.0293 112.641 13.852C112.949 13.6653 113.103 13.3947 113.103 13.04C113.103 12.8067 113.037 12.62 112.907 12.48C112.785 12.34 112.561 12.214 112.235 12.102C111.917 11.99 111.479 11.8733 110.919 11.752C110.359 11.6213 109.915 11.4627 109.589 11.276C109.262 11.08 109.029 10.8513 108.889 10.59C108.749 10.3193 108.679 10.016 108.679 9.68C108.679 9.33467 108.781 9.00333 108.987 8.686C109.192 8.35933 109.491 8.09333 109.883 7.888C110.284 7.68267 110.783 7.58 111.381 7.58C111.866 7.58 112.281 7.64067 112.627 7.762C112.972 7.88333 113.257 8.03733 113.481 8.224C113.705 8.40133 113.873 8.57867 113.985 8.756C114.097 8.93333 114.157 9.08267 114.167 9.204C114.176 9.29733 114.148 9.37667 114.083 9.442C114.017 9.498 113.943 9.526 113.859 9.526H113.271C113.205 9.526 113.149 9.512 113.103 9.484C113.065 9.456 113.028 9.42333 112.991 9.386C112.897 9.26467 112.785 9.14333 112.655 9.022C112.533 8.90067 112.37 8.80267 112.165 8.728C111.969 8.644 111.707 8.602 111.381 8.602C110.914 8.602 110.564 8.7 110.331 8.896C110.097 9.092 109.981 9.33933 109.981 9.638C109.981 9.81533 110.032 9.974 110.135 10.114C110.237 10.254 110.433 10.38 110.723 10.492C111.012 10.604 111.441 10.7253 112.011 10.856C112.627 10.9773 113.112 11.1407 113.467 11.346C113.821 11.5513 114.073 11.7893 114.223 12.06C114.372 12.3307 114.447 12.6433 114.447 12.998C114.447 13.39 114.33 13.7493 114.097 14.076C113.873 14.4027 113.537 14.664 113.089 14.86C112.65 15.0467 112.104 15.14 111.451 15.14ZM118.587 15.14C118.065 15.14 117.617 15.0747 117.243 14.944C116.87 14.8133 116.567 14.6547 116.333 14.468C116.1 14.2813 115.923 14.0947 115.801 13.908C115.689 13.7213 115.629 13.572 115.619 13.46C115.61 13.3573 115.643 13.278 115.717 13.222C115.792 13.166 115.867 13.138 115.941 13.138H116.557C116.613 13.138 116.655 13.1473 116.683 13.166C116.721 13.1753 116.767 13.2127 116.823 13.278C116.945 13.4087 117.08 13.5393 117.229 13.67C117.379 13.8007 117.561 13.908 117.775 13.992C117.999 14.076 118.275 14.118 118.601 14.118C119.077 14.118 119.469 14.0293 119.777 13.852C120.085 13.6653 120.239 13.3947 120.239 13.04C120.239 12.8067 120.174 12.62 120.043 12.48C119.922 12.34 119.698 12.214 119.371 12.102C119.054 11.99 118.615 11.8733 118.055 11.752C117.495 11.6213 117.052 11.4627 116.725 11.276C116.399 11.08 116.165 10.8513 116.025 10.59C115.885 10.3193 115.815 10.016 115.815 9.68C115.815 9.33467 115.918 9.00333 116.123 8.686C116.329 8.35933 116.627 8.09333 117.019 7.888C117.421 7.68267 117.92 7.58 118.517 7.58C119.003 7.58 119.418 7.64067 119.763 7.762C120.109 7.88333 120.393 8.03733 120.617 8.224C120.841 8.40133 121.009 8.57867 121.121 8.756C121.233 8.93333 121.294 9.08267 121.303 9.204C121.313 9.29733 121.285 9.37667 121.219 9.442C121.154 9.498 121.079 9.526 120.995 9.526H120.407C120.342 9.526 120.286 9.512 120.239 9.484C120.202 9.456 120.165 9.42333 120.127 9.386C120.034 9.26467 119.922 9.14333 119.791 9.022C119.67 8.90067 119.507 8.80267 119.301 8.728C119.105 8.644 118.844 8.602 118.517 8.602C118.051 8.602 117.701 8.7 117.467 8.896C117.234 9.092 117.117 9.33933 117.117 9.638C117.117 9.81533 117.169 9.974 117.271 10.114C117.374 10.254 117.57 10.38 117.859 10.492C118.149 10.604 118.578 10.7253 119.147 10.856C119.763 10.9773 120.249 11.1407 120.603 11.346C120.958 11.5513 121.21 11.7893 121.359 12.06C121.509 12.3307 121.583 12.6433 121.583 12.998C121.583 13.39 121.467 13.7493 121.233 14.076C121.009 14.4027 120.673 14.664 120.225 14.86C119.787 15.0467 119.241 15.14 118.587 15.14ZM125.234 15.14C124.767 15.14 124.343 15.0467 123.96 14.86C123.577 14.6733 123.269 14.4213 123.036 14.104C122.803 13.7867 122.686 13.4273 122.686 13.026C122.686 12.382 122.947 11.8687 123.47 11.486C123.993 11.1033 124.674 10.8513 125.514 10.73L127.6 10.436V10.03C127.6 9.582 127.469 9.232 127.208 8.98C126.956 8.728 126.541 8.602 125.962 8.602C125.542 8.602 125.201 8.686 124.94 8.854C124.688 9.022 124.511 9.23667 124.408 9.498C124.352 9.638 124.254 9.708 124.114 9.708H123.484C123.381 9.708 123.302 9.68 123.246 9.624C123.199 9.55867 123.176 9.484 123.176 9.4C123.176 9.26 123.227 9.08733 123.33 8.882C123.442 8.67667 123.61 8.476 123.834 8.28C124.058 8.084 124.343 7.92067 124.688 7.79C125.043 7.65 125.472 7.58 125.976 7.58C126.536 7.58 127.007 7.65467 127.39 7.804C127.773 7.944 128.071 8.13533 128.286 8.378C128.51 8.62067 128.669 8.896 128.762 9.204C128.865 9.512 128.916 9.82467 128.916 10.142V14.678C128.916 14.7713 128.883 14.8507 128.818 14.916C128.762 14.972 128.687 15 128.594 15H127.95C127.847 15 127.768 14.972 127.712 14.916C127.656 14.8507 127.628 14.7713 127.628 14.678V14.076C127.507 14.244 127.343 14.412 127.138 14.58C126.933 14.7387 126.676 14.874 126.368 14.986C126.06 15.0887 125.682 15.14 125.234 15.14ZM125.528 14.09C125.911 14.09 126.261 14.0107 126.578 13.852C126.895 13.684 127.143 13.4273 127.32 13.082C127.507 12.7367 127.6 12.3027 127.6 11.78V11.388L125.976 11.626C125.313 11.7193 124.814 11.878 124.478 12.102C124.142 12.3167 123.974 12.592 123.974 12.928C123.974 13.1893 124.049 13.4087 124.198 13.586C124.357 13.754 124.553 13.88 124.786 13.964C125.029 14.048 125.276 14.09 125.528 14.09ZM133.911 18.08C133.276 18.08 132.753 17.996 132.343 17.828C131.941 17.66 131.624 17.4547 131.391 17.212C131.167 16.9787 131.003 16.7407 130.901 16.498C130.807 16.2647 130.756 16.078 130.747 15.938C130.737 15.8447 130.765 15.7653 130.831 15.7C130.905 15.6347 130.985 15.602 131.069 15.602H131.741C131.825 15.602 131.895 15.6207 131.951 15.658C132.007 15.6953 132.053 15.7747 132.091 15.896C132.147 16.036 132.231 16.19 132.343 16.358C132.455 16.5353 132.627 16.6847 132.861 16.806C133.094 16.9367 133.421 17.002 133.841 17.002C134.279 17.002 134.648 16.9413 134.947 16.82C135.245 16.708 135.469 16.5027 135.619 16.204C135.777 15.9147 135.857 15.5133 135.857 15V14.048C135.633 14.3373 135.339 14.58 134.975 14.776C134.611 14.9627 134.153 15.056 133.603 15.056C133.08 15.056 132.632 14.9673 132.259 14.79C131.885 14.6033 131.577 14.356 131.335 14.048C131.101 13.7307 130.924 13.3713 130.803 12.97C130.691 12.5687 130.625 12.1487 130.607 11.71C130.597 11.4487 130.597 11.192 130.607 10.94C130.625 10.5013 130.691 10.0813 130.803 9.68C130.924 9.27867 131.101 8.91933 131.335 8.602C131.577 8.28467 131.885 8.03733 132.259 7.86C132.632 7.67333 133.08 7.58 133.603 7.58C134.163 7.58 134.625 7.68733 134.989 7.902C135.362 8.10733 135.665 8.35933 135.899 8.658V8.056C135.899 7.96267 135.927 7.88333 135.983 7.818C136.048 7.75267 136.127 7.72 136.221 7.72H136.865C136.958 7.72 137.037 7.75267 137.103 7.818C137.168 7.88333 137.201 7.96267 137.201 8.056V14.846C137.201 15.4713 137.093 16.0267 136.879 16.512C136.673 16.9973 136.328 17.38 135.843 17.66C135.367 17.94 134.723 18.08 133.911 18.08ZM133.883 13.936C134.349 13.936 134.723 13.8287 135.003 13.614C135.292 13.3993 135.502 13.1287 135.633 12.802C135.773 12.4753 135.847 12.144 135.857 11.808C135.866 11.6773 135.871 11.5187 135.871 11.332C135.871 11.136 135.866 10.9727 135.857 10.842C135.847 10.506 135.773 10.1747 135.633 9.848C135.502 9.52133 135.292 9.25067 135.003 9.036C134.723 8.82133 134.349 8.714 133.883 8.714C133.416 8.714 133.043 8.82133 132.763 9.036C132.483 9.24133 132.282 9.51667 132.161 9.862C132.039 10.198 131.969 10.562 131.951 10.954C131.941 11.1967 131.941 11.444 131.951 11.696C131.969 12.088 132.039 12.4567 132.161 12.802C132.282 13.138 132.483 13.4133 132.763 13.628C133.043 13.8333 133.416 13.936 133.883 13.936ZM142.18 15.14C141.219 15.14 140.453 14.846 139.884 14.258C139.315 13.6607 139.002 12.8487 138.946 11.822C138.937 11.7007 138.932 11.5467 138.932 11.36C138.932 11.164 138.937 11.0053 138.946 10.884C138.983 10.2213 139.137 9.64267 139.408 9.148C139.679 8.644 140.047 8.25667 140.514 7.986C140.99 7.71533 141.545 7.58 142.18 7.58C142.889 7.58 143.482 7.72933 143.958 8.028C144.443 8.32667 144.812 8.75133 145.064 9.302C145.316 9.85267 145.442 10.4967 145.442 11.234V11.472C145.442 11.5747 145.409 11.654 145.344 11.71C145.288 11.766 145.213 11.794 145.12 11.794H140.276C140.276 11.8033 140.276 11.822 140.276 11.85C140.276 11.878 140.276 11.9013 140.276 11.92C140.295 12.3027 140.379 12.662 140.528 12.998C140.677 13.3247 140.892 13.5907 141.172 13.796C141.452 14.0013 141.788 14.104 142.18 14.104C142.516 14.104 142.796 14.0527 143.02 13.95C143.244 13.8473 143.426 13.7353 143.566 13.614C143.706 13.4833 143.799 13.3853 143.846 13.32C143.93 13.1987 143.995 13.1287 144.042 13.11C144.089 13.082 144.163 13.068 144.266 13.068H144.938C145.031 13.068 145.106 13.096 145.162 13.152C145.227 13.1987 145.255 13.2687 145.246 13.362C145.237 13.502 145.162 13.6747 145.022 13.88C144.882 14.076 144.681 14.272 144.42 14.468C144.159 14.664 143.841 14.8273 143.468 14.958C143.095 15.0793 142.665 15.14 142.18 15.14ZM140.276 10.828H144.112V10.786C144.112 10.366 144.033 9.99267 143.874 9.666C143.725 9.33933 143.505 9.08267 143.216 8.896C142.927 8.7 142.581 8.602 142.18 8.602C141.779 8.602 141.433 8.7 141.144 8.896C140.864 9.08267 140.649 9.33933 140.5 9.666C140.351 9.99267 140.276 10.366 140.276 10.786V10.828Z" fill="#707070"/>
</svg>
