<svg width="28" height="28" viewBox="0 0 28 28" fill="none" xmlns="http://www.w3.org/2000/svg">
<rect width="28" height="28" rx="14" fill="#F1F1F1"/>
<path d="M14.5846 11.0833C14.5846 12.372 13.5399 13.4167 12.2513 13.4167C10.9626 13.4167 9.91797 12.372 9.91797 11.0833C9.91797 9.79467 10.9626 8.75 12.2513 8.75C13.5399 8.75 14.5846 9.79467 14.5846 11.0833Z" stroke="#292929" stroke-width="0.875"/>
<path d="M15.75 13.4167C17.0386 13.4167 18.0833 12.372 18.0833 11.0833C18.0833 9.79467 17.0386 8.75 15.75 8.75" stroke="#292929" stroke-width="0.875" stroke-linecap="round" stroke-linejoin="round"/>
<path d="M13.418 15.1666H11.0846C9.47381 15.1666 8.16797 16.4725 8.16797 18.0833C8.16797 18.7276 8.6903 19.25 9.33464 19.25H15.168C15.8123 19.25 16.3346 18.7276 16.3346 18.0833C16.3346 16.4725 15.0288 15.1666 13.418 15.1666Z" stroke="#292929" stroke-width="0.875" stroke-linejoin="round"/>
<path d="M16.918 15.1666C18.5288 15.1666 19.8346 16.4725 19.8346 18.0833C19.8346 18.7276 19.3123 19.25 18.668 19.25H17.793" stroke="#292929" stroke-width="0.875" stroke-linecap="round" stroke-linejoin="round"/>
</svg>
