<svg width="28" height="28" viewBox="0 0 28 28" fill="none" xmlns="http://www.w3.org/2000/svg">
<rect width="28" height="28" rx="14" fill="#FDECEB"/>
<path d="M18.375 10.2084L18.0135 16.0563C17.9211 17.5504 17.875 18.2975 17.5005 18.8346C17.3153 19.1002 17.0769 19.3243 16.8004 19.4927C16.2412 19.8334 15.4927 19.8334 13.9957 19.8334C12.4968 19.8334 11.7473 19.8334 11.1878 19.4921C10.9111 19.3234 10.6727 19.0988 10.4876 18.8328C10.1132 18.2949 10.068 17.5468 9.97769 16.0506L9.625 10.2084" stroke="#EB4335" stroke-width="0.875" stroke-linecap="round"/>
<path d="M8.75 10.2083H19.25M16.3658 10.2083L15.9676 9.3868C15.7031 8.84111 15.5708 8.56826 15.3427 8.3981C15.2921 8.36035 15.2385 8.32677 15.1824 8.2977C14.9298 8.16663 14.6266 8.16663 14.0201 8.16663C13.3985 8.16663 13.0877 8.16663 12.8308 8.3032C12.7739 8.33347 12.7196 8.3684 12.6684 8.40764C12.4376 8.5847 12.3087 8.86753 12.0509 9.43319L11.6975 10.2083" stroke="#EB4335" stroke-width="0.875" stroke-linecap="round"/>
<path d="M12.543 16.625V13.125" stroke="#EB4335" stroke-width="0.875" stroke-linecap="round"/>
<path d="M15.457 16.625V13.125" stroke="#EB4335" stroke-width="0.875" stroke-linecap="round"/>
</svg>
