<svg width="18" height="18" viewBox="0 0 18 18" fill="none" xmlns="http://www.w3.org/2000/svg">
<path d="M5.625 6C5.21897 6.09607 4.87449 6.10679 4.49451 6.34418C3.80426 6.77541 3.63831 7.28755 3.81616 8.0709C4.45521 10.8854 7.11449 13.5447 9.9291 14.1838C10.7126 14.3617 11.2246 14.196 11.6562 13.5058C11.8808 13.1466 11.9037 12.7561 12 12.375" stroke="#292929" stroke-width="1.125" stroke-linecap="round" stroke-linejoin="round"/>
<path d="M9 5.84936C9.1332 5.83345 9.23865 5.80525 9.32212 5.76176C10.0498 5.38264 10.4468 4.15021 10.8373 3.45007C11.1983 2.80286 11.3788 2.47925 11.8034 2.3267C12.2281 2.17416 12.4836 2.26654 12.9947 2.45129C14.1898 2.88337 15.1166 3.81024 15.5487 5.00535C15.7334 5.51641 15.8258 5.77193 15.6733 6.19653C15.5207 6.62113 15.1971 6.80163 14.5499 7.16263C13.8456 7.5555 12.5966 7.9581 12.2179 8.69235C12.1759 8.77372 12.1484 8.87452 12.1327 9" stroke="#292929" stroke-width="1.125" stroke-linecap="round" stroke-linejoin="round"/>
<path d="M2.25 15.75L6 12" stroke="#292929" stroke-width="1.125" stroke-linecap="round" stroke-linejoin="round"/>
<path d="M2.25 2.25L15.75 15.75" stroke="#292929" stroke-width="1.125" stroke-linecap="round" stroke-linejoin="round"/>
</svg>
